<?xml version="1.0" encoding="UTF-8"?>
<!DOCTYPE svg PUBLIC "-//W3C//DTD SVG 1.1//EN" "http://www.w3.org/Graphics/SVG/1.1/DTD/svg11.dtd">
<!-- Creator: CorelDRAW 2019 (64 Bit) -->
<svg xmlns="http://www.w3.org/2000/svg" xml:space="preserve" width="13.7961mm" height="16.2013mm" version="1.1" style="shape-rendering:geometricPrecision; text-rendering:geometricPrecision; image-rendering:optimizeQuality; fill-rule:evenodd; clip-rule:evenodd"
viewBox="0 0 330.04 387.58"
 xmlns:xlink="http://www.w3.org/1999/xlink">
 <defs>
  <style type="text/css">
   <![CDATA[
    .fil4 {fill:#3D2913}
    .fil5 {fill:#56B9DA}
    .fil6 {fill:#5BBB66}
    .fil1 {fill:#92692D}
    .fil8 {fill:#9E723C}
    .fil0 {fill:#A57B46}
    .fil9 {fill:#B08748}
    .fil2 {fill:#B78C50}
    .fil3 {fill:#C6C7C5}
    .fil7 {fill:#CA8E2A}
   ]]>
  </style>
 </defs>
 <g id="Camada_x0020_1">
  <metadata id="CorelCorpID_0Corel-Layer"/>
  <g id="_2133841188000">
   <g>
    <path class="fil0" d="M17.87 70.43c-0.82,-12.1 -4.53,-23.65 -2.31,-29.6 5.85,1.95 2.98,2.23 5.55,15.77 5.34,28.16 9.47,61.37 14.18,90.67l28.1 181.12c6.79,46.2 0.57,42.06 38.62,34.79 19.56,-3.74 38.43,-5.05 54.23,-8.14 16.23,-3.18 39.96,-5.6 54.23,-8.15 12.43,-2.22 22.87,-3.98 36.34,-5.93 12.05,-1.75 23.76,-3.82 35.41,-5.75 17.99,-2.97 15.65,-3.71 26.79,-15.87l0.16 -5.55c-0.25,-0.27 -0.56,-1.03 -0.67,-0.85l-17.6 -97.36c-0.96,-9.76 -3.42,-15.49 -5.13,-22.8 -0.78,-3.34 -1.79,-8.43 -2.13,-11.77 -0.62,-6.24 -2.33,-7.69 -2.89,-12.23 -1.4,-11.56 -3.83,-17.2 -4.31,-21.9 -1.27,-12.31 -0.6,-6.17 -3.28,-10.6 -3.69,-6.1 -0.71,-6.86 1.11,-8.5 -3.19,-6.84 -1.92,-13.78 -2.92,-16 -1.18,-2.62 -3.39,-2.72 -3.51,-6.1 -0.15,-4.17 2.51,-3.24 1.05,-8.32 -4.3,-15 1.65,-5.03 -6.16,-20.09l-0.57 -3.29c0.56,-4.82 1.61,-0.26 -2.35,-6.56l3.25 -0.85c0.06,-0.02 0.29,-0.07 0.42,-0.15l-1.91 -3.8c-2.5,-3.73 0.07,-4.64 -4.98,-6.11 7.15,-9.56 1.01,-7.37 -0.5,-15 -0.81,-4.1 -0.46,-3 2.37,-4.26 -3.51,-6.24 -2.24,-7.77 -4.07,-16.03 -0.57,-2.56 -0.56,-2.54 -2.08,-3.78 -1.82,-1.48 -1.13,-0.14 -3.65,-2.42 -1.36,-1.22 -5.14,-5.33 -5.83,-6.22 -1.72,0.51 0.91,-2.13 -2.29,3.1 -4.07,-1.39 -10.84,-3.94 -14.27,-1.11 1.5,1.56 2.02,1.74 2.37,5.61 -2.39,-1.23 -2.73,-2.46 -6.04,-2.72 -7.13,-0.58 -0.34,0.66 -4.52,1.65 -1.78,0.42 -1.35,-0.58 -5.71,-0.72 -2.31,-0.07 -5.78,0.25 -8.05,0.54 -1.01,2.8 2.27,0.11 1.01,3.22 -6.69,-0.5 -0.22,1.15 -5.03,-3.5 -15.83,3.8 -19.09,-0.89 -23.67,1.88 -5.88,3.55 -2.01,0.83 -21.1,3.31 -2.7,0.35 -4.97,1.24 -7.92,1.72 -4.82,0.78 -4.89,-0.79 -5.81,3.79l-9.9 -2.19 -2.69 4.89c-11.85,-6.85 -11.31,6.15 -20.87,-1.27 -1.38,1.11 -4.51,6.35 -9.65,2.41 -0.12,0.19 -0.21,0.32 -0.28,0.62l-2.74 2.76c-3.3,-1.45 -4,-2.13 -7.46,-0.96 -0.3,0.1 -1.08,0.58 -1.36,0.67l-17.09 0.92c-0.28,0.96 -0.36,2.4 -0.37,2.45l-0.89 2.5 -25.26 -0.23c-2.24,0.54 -3.55,0.67 -5.54,0.47 -4.29,-0.41 -1.95,-1.43 -7.74,2.58 -2.4,1.67 -12.12,-5.16 -15.77,-5.94 -2.71,6.09 -1.5,8.82 -0.01,17.63 0.54,3.19 0.82,5.73 1.18,8.77 0,0.05 0.62,4.42 0.62,4.44l1.92 4.35z"/>
    <path class="fil1" d="M51.38 379.23l2.4 0.93 1.54 -3.25c17.15,0.41 41.64,-4.53 58.5,-7.58 47.81,-8.65 102.05,-15.82 151.11,-23.86 4.96,-0.82 10,-1.63 14.9,-2.32 6.18,-0.87 9.94,-3.04 13.72,-3.64 -1.39,3.25 -0.48,1.96 -3.1,4.1 -3.87,3.16 -3.23,1.4 -4.92,4.82 5.74,-0.8 10.09,-2.32 14.33,-5.32 4.55,-3.22 5.28,-6.83 9.06,-9.82 0.97,-4.71 2.54,-9.68 1,-13.94l-0.93 0c-11.14,12.17 -8.8,12.9 -26.79,15.87 -11.64,1.92 -23.36,4 -35.41,5.75 -13.47,1.95 -23.91,3.7 -36.34,5.93 -14.27,2.56 -38,4.97 -54.23,8.15 -15.8,3.09 -34.67,4.4 -54.23,8.14 -38.04,7.27 -31.83,11.41 -38.62,-34.79l-28.1 -181.12c-4.71,-29.3 -8.84,-62.51 -14.18,-90.67 -2.57,-13.54 0.3,-13.82 -5.55,-15.77 -2.22,5.96 1.5,17.51 2.31,29.6l34.15 225.83c1.97,12.63 3.35,25.28 5.54,37.7 1.86,10.54 5.45,26.95 4.97,38.34 -5.8,-0.21 -5.65,-1.75 -6.5,-6.87 -0.55,-3.32 -1.03,-6.71 -1.67,-10.3 -3.68,-20.54 -5.62,-43.3 -9.83,-64.73 -5.18,-26.41 -8.17,-56.06 -13.16,-83.21 -4.87,-26.49 -23.17,-162.5 -28.28,-168.89 -4.97,3.43 -2.65,13.11 -1.84,19.88l10.03 64.41c2.31,13.67 4.65,29.28 6.6,42.69l31.06 203.34c0.83,4 2.1,6.7 2.43,10.6z"/>
    <path class="fil2" d="M3.09 38.31c5.11,6.39 23.41,142.41 28.28,168.89 4.99,27.15 7.98,56.8 13.16,83.21 4.2,21.43 6.14,44.19 9.83,64.73 0.64,3.59 1.12,6.98 1.67,10.3 0.84,5.12 0.69,6.66 6.5,6.87 0.48,-11.39 -3.11,-27.8 -4.97,-38.34 -2.19,-12.42 -3.57,-25.07 -5.54,-37.7l-34.15 -225.83 -1.92 -4.35c-0,-0.02 -0.62,-4.39 -0.62,-4.44 -0.36,-3.04 -0.64,-5.57 -1.18,-8.77 -1.48,-8.81 -2.69,-11.54 0.01,-17.63 3.65,0.79 13.36,7.61 15.77,5.94 5.8,-4.01 3.45,-3 7.74,-2.58 2,0.19 3.3,0.07 5.54,-0.47l25.26 0.23 0.89 -2.5c0.01,-0.05 0.09,-1.49 0.37,-2.45l17.09 -0.92c0.28,-0.09 1.06,-0.57 1.36,-0.67 3.46,-1.17 4.16,-0.49 7.46,0.96l2.74 -2.76c0.06,-0.31 0.15,-0.43 0.28,-0.62 5.14,3.94 8.27,-1.3 9.65,-2.41 9.56,7.42 9.02,-5.58 20.87,1.27l2.69 -4.89 9.9 2.19c0.92,-4.58 0.99,-3.01 5.81,-3.79 2.95,-0.48 5.22,-1.37 7.92,-1.72 19.09,-2.47 15.22,0.24 21.1,-3.31 4.58,-2.76 7.84,1.93 23.67,-1.88 4.82,4.65 -1.66,2.99 5.03,3.5 1.26,-3.11 -2.02,-0.41 -1.01,-3.22 2.27,-0.29 5.74,-0.61 8.05,-0.54 4.36,0.14 3.94,1.14 5.71,0.72 4.18,-0.99 -2.61,-2.23 4.52,-1.65 3.3,0.27 3.64,1.49 6.04,2.72 -0.35,-3.87 -0.87,-4.05 -2.37,-5.61 3.42,-2.83 10.2,-0.28 14.27,1.11 3.2,-5.24 0.56,-2.59 2.29,-3.1 0.7,0.89 4.48,5 5.83,6.22 2.52,2.27 1.84,0.93 3.65,2.42 1.53,1.25 1.52,1.22 2.08,3.78 1.83,8.26 0.56,9.79 4.07,16.03 -2.84,1.26 -3.18,0.16 -2.37,4.26 1.51,7.64 7.65,5.44 0.5,15 5.05,1.48 2.48,2.39 4.98,6.11l1.91 3.8c-0.13,0.08 -0.36,0.13 -0.42,0.15l-3.25 0.85c3.96,6.3 2.91,1.74 2.35,6.56l0.57 3.29c7.81,15.05 1.86,5.09 6.16,20.09 1.45,5.08 -1.2,4.15 -1.05,8.32 0.12,3.37 2.33,3.47 3.51,6.1 1,2.22 -0.27,9.16 2.92,16 -1.82,1.64 -4.79,2.41 -1.11,8.5 2.68,4.44 2.01,-1.71 3.28,10.6 0.48,4.7 2.91,10.33 4.31,21.9 0.55,4.54 2.26,5.99 2.89,12.23 0.33,3.34 1.34,8.42 2.13,11.77 1.72,7.31 4.17,13.04 5.13,22.8l17.6 97.36c0.12,-0.18 0.43,0.58 0.67,0.85l-0.02 -3.4c2.78,-0.53 5.67,-1.12 8.54,-1.59 1.22,-0.2 3.39,-0.37 4.39,-0.6l4.31 -2.36 -17.54 2.57 -8.39 -53.76 -0.96 -5.37 -1.11 -6.96 -9.34 -56.77 -1.32 -8.78 -8.99 -55.13 -0.86 -5.5 -0.71 -4.74 6.5 -0.8 8.18 -0.95 3.27 -1.95 -18.15 1.94 -15.76 -91.52c-0.05,-4.09 -3.88,-9.29 -6.83,-11.81 -12.6,-10.75 -30.72,-5.16 -48.89,-2.12l-195.26 31.09c-1.83,0.13 -3.37,0.25 -4.38,0.65 -2.8,1.12 -1.68,-0.29 -2.72,2.38z"/>
    <path class="fil3" d="M295.08 107.71l3.78 -3.52c0,-9.18 -5.35,-33.63 -7.19,-44.67 -5.72,-34.23 -0.56,-26.3 -23.99,-26.3 -5.12,-9.68 -0.89,-11.96 -6.5,-15.09l15.76 91.52 18.15 -1.94z"/>
    <path class="fil4" d="M53.78 380.16c2.26,6.7 11.37,3.46 26.05,1.28 20.43,-3.04 198.17,-30.61 205.69,-33.02 1.69,-3.42 1.05,-1.66 4.92,-4.82 2.61,-2.14 1.71,-0.85 3.1,-4.1 -3.78,0.6 -7.54,2.78 -13.72,3.64 -4.9,0.68 -9.94,1.5 -14.9,2.32 -49.06,8.04 -103.3,15.21 -151.11,23.86 -16.86,3.05 -41.35,8 -58.5,7.58l-1.54 3.25z"/>
    <path class="fil5" d="M295.08 107.71l-3.27 1.95c-2.47,5.01 -7.7,9.62 -13.1,11.99l8.99 55.13 10.98 -0.72c5.34,-2.48 6.99,-0.14 10.02,-6.02 0.48,-6 -7.83,-60.54 -9.85,-65.84l-3.78 3.52z"/>
    <path class="fil6" d="M298.68 176.05c1.54,1.63 1.63,-1.76 1.22,2.03 -4.09,2.64 -4.63,6.16 -10.88,7.47l9.34 56.77 12.46 -1.23 3.57 -0.07c4.54,-3 2.1,-1.93 5.59,-5.28l-10.14 -63.67c-0.79,-1.94 -0.16,-0.78 -1.14,-2.05 -3.03,5.89 -4.68,3.55 -10.02,6.02z"/>
    <path class="fil7" d="M314.39 241.02c-1.38,5.21 -2.05,5.9 -5.47,8.45 -3.17,2.37 -4.34,3.97 -8.49,5.18l8.39 53.76 17.54 -2.57 3.67 -2.96c0,-12.57 -2.61,-22.24 -4.32,-33.97 -0.71,-4.84 -1.84,-11.07 -2.73,-16.39 -0.89,-5.33 -1.67,-11.91 -3.02,-16.78 -3.49,3.35 -1.05,2.29 -5.59,5.28z"/>
    <path class="fil3" d="M285.52 348.42c-7.52,2.41 -185.26,29.98 -205.69,33.02 -14.68,2.18 -23.79,5.42 -26.05,-1.28l-2.4 -0.93c2.85,12.53 18.19,7.67 29.23,6.14l104.27 -16.45c18.52,-3.05 87.97,-13.01 102.94,-16.77 9.39,-2.36 20.24,-9.77 21.1,-18.87 -3.78,3 -4.51,6.6 -9.06,9.82 -4.24,3 -8.6,4.52 -14.33,5.32z"/>
    <path class="fil3" d="M326.37 305.85l-4.31 2.36c-1,0.22 -3.17,0.4 -4.39,0.6 -2.87,0.47 -5.76,1.06 -8.54,1.59l0.02 3.4 -0.16 5.55 0.93 0c4.22,-3.75 -0.98,-3.73 10.66,-6.86 5.53,-1.48 8.94,-3.53 9.46,-9.6l-3.67 2.96z"/>
    <path class="fil1" d="M299.48 249.28l0.96 5.37c4.14,-1.21 5.32,-2.81 8.49,-5.18 3.42,-2.55 4.09,-3.25 5.47,-8.45l-3.57 0.07 -2.3 2.01c-4.37,3.44 -5.6,5.28 -9.05,6.17z"/>
    <path class="fil6" d="M283.64 110.6c-1.51,3.31 -2,3.77 -5.78,5.54l0.86 5.5c5.41,-2.37 10.64,-6.99 13.1,-11.99l-8.18 0.95z"/>
    <path class="fil4" d="M287.7 176.78l1.32 8.78c6.25,-1.3 6.78,-4.83 10.88,-7.47 0.41,-3.8 0.32,-0.4 -1.22,-2.03l-10.98 0.72z"/>
    <path class="fil4" d="M298.36 242.33l1.11 6.96c3.45,-0.89 4.68,-2.73 9.05,-6.17l2.3 -2.01 -12.46 1.23z"/>
    <path class="fil4" d="M277.85 116.14c3.79,-1.77 4.27,-2.23 5.78,-5.54l-6.5 0.8 0.71 4.74z"/>
   </g>
   <g>
    <circle class="fil8" cx="162.84" cy="169.13" r="91.58"/>
    <path class="fil9" d="M162.84 86.61c45.58,0 82.52,36.95 82.52,82.52 0,21.61 -10.74,40.74 -10.72,40.7 -40.42,-21.34 -50.03,-0.76 -54.62,-22.73 -1.38,-6.6 1.19,-4.34 2.12,-9.71 0.54,-3.14 0.22,-8.93 0.44,-12.36l2.84 -2.34c-0.07,-7.56 3.3,-12.8 -2.59,-17.48 0.44,-12.99 0.55,-19.91 -6.92,-28.82 -1.87,-2.22 1.54,-0.1 -2.61,-2.36 -1.37,-0.74 -0.65,-0.48 -3.03,-1.01 -12.67,-2.79 -21.66,-4.76 -33.52,6.66 -3.24,3.12 -6.55,4.92 -7.96,9.11 -3.85,11.44 7.33,15.93 1.98,27.55 1.52,2.97 2.98,6.02 4.21,9.02 2.19,5.35 3.13,3.85 5.29,6.88 1.49,2.08 2.54,7.22 3.61,9.59 1.41,3.14 3.42,4.01 5.06,6.91 -0,8.64 1.17,13.07 -4.93,16.24 -4.49,2.33 -10.94,3.66 -15.34,5.94 -10.31,5.37 -19.78,14.6 -23.12,17.56 -15.55,-15.01 -25.22,-36.06 -25.22,-59.38 0,-45.58 36.95,-82.52 82.52,-82.52z"/>
   </g>
  </g>
 </g>
</svg>
