<?xml version="1.0" encoding="UTF-8"?>
<!DOCTYPE svg PUBLIC "-//W3C//DTD SVG 1.1//EN" "http://www.w3.org/Graphics/SVG/1.1/DTD/svg11.dtd">
<!-- Creator: CorelDRAW 2019 (64 Bit) -->
<svg xmlns="http://www.w3.org/2000/svg" xml:space="preserve" width="14.9918mm" height="14.9897mm" version="1.1" style="shape-rendering:geometricPrecision; text-rendering:geometricPrecision; image-rendering:optimizeQuality; fill-rule:evenodd; clip-rule:evenodd"
viewBox="0 0 183.28 183.25"
 xmlns:xlink="http://www.w3.org/1999/xlink">
 <defs>
  <style type="text/css">
   <![CDATA[
    .fil8 {fill:#E6E7E8}
    .fil0 {fill:#ED3237}
    .fil3 {fill:#2BB898}
    .fil2 {fill:#5CB8CB}
    .fil1 {fill:#7E8484}
    .fil5 {fill:#86CEBB}
    .fil4 {fill:#A8E8D8}
    .fil6 {fill:#B5EBEA}
    .fil7 {fill:#FBB6A8}
   ]]>
  </style>
 </defs>
 <g id="Camada_x0020_1">
  <metadata id="CorelCorpID_0Corel-Layer"/>
  <g id="_2099353314128">
   <path class="fil0" d="M82.23 61.72c-7.59,-3.16 -12.81,-10.42 -13.92,-18.14 -1.83,-12.76 8.92,-23.76 21.43,-23.9 4.15,-0.05 8.22,1.24 12.13,3.76 6.44,4.14 9.96,12.1 9.4,19.9 -0.99,13.62 -15.54,24 -29.04,18.38zm38.24 12.49c2,-3.71 4.05,-7.47 5.39,-11.26 0.08,-0.95 2.92,-8.43 3.47,-10.26 1.1,-3.65 1.89,-7.47 1.85,-11.85 -0.18,-18.92 -16.04,-38.42 -35.61,-40.56 -18.39,-2.01 -34.26,7.33 -42.9,23.61 -12.41,23.37 5.02,49.43 23.18,79.3 4.29,7.06 8.3,14.19 12.66,21.09l1.2 1.9c0.46,-0.27 3.44,-4.89 7.22,-11 9.34,-15.09 15.73,-26.42 23.56,-40.96z"/>
   <path class="fil1" d="M124.57 66.13c-0.77,1.72 -1.82,3.42 -2.62,5.32 5.1,-0.14 10.78,-0.01 15.89,-0.01 6.37,0 8.51,-0.49 11.82,3.5 1.99,2.39 6.23,18.48 7.6,23.15 2.38,8.09 4.92,15.63 7.18,23.62 2.44,8.58 13.67,42.69 13.77,47.75 0.11,5.14 -1.56,8.43 -7.05,8.47 -50.88,0.36 -103.03,-0.01 -154.08,-0.01 -6.11,0 -9.51,0.96 -11.33,-4.27 -2.03,-5.83 3.27,-19.07 4.99,-24.87 4.66,-15.75 9.47,-31.51 14.37,-47.26 2.4,-7.71 4.77,-15.9 7.13,-23.64 1.22,-4.01 3.89,-6.46 8.83,-6.46 5.29,-0 11.06,0.05 16.35,0.03 -0.71,-1.87 -1.88,-3.63 -2.53,-5.33 -13.19,0.41 -20.21,-2.36 -26.2,7.06 -1.16,1.82 -7,21.81 -8.01,25.35 -5.85,20.52 -13.63,43.31 -19.37,63.73 -1.44,5.14 -1.99,8.57 -0.15,13.86 1.38,3.97 4.95,6.66 9.46,6.93 5.13,0.31 11.25,0.02 16.49,0.02l132.94 0c11.88,0 20.46,2.38 23.02,-10.26 1.29,-6.36 -4.04,-20.57 -5.86,-26.61l-19.38 -63.75c-1.33,-4.29 -2.19,-8.74 -4.78,-11.69 -6.08,-6.93 -18.2,-4.18 -28.5,-4.64z"/>
   <path class="fil2" d="M114.43 154.72c0.62,0.41 0.32,-0.44 0.79,1.14l5.33 7.25c0.81,1.17 1.77,2.56 2.67,3.78 1.05,1.42 2.17,3.48 3.16,3.64l33.58 0 -1.79 -14.53c-5.59,-1.4 -19,-1.69 -21.56,-11.05 -2.18,-0.17 -23.09,-0.69 -23.27,0.37 -0,0.01 -1.95,4.15 -1.73,5.18 0.81,1.44 2.14,2.71 2.82,4.24z"/>
   <path class="fil3" d="M126.82 114.37l0.55 0.31c0.66,0 0.41,-0.13 0.47,0.68 0.77,0.15 4.47,3.48 5.55,4.44 2.63,2.33 8.86,0.12 15.24,-0.55 -0.49,-1.4 -0.49,-0.48 -2.03,-2.59 -6.37,-8.68 -5.94,-25.7 -6.53,-26.74 -0.65,-0.64 -0.39,-0.5 -1.39,-0.91 -4.01,-1.67 -10.78,-0.58 -14.57,0.8l-0.09 21.97 2.8 2.59z"/>
   <path class="fil3" d="M75.36 161.23c-0.25,0.2 -0.3,0.27 -0.81,0.52 -0.71,0.36 1.35,-0.29 -0.74,0.2l-21.09 8.54 56.89 -0.04 -1.46 -2.56c-0.74,-0.55 -0.56,0.72 -0.64,-0.55l-0.04 -0.74c-0.78,-1.48 -1.62,-2.86 -2.49,-4.4l-2.43 -4.02c-0.02,-0.11 -0.12,-0.13 -0.18,-0.19 -4.57,2.61 -8.17,4.41 -14.23,1.68 -3.35,-1.51 -2.64,-2.39 -6.44,-0.83 -1.56,0.64 -4.83,2.1 -6.35,2.38z"/>
   <path class="fil3" d="M28.52 131.71c0.59,3.43 -1.45,12.56 -1.33,17.14 7.95,-2.33 6.95,-5.35 13.22,-8.03 0.14,-3.84 -4.2,-6.45 -6.99,-8.05l-3.34 -1.86 -1.13 -0.23c-0.02,1.91 0.09,0.43 -0.43,1.02z"/>
   <path class="fil3" d="M64.26 91.04l0.04 -1.07 -1.61 -0.56 -12.24 -1.42c-0.09,2.32 0.39,2.54 1.3,3.86l2.18 3.17c1,0.81 8.03,1.87 9.19,1.92l1.15 -5.89z"/>
   <path class="fil4" d="M28.52 131.71c0.52,-0.59 0.41,0.89 0.43,-1.02l1.13 0.23c-0.49,-0.5 0.19,-0.17 -0.66,-0.59 -0.5,-0.25 -0.33,-0.12 -0.73,-0.18l-0.17 1.56z"/>
   <path class="fil5" d="M64.26 91.04c0.39,-0.41 0.43,0.68 0.44,-1.12 -0.91,-0.64 -0.82,-0.49 -2.02,-0.51l1.61 0.56 -0.04 1.07z"/>
   <path class="fil4" d="M73.81 161.96c2.08,-0.49 0.02,0.16 0.74,-0.2 0.51,-0.26 0.56,-0.32 0.81,-0.52 -1.39,0.3 -0.55,-0.23 -1.54,0.72z"/>
   <path class="fil5" d="M108.15 167.9l-0.68 -1.29 0.04 0.74c0.08,1.27 -0.1,0 0.64,0.55z"/>
   <path class="fil4" d="M127.84 115.36c-0.06,-0.82 0.19,-0.68 -0.47,-0.68l-0.55 -0.31 1.02 0.99z"/>
   <path class="fil6" d="M115.22 155.85c-0.47,-1.57 -0.17,-0.73 -0.79,-1.14l0.79 1.14z"/>
   <path class="fil7" d="M71.1 96.37l-0.45 -0.98c-0.03,-0.17 -0.16,-0.15 -0.24,-0.22l0.69 1.2z"/>
   <path class="fil8" d="M33.7 103.15l27.68 -0.67c1.34,6.21 1.8,11.93 0.27,16.53l-28.42 2.22 0.47 -18.07z"/>
   <path class="fil8" d="M65.41 120.88l14.85 13.3 -33.05 7.12c1.62,-7.99 -2.92,-13.07 -11.15,-16.39l29.36 -4.03z"/>
   <polygon class="fil8" points="105.46,123.84 123.66,121.35 118.09,108.59 108.55,119.34 "/>
   <path class="fil8" d="M99.81 132.44c14.95,-8.58 31.7,-8.66 49.52,-3.63l4.5 19.75 -3.23 0c-5.52,-5.48 -10.08,-7.14 -14.7,-9.65 -4.52,-2.46 -18.32,1.12 -30.05,5.48l-6.05 -11.96z"/>
   <path class="fil8" d="M85.3 135.4l-59.66 23.58 -1.88 11.62 15.79 0c4.54,-8.9 27.88,-15.35 57.17,-21.03l-11.42 -14.18z"/>
  </g>
 </g>
</svg>
