<svg xmlns="http://www.w3.org/2000/svg" class="ui-icon ui-icon__hero" width="470" height="308" viewBox="0 0 470 308" data-reactid="9"><g fill="none" fill-rule="evenodd" data-reactid="10"><g transform="translate(260 82)" data-reactid="11"><path stroke="#CCC" stroke-linecap="round" stroke-linejoin="round" stroke-width="2" d="M129.871 77.278l26.961-9.813c5.742-2.09 8.704-8.433 6.616-14.17-2.087-5.735-8.434-8.69-14.176-6.6l-3.938 1.432M87.658 220.58l4.152-23.059a6.008 6.008 0 0 1 3.825-4.569c5.583-2.07 8.884-5.992 9.902-11.767" data-reactid="12"></path><g transform="rotate(10 24.92 287.419)" data-reactid="13"><rect width="8.988" height="30.043" x="92.609" y="24.034" stroke="#CCC" stroke-linecap="round" stroke-linejoin="round" stroke-width="2" rx="3.004" data-reactid="14"></rect><path fill="#F5F5F5" d="M12.185 131.958c9.061 8.545 12.71 21.89 10.948 40.036h64.955c5.392 0 9.764-4.372 9.764-9.764v-12.505c-.432.052-.871.078-1.316.078-6.105 0-11.053-4.967-11.053-11.095 0-6.128 4.948-11.095 11.053-11.095.445 0 .884.026 1.316.077v-7.256c-.432.051-.871.078-1.316.078-6.105 0-11.053-4.968-11.053-11.096 0-6.127 4.948-11.095 11.053-11.095.445 0 .884.026 1.316.078v-8.144c-.432.051-.871.077-1.316.077-6.105 0-11.053-4.967-11.053-11.095 0-6.128 4.948-11.095 11.053-11.095.445 0 .884.026 1.316.078V12.768c0-5.392-4.372-9.764-9.764-9.764h-73.35c-5.392 0-9.764 4.372-9.764 9.764v65.485a13.815 13.815 0 0 1 3.211 6.719c.759 4.3-.55 8.485-3.21 11.536v13.631a13.889 13.889 0 0 1 8.689 8.124c.43.987.751 2.04.946 3.147.68 3.852-.3 7.613-2.425 10.548z" data-reactid="15"></path><path fill="#FFF" d="M12.317 131.772c3.392 3.299 6.001 7.292 7.827 11.98H86.75a11.076 11.076 0 0 1-1.493-5.572c0-6.128 4.949-11.095 11.053-11.095.43 0 .853.024 1.27.072v-7.245c-.417.047-.84.072-1.27.072-6.104 0-11.053-4.968-11.053-11.095 0-6.128 4.949-11.096 11.053-11.096.43 0 .853.025 1.27.073v-8.134c-.417.048-.84.073-1.27.073-6.104 0-11.053-4.968-11.053-11.095 0-6.128 4.949-11.096 11.053-11.096.43 0 .853.025 1.27.073V19H4v58.246a13.817 13.817 0 0 1 4.185 7.726c.846 4.796-.88 9.45-4.185 12.545v12.35a13.89 13.89 0 0 1 9.664 8.396c.43.987.751 2.04.946 3.147a13.833 13.833 0 0 1-2.293 10.362z" data-reactid="16"></path><g stroke="#CCC" stroke-linecap="round" stroke-linejoin="round" stroke-width="1.5" data-reactid="17"><path d="M61.526 109.174v3.831c0 1.102.894 1.995 1.995 1.995h3.247a1.995 1.995 0 0 0 1.995-1.995v-12.57h4.538c1.458 0 2.54-1.246 2.65-3.277.11-2.03 0-45.882 0-45.882 0-1.802-1.192-3.276-2.65-3.276H23.65C22.193 48 21 49.474 21 51.276v45.882c0 1.802 1.193 3.277 2.65 3.277h4.587v12.57c0 1.102.893 1.995 1.995 1.995h3.247a1.995 1.995 0 0 0 1.995-1.995v-3.831h-5.242a1.995 1.995 0 0 1-1.995-1.995V70.426a3.491 3.491 0 0 1 3.491-3.491h33.544a3.491 3.491 0 0 1 3.491 3.491v36.753a1.995 1.995 0 0 1-1.995 1.995h-5.242z" data-reactid="18"></path><path d="M68.676 74h2.329c1.102 0 1.995.893 1.995 1.995v9.01A1.995 1.995 0 0 1 71.005 87h-2.329V74zM28.324 87h-2.329A1.995 1.995 0 0 1 24 85.005v-9.01c0-1.102.893-1.995 1.995-1.995h2.329v13zM40 95.5a3.5 3.5 0 1 1-7.001 0 3.5 3.5 0 0 1 7.001 0M64 95.5a3.5 3.5 0 1 1-7 0 3.5 3.5 0 0 1 7 0M44 92.75h9M44 95.75h9M28 101.75h40M36 108.75h26M28 85.75h40M28 70.75h41" data-reactid="19"></path></g><path stroke="#CCC" stroke-linecap="round" stroke-linejoin="round" stroke-width="2" d="M10.966 0h51.13m14.352 0h10.168c5.378 0 9.738 4.371 9.738 9.764v58.26m0 22.91v6.671m0 23.184v6.3m0 23.25v8.886c0 5.393-4.36 9.764-9.738 9.764h-6.855m-5.994 0H68.92m-13.157 0H23.413M1.23 68.627v-56.79" data-reactid="20"></path><rect width="26.447" height="9.732" x="37.374" y="150.409" stroke="#CCC" stroke-linecap="round" stroke-linejoin="round" stroke-width="2" rx="4.866" data-reactid="21"></rect><path stroke="#CCC" stroke-linecap="round" stroke-linejoin="round" stroke-width="2" d="M22.387 10H62.94M74.302 10h.417" data-reactid="22"></path></g><path stroke="#CCC" stroke-linecap="round" stroke-linejoin="round" stroke-width="2" d="M8.19 175.765a21.123 21.123 0 0 0 5.065 3.827l8.603 4.663a7.51 7.51 0 0 1 3.809 7.958l-5.194 28.367m21.279-43.636c6.023-18.869 5.36-33.628-1.99-44.277" data-reactid="23"></path><ellipse cx="131.707" cy="94.711" stroke="#CCC" stroke-linecap="round" stroke-linejoin="round" stroke-width="2" rx="11.053" ry="11.095" transform="rotate(10 131.707 94.71)" data-reactid="24"></ellipse><ellipse cx="126.428" cy="124.649" stroke="#CCC" stroke-linecap="round" stroke-linejoin="round" stroke-width="2" rx="11.053" ry="11.095" transform="rotate(10 126.428 124.65)" data-reactid="25"></ellipse><ellipse cx="121.288" cy="153.799" stroke="#CCC" stroke-linecap="round" stroke-linejoin="round" stroke-width="2" rx="11.053" ry="11.095" transform="rotate(10 121.288 153.8)" data-reactid="26"></ellipse></g><g transform="translate(38 127)" data-reactid="27"><path stroke="#CCC" stroke-linecap="round" stroke-linejoin="round" stroke-width="2" d="M30.854 63.276l-21.593-7.86c-4.599-1.674-6.97-6.757-5.298-11.353 1.673-4.597 6.757-6.966 11.356-5.292l3.154 1.148c2.274.827 6.564 2.579 12.87 5.255M64.286 175.58l-2.928-16.017a4.807 4.807 0 0 0-3.06-3.645c-4.48-1.656-7.129-4.799-7.945-9.427" data-reactid="28"></path><g transform="scale(-1 1) rotate(10 -53.723 -558.458)" data-reactid="29"><rect width="7.203" height="24.062" x=".412" y="19.249" stroke="#CCC" stroke-linecap="round" stroke-linejoin="round" stroke-width="2" rx="2.403" data-reactid="30"></rect><path fill="#F5F5F5" d="M81.614 119.919v10.024a7.811 7.811 0 0 1-7.811 7.811H21.737c1.741-17.917-3.11-29.991-14.552-36.221V10.217a7.811 7.811 0 0 1 7.81-7.81h58.808a7.811 7.811 0 0 1 7.811 7.81V54.64a8.92 8.92 0 0 0-1.055-.062c-4.892 0-8.857 3.978-8.857 8.886 0 4.908 3.965 8.887 8.857 8.887a8.92 8.92 0 0 0 1.055-.063v6.523a8.92 8.92 0 0 0-1.055-.062c-4.892 0-8.857 3.978-8.857 8.886 0 4.908 3.965 8.887 8.857 8.887a8.92 8.92 0 0 0 1.055-.062v5.812a8.92 8.92 0 0 0-1.055-.063c-4.892 0-8.857 3.979-8.857 8.887s3.965 8.886 8.857 8.886a8.92 8.92 0 0 0 1.055-.062z" data-reactid="31"></path><path fill="#FFF" d="M72.313 114.917H18.938c-2.544-6.526-6.983-11.371-13.318-14.536V67.508c0-3.25-1.037-5.72-2.62-7.415V15h75.992v38.991c-4.43.49-7.875 4.257-7.875 8.832 0 4.575 3.446 8.342 7.875 8.832v6.507c-4.43.49-7.875 4.257-7.875 8.832 0 4.575 3.446 8.342 7.875 8.833v5.795c-4.43.49-7.875 4.258-7.875 8.832 0 1.627.436 3.151 1.196 4.463z" data-reactid="32"></path><path stroke="#CCC" stroke-linecap="round" stroke-linejoin="round" stroke-width="1.5" d="M45.096 52H63.31A1.69 1.69 0 0 0 65 50.31v-5.62A1.69 1.69 0 0 0 63.31 43H17.69A1.69 1.69 0 0 0 16 44.69v5.62c0 .933.757 1.69 1.69 1.69h18.325M18 52v33.691c0 .723.591 1.309 1.32 1.309h42.36c.729 0 1.32-.586 1.32-1.309V52" data-reactid="33"></path><path stroke="#CCC" stroke-linecap="round" stroke-linejoin="round" stroke-width="1.5" d="M45 62l-1.5-1.484L42 62l-1.5-1.484L39 62l-1.5-1.484L36 62V43h9zM41.11 83.384h17.153c.234 0 .424-.204.424-.456v-9.454c0-.252-.19-.456-.424-.456H41.11c-.234 0-.424.204-.424.456v9.454c0 .252.19.456.424.456" data-reactid="34"></path><path fill="#CCC" d="M54.452 78.302a.824.824 0 0 0 .82-.825.822.822 0 0 0-.82-.824.822.822 0 0 0-.82.825c0 .455.367.824.82.824m0-2.983a2.153 2.153 0 0 1 1.79 3.338l-1.79 2.416-1.795-2.416a2.156 2.156 0 0 1-.351-1.18c0-1.191.96-2.158 2.146-2.158M50.11 76.47h-5.707a.575.575 0 0 1 0-1.15h5.707a.575.575 0 0 1 0 1.15zM50.11 78.771h-3.993a.575.575 0 0 1 0-1.15h3.993a.575.575 0 0 1 0 1.15zM50.11 81.073h-4.564a.575.575 0 1 1 0-1.15l4.564-.001a.575.575 0 0 1 0 1.15z" data-reactid="35"></path><path stroke="#CCC" stroke-linecap="round" stroke-linejoin="round" stroke-width="2" d="M11.987 0H52.96m11.502 0h8.148c4.31 0 7.804 3.501 7.804 7.82v46.662m0 18.349v5.344m0 18.568v5.046m0 18.622v7.117c0 4.319-3.494 7.82-7.804 7.82h-5.493m-4.804 0h-3.885m-10.543 0H21.96M4.184 54.965V7.82C4.184 3.501 7.677 0 11.987 0" data-reactid="36"></path><rect width="21.194" height="7.795" x="33.149" y="120.467" stroke="#CCC" stroke-linecap="round" stroke-linejoin="round" stroke-width="2" rx="3.897" data-reactid="37"></rect><path stroke="#CCC" stroke-linecap="round" stroke-linejoin="round" stroke-width="2" d="M64.861 8H32.363M23.258 8h-.334" data-reactid="38"></path></g><path stroke="#CCC" stroke-linecap="round" stroke-linejoin="round" stroke-width="2" d="M132.156 136.103a16.93 16.93 0 0 1-7.852 9.105l-6.908 3.743a6.009 6.009 0 0 0-3.05 6.355l3.677 20.274m-16.554-32.49c-5.507-17.246-4.036-30.205 4.413-38.88m-2.136-35.482l2.25 12.763m-.24-21.474c-1.741 2.008-2.673 4.953-2.01 8.71" data-reactid="39"></path><ellipse cx="29.389" cy="77.233" stroke="#CCC" stroke-linecap="round" stroke-linejoin="round" stroke-width="2" rx="8.858" ry="8.886" transform="scale(-1 1) rotate(10 0 -258.681)" data-reactid="40"></ellipse><ellipse cx="33.617" cy="101.211" stroke="#CCC" stroke-linecap="round" stroke-linejoin="round" stroke-width="2" rx="8.858" ry="8.886" transform="scale(-1 1) rotate(10 0 -283.03)" data-reactid="41"></ellipse><ellipse cx="37.733" cy="124.558" stroke="#CCC" stroke-linecap="round" stroke-linejoin="round" stroke-width="2" rx="8.858" ry="8.886" transform="scale(-1 1) rotate(10 0 -306.737)" data-reactid="42"></ellipse></g><g transform="translate(144 31)" data-reactid="43"><path stroke="#484848" stroke-linecap="round" stroke-linejoin="round" stroke-width="2" d="M139.853 77.84l31.059-17.931c6.614-3.82 8.875-12.286 5.05-18.912-3.826-6.626-12.289-8.901-18.903-5.082L126 53.846M119 269.981v-35.868a7.51 7.51 0 0 1 3.721-6.485c6.434-3.76 9.651-9.303 9.651-16.628" data-reactid="44"></path><g transform="translate(26)" data-reactid="45"><rect width="11.266" height="37.553" x="114.824" y="30.043" fill="#FFE600" rx="3.755" data-reactid="46"></rect><path fill="#FFE600" d="M121.396 187.157v15.63c0 6.74-5.464 12.205-12.205 12.205H27.742c2.724-27.964-4.863-46.807-22.76-56.53V15.96c0-6.74 5.464-12.205 12.204-12.205h92.005c6.74 0 12.205 5.465 12.205 12.205v69.315a13.983 13.983 0 0 0-1.65-.098c-7.65 0-13.854 6.21-13.854 13.87 0 7.66 6.203 13.869 13.855 13.869.558 0 1.108-.033 1.65-.098v10.18a13.983 13.983 0 0 0-1.65-.097c-7.652 0-13.855 6.21-13.855 13.87 0 7.66 6.203 13.868 13.855 13.868.558 0 1.108-.033 1.65-.097v9.07a13.983 13.983 0 0 0-1.65-.096c-7.652 0-13.855 6.209-13.855 13.869s6.203 13.869 13.855 13.869c.558 0 1.108-.033 1.65-.097z" data-reactid="47"></path><path fill="#FFF" d="M107.72 179.94H24.236C20.337 169.96 13.592 162.497 4 157.554V24h117.296v60.858c-.523-.06-1.054-.09-1.592-.09-7.651 0-13.854 6.21-13.854 13.869 0 7.66 6.203 13.869 13.854 13.869.538 0 1.07-.03 1.592-.09v10.166c-.523-.06-1.054-.09-1.592-.09-7.651 0-13.854 6.21-13.854 13.869 0 7.66 6.203 13.869 13.854 13.869.538 0 1.07-.03 1.592-.09v9.057c-.523-.06-1.054-.09-1.592-.09-7.651 0-13.854 6.208-13.854 13.868 0 2.538.681 4.917 1.87 6.964z" data-reactid="48"></path><path fill="#FFE600" d="M60 68h23.285c.559 0 1.012.45 1.012 1.007V74.04h12.149c.56 0 1.012.45 1.012 1.006v1.51c0 14.646-10.514 27.037-24.869 31.704-2.528 2.004-5.398 3.498-8.54 4.68v8.365c0 3.183 3.603 4.472 7.217 4.877h1.895c1.118 0 2.025.901 2.025 2.013v1.913h5.062c1.118 0 2.025.9 2.025 2.013v5.033H60V68zm32.275 11.073h-8.108c-.45 8.857-2.048 15.461-4.565 20.46 7.073-4.768 11.865-12.114 12.673-20.46z" data-reactid="49"></path><path stroke="#484848" stroke-linecap="round" stroke-linejoin="round" stroke-width="2" d="M56.753 113.436a31.092 31.092 0 0 1-5.155-2.806m-2.507-1.891C33.94 103.972 23 90.716 23 75.032v-1.656a1 1 0 0 1 1-1h11.658V67a1 1 0 0 1 1-1h8.797m5.366 0h34.467a1 1 0 0 1 1 1V72.376h8.557m4.155 0a1 1 0 0 1 1 1v1.656c0 15.755-11.038 29.06-26.296 33.77-2.54 1.965-5.398 3.45-8.512 4.637v8.831c0 3.36 3.754 4.72 7.518 5.148h1.975c1.165 0 2.11.951 2.11 2.125v2.019h5.273c1.166 0 2.11.951 2.11 2.125V139H72.603m-4.848 0H37.767v-5.313c0-1.174.945-2.125 2.11-2.125h5.274v-2.019c0-1.174.944-2.125 2.11-2.125h2.19c4.153-.43 7.302-2.24 7.302-5.2v-8.782M41.403 99.15c-3.04-5.664-4.98-12.786-5.561-21.46H28.4c.835 8.73 5.745 16.424 13.004 21.46zM94.6 77.689H86.15c-.468 9.349-2.133 16.32-4.755 21.598 7.369-5.033 12.361-12.788 13.204-21.598zM44 131.6h21" data-reactid="50"></path><g stroke-linecap="round" stroke-linejoin="round" stroke-width="2" data-reactid="51"><path d="M90.233 60.966l4.12-4.12M92.807 65.908l5.97.004M86.016 53.977v-.824M86.022 59.122l-.004-3.905" stroke="#FFE600" data-reactid="52"></path><path d="M89.233 59.966l4.12-4.12M91.807 64.908l5.97.004M85.016 52.977v-.824M85.022 58.122l-.004-3.905" stroke="#484848" data-reactid="53"></path></g><path stroke="#484848" stroke-linecap="round" stroke-linejoin="round" stroke-width="2" d="M12.492 0h64.087m17.99 0h12.745c6.74 0 12.205 5.464 12.205 12.205V85.03m0 28.637v8.34m0 28.98v7.874m0 29.063v11.108c0 6.74-5.465 12.205-12.205 12.205H98.72m-7.513 0h-6.076m-16.492 0H28.093M.287 85.784v-73.58C.287 5.465 5.751 0 12.492 0" data-reactid="54"></path><rect width="33.15" height="12.165" x="45.592" y="188.012" stroke="#484848" stroke-linecap="round" stroke-linejoin="round" stroke-width="2" rx="6.083" data-reactid="55"></rect><path stroke="#484848" stroke-linecap="round" stroke-linejoin="round" stroke-width="2" d="M26.807 13h50.83M91.879 13h.522" data-reactid="56"></path></g><path stroke="#484848" stroke-linecap="round" stroke-linejoin="round" stroke-width="2" d="M36.228 269.911V241.87a9.388 9.388 0 0 0-6.423-8.907l-11.691-3.892A26.476 26.476 0 0 1 0 203.95v-98.001c0-21.07 29.009-21.46 29.009 0v51.305c20.086 10.012 27.987 30.803 23.704 62.37" data-reactid="57"></path><ellipse cx="145.854" cy="98.869" stroke="#484848" stroke-linecap="round" stroke-linejoin="round" stroke-width="2" rx="13.854" ry="13.869" data-reactid="58"></ellipse><ellipse cx="145.854" cy="136.869" stroke="#484848" stroke-linecap="round" stroke-linejoin="round" stroke-width="2" rx="13.854" ry="13.869" data-reactid="59"></ellipse><ellipse cx="145.854" cy="173.869" stroke="#484848" stroke-linecap="round" stroke-linejoin="round" stroke-width="2" rx="13.854" ry="13.869" data-reactid="60"></ellipse></g><g stroke="#FFE600" stroke-linecap="round" stroke-linejoin="round" data-reactid="61"><path stroke-width="1.878" d="M299.75 10v18.777M290.362 19.388h18.776M313.832 38.165v9.388M309.138 42.859h9.388M123.25 66.33v28.165M109.168 80.412h28.164M44.388 261.606v9.389M39.694 266.3h9.388M65.043 271.933v18.777M55.654 281.322h18.777M395.043 271.933v18.777M385.654 281.322h18.777M409.939 238v24.777M398 249.939h24.777" data-reactid="62"></path><path stroke-width="2" d="M427 273v9.777M422 278h9.777" data-reactid="63"></path></g></g></svg>