<svg id="Camada_1" data-name="Camada 1" xmlns="http://www.w3.org/2000/svg" viewBox="0 0 157.33 100">
  <defs>
    <style>
      .cls-1 {
        fill: #fff;
      }

      .cls-2, .cls-4 {
        fill: none;
        stroke-linecap: round;
        stroke-linejoin: round;
      }

      .cls-2 {
        stroke: #ccc;
      }

      .cls-3 {
        fill: #ffe600;
      }

      .cls-4 {
        stroke: #484848;
      }
    </style>
  </defs>
  <title>Prancheta 1</title>
  <path class="cls-1" d="M51.64,2H20.58a1.37,1.37,0,0,0-1.35,1.4v7H3a1.37,1.37,0,0,0-1.35,1.39v2.1c0,20.31,14,37.5,33.17,44a41.28,41.28,0,0,0,11.39,6.49V76c0,4.41-4.8,6.2-9.62,6.76H34.09a2.75,2.75,0,0,0-2.7,2.79v2.66H24.64A2.75,2.75,0,0,0,21.93,91v7H51.64ZM8.59,17.4H19.41c.6,12.28,2.73,21.44,6.09,28.38A39.27,39.27,0,0,1,8.59,17.4Z"/>
  <g>
    <path class="cls-2" d="M146.34,77.35V91.21a2.07,2.07,0,0,1-1.88,2.2H123.91a2.06,2.06,0,0,1-1.88-2.2V77.35m6.37-.13h-8.25v-5.1m.81-.88h25.83a.69.69,0,0,1,.62.73v5.25H133.78"/>
    <path class="cls-2" d="M150.29,67.72l2.58-3m-1.52,6.47h3.74m-8-8.77v-.6m0,4.38V63.32"/>
  </g>
  <path class="cls-3" d="M51.12,1.76H83.18a1.4,1.4,0,0,1,1.4,1.4v7h16.73a1.39,1.39,0,0,1,1.39,1.39v2.1c0,20.31-14.48,37.5-34.25,44A43,43,0,0,1,56.69,64.1V75.7c0,4.42,5,6.2,9.94,6.77h2.61A2.78,2.78,0,0,1,72,85.26v2.65h7a2.79,2.79,0,0,1,2.79,2.79v7H51.12ZM95.56,17.12H84.4c-.62,12.29-2.82,21.45-6.29,28.38C87.85,38.89,94.45,28.7,95.56,17.12Z"/>
  <path class="cls-4" d="M46,64.11a40.73,40.73,0,0,1-6.77-3.69M36,57.94C16.05,51.68,1.68,34.27,1.68,13.67V11.49A1.31,1.31,0,0,1,3,10.18H18.31V3.12A1.31,1.31,0,0,1,19.62,1.8H31.17m7,0H83.49A1.31,1.31,0,0,1,84.8,3.12v7.06H96m5.46,0a1.31,1.31,0,0,1,1.31,1.31v2.18c0,20.69-14.49,38.17-34.53,44.35A43.3,43.3,0,0,1,57.1,64.11v11.6c0,4.41,4.93,6.2,9.87,6.76h2.59a2.79,2.79,0,0,1,2.78,2.79v2.65h6.92A2.78,2.78,0,0,1,82,90.71v7H66.83m-6.37,0H21.08v-7a2.78,2.78,0,0,1,2.77-2.8h6.92V85.26a2.78,2.78,0,0,1,2.77-2.79h2.88c5.46-.56,9.59-2.94,9.59-6.83V64.11M25.85,45.34c-4-7.44-6.54-16.79-7.3-28.18H8.77c1.1,11.46,7.55,21.57,17.08,28.18ZM95.72,17.16H84.62c-.61,12.28-2.8,21.43-6.24,28.36,9.68-6.61,16.23-16.79,17.34-28.36ZM29.26,88H56.84"/>
  <g>
    <path class="cls-2" d="M132.86,64.41v5.52M120.15,88.86H91.55a3.46,3.46,0,0,1-3.46-3.46V71.49m14-8.07H84.63V55.18A1.14,1.14,0,0,1,85.78,54H133.7a1.14,1.14,0,0,1,1.15,1.15v8.24H115.51"/>
    <path class="cls-2" d="M113.48,76l-1.54-2-1.54,2-1.54-2-1.54,2-1.54-2-1.54,2V54h9.24Z"/>
    <path class="cls-2" d="M109.87,43.62V36.9m5.21,9.17L120,41.21m-20.15.67-.67-.67M104,46.07l-3.19-3.18"/>
  </g>
</svg>
