<svg id="Camada_1" data-name="Camada 1" xmlns="http://www.w3.org/2000/svg" viewBox="0 0 425 244">
  <defs>
    <style>
      .cls-1 {
        fill: #91251a;
      }

      .cls-2 {
        fill: #bf0811;
      }

      .cls-3 {
        fill: #fff;
        opacity: 0.83;
      }
    </style>
  </defs>
  <title>fundo_masterhub</title>
  <g>
    <path class="cls-1" d="M24.39,45.25c-.74-.36-18.45-.38-19.39,0C7.92,45.57,22.06,45.46,24.39,45.25Z"/>
    <path class="cls-1" d="M6.7,37.85c2.33.09,21.07.34,21.78-.07-1.12-.28-14.23-.18-16.39-.16C11.06,37.62,7.33,37.52,6.7,37.85Z"/>
    <path class="cls-2" d="M71.38,34.27c-3,.12-6.16.39-9.18.62-7.44.57-3.72.31-6.22-.48a9.85,9.85,0,0,0-2.07-.47c-1.32,3-9.23,9.92-11.71,10.79a14.69,14.69,0,0,0,1.64,2.68,40.48,40.48,0,0,1-4.66,3.81,17.59,17.59,0,0,0-1.34-1.39,8.25,8.25,0,0,0-1.54-1.41c-1.14.72-3.45,2.93-3.64,4.31.79,1,5.38,6,6.51,6,1.58,0,10-5.82,12.15-6.56,1.59-.56,3.09-1.15,4.62-1.64,1.14-.37,1-.54,1.39-1.66.28-.82.55-1.63.77-2.45a18.72,18.72,0,0,0,.75-5.52l13.59-1.73c0-.52-.1-.42.08-.79,3.45,0,2.87.59,4.82-1.31.59-.57,2.86-2.94,2.45-3.84-2-2-3.39-.32-5.86.25v-3c-1.24.14-1.75,2-2.56,3.76Z"/>
    <path class="cls-1" d="M16.17,32.11c1,.24,6.93.21,8.33.21,1.77,0,6.92,0,8.37-.19-.69-.31-15.62-.34-16.66,0Z"/>
    <path class="cls-1" d="M12.73,19.64c1.58.2,8.78.21,10.73.19,2.25,0,9,.06,10.71-.19-.83-.33-20.63-.32-21.46,0Z"/>
    <path class="cls-1" d="M18,24.31h.43c.92.15,12.26,0,12.85-.2-2.13-.28-20.35-.26-22.64,0,.52.19,8.49.32,9.36.21Z"/>
    <path class="cls-2" d="M61.4,13.84l-2.24.89c-2.84,1-5.45,2.26-8.11,3.49a17.75,17.75,0,0,0-3.46,2.29,38.05,38.05,0,0,1-3.49,2.42A12.95,12.95,0,1,0,68.19,14.4c-.54-.93-1.15-1.59-1.54-2.34Z"/>
    <path class="cls-1" d="M26.49,54.76a1.64,1.64,0,0,0,2.62.09l2.11-2a39,39,0,0,0,3.86-4.06c-.52-1-1.68-2.38-2.89-2.51a30.09,30.09,0,0,0-3,4c-.58.93-2.45,3.44-2.65,4.46Z"/>
    <path class="cls-1" d="M43.19,20.07A37,37,0,0,1,40.07,23l-2.72,2.71c-.39.57.15.58.77.25a68.26,68.26,0,0,0,10.8-7c2.48-2,10-4.76,13.45-6a32.36,32.36,0,0,0,4.08-1.53c-1.19-2.29-2.71-3.38-4.09-4.9a10.16,10.16,0,0,0-1.71-1.35c-1.69-1.11-2-1.47-4.47-.94a43.62,43.62,0,0,0-4.76,1.33c-1.52.49-7.69,2.59-8.21,3.81-1.19,2.84-.44,7.66,0,10.71Z"/>
    <path class="cls-2" d="M57.29,50.6,50.21,53c1.33.88,7.66,1.13,9.57,1l-1.42,6c1.76-.06,4.36-.28,5.73-1.06.62-.35.68-1.13,1-2.38a23.48,23.48,0,0,0,1-5.78c-.06-1.33-.5-1.42-1.76-1.58a42.46,42.46,0,0,0-6.48-.22l-.54,1.72Z"/>
    <path class="cls-1" d="M69.6,61a2.17,2.17,0,0,0-.79-1.67,11.33,11.33,0,0,0-4.28.2l-5.37.79a7.28,7.28,0,0,0,.63,3.84l1.84-.4c1.06-.19,7.37-2.11,8-2.75Z"/>
    <path class="cls-1" d="M72.48,31.08c.46-.33.72-.84,1.19-.95.81-.19.29,0,.47.06A8.67,8.67,0,0,1,74.3,33c2.18-.27,3.29-2.22,5.42-.27.57.52.42,1.09.13,1.78H93V16.52l-20.52,0V31.09Z"/>
    <polygon class="cls-2" points="14.12 77.01 12.07 80.08 10.9 80.26 8.34 76.78 8.34 84.33 5.41 84.33 5.41 70.49 7.36 70.49 11.47 76.31 15.2 70.49 17.08 70.49 17.08 84.33 14.12 84.33 14.12 77.01 14.12 77.01"/>
    <path class="cls-2" d="M20.91,76.88a4.85,4.85,0,0,0-1.25.19,5.93,5.93,0,0,0-1.22.44l-.79-2.44a6.4,6.4,0,0,1,1.71-.64,8.66,8.66,0,0,1,2-.28,4.2,4.2,0,0,1,2,.49A3.29,3.29,0,0,1,24.7,76a4.07,4.07,0,0,1,.48,2v6.29H23.54l-.69-1a2.91,2.91,0,0,1-2.24,1.27,3.33,3.33,0,0,1-2.51-.89,3.34,3.34,0,0,1-.84-2.41A2.71,2.71,0,0,1,18.2,79a4,4,0,0,1,2.58-.75h1.43a1.49,1.49,0,0,0-.4-1,1.21,1.21,0,0,0-.93-.36Zm-.1,3.28a1,1,0,0,0-.76.3,1.07,1.07,0,0,0-.29.78.87.87,0,0,0,.24.63.82.82,0,0,0,.64.26,2.23,2.23,0,0,0,1.59-.79V80.15Z"/>
    <path class="cls-2" d="M29.34,84.56a8.09,8.09,0,0,1-1.82-.27,4,4,0,0,1-1.71-.81l.86-2.08a6.5,6.5,0,0,0,1.29.5,4.86,4.86,0,0,0,1.19.2,1.79,1.79,0,0,0,.79-.18.5.5,0,0,0,.35-.48.66.66,0,0,0-.33-.51,3.68,3.68,0,0,0-.91-.45,7.28,7.28,0,0,1-2.26-1.26,2.38,2.38,0,0,1-.88-1.91,2.81,2.81,0,0,1,1-2.31,4.29,4.29,0,0,1,2.78-.85,6.69,6.69,0,0,1,1.67.26A4.48,4.48,0,0,1,33,75.2l-.85,2.08a5.6,5.6,0,0,0-2.33-.64,1.39,1.39,0,0,0-.72.19.53.53,0,0,0-.28.47c0,.21.39.47,1.19.77q3.15,1.19,3.14,3.3a2.94,2.94,0,0,1-1,2.38,4.27,4.27,0,0,1-2.83.84Z"/>
    <path class="cls-2" d="M37.46,74.68h2L40,77.17H37.46v3.29a1.86,1.86,0,0,0,.33,1.12,1.07,1.07,0,0,0,.89.43,2.36,2.36,0,0,0,1.16-.33l.85,2.22a2.78,2.78,0,0,1-1,.51,3.61,3.61,0,0,1-1.22.22,4.12,4.12,0,0,1-2.85-1,3.53,3.53,0,0,1-1.11-2.78V77.16H33.22V74.67h1.31V72.18l2.94-.49v3Z"/>
    <path class="cls-2" d="M44.77,74.15a4,4,0,0,1,2.36.7,4.3,4.3,0,0,1,1.44,1.85,6.81,6.81,0,0,1,.48,2.6v1H43.19A2.18,2.18,0,0,0,45.6,82a4.9,4.9,0,0,0,2.58-.77L49,83.44a5,5,0,0,1-1.59.81,6.43,6.43,0,0,1-2,.31,5.47,5.47,0,0,1-3.94-1.37A5,5,0,0,1,40,79.41a5.94,5.94,0,0,1,.6-2.78,4.3,4.3,0,0,1,1.68-1.83,4.79,4.79,0,0,1,2.48-.65Zm-.07,2.63a1.37,1.37,0,0,0-1.05.46,2.08,2.08,0,0,0-.5,1.21h3.09a2.36,2.36,0,0,0-.5-1.21A1.26,1.26,0,0,0,44.7,76.78Z"/>
    <path class="cls-2" d="M55.51,77A3.64,3.64,0,0,0,54,77.4a5.88,5.88,0,0,0-1.53,1v5.9h-3V74.48H51l.83,1.4a8.39,8.39,0,0,1,1.52-1,3.46,3.46,0,0,1,1.57-.44L55.51,77Z"/>
    <polygon class="cls-2" points="69.81 70.49 69.81 84.33 66.87 84.33 66.87 78.7 62.11 78.7 62.11 84.33 59.17 84.33 59.17 70.49 62.11 70.37 62.11 76.17 66.87 76.17 66.87 70.49 69.81 70.49 69.81 70.49"/>
    <path class="cls-2" d="M74.69,82.07a4.08,4.08,0,0,0,2.12-.87V74.48h3v9.88H78.13l-.7-1a9.43,9.43,0,0,1-1.79,1,4.76,4.76,0,0,1-1.82.39,2.84,2.84,0,0,1-2.48-1.06,4.75,4.75,0,0,1-.76-2.86V74.48h3v6a2,2,0,0,0,.29,1.15,1,1,0,0,0,.87.42Z"/>
    <path class="cls-2" d="M89.53,79.3a5.56,5.56,0,0,1-1.27,3.86,4.51,4.51,0,0,1-3.48,1.4,3.84,3.84,0,0,1-2.33-.88l-.53.65H80.41V70.18L83.35,70V74.5a3.59,3.59,0,0,1,1.55-.35,4.4,4.4,0,0,1,3.38,1.35,5.37,5.37,0,0,1,1.25,3.8Zm-3,0a3.17,3.17,0,0,0-.5-1.92,1.69,1.69,0,0,0-1.42-.69,2.12,2.12,0,0,0-1.22.47v4.39a2.32,2.32,0,0,0,1.3.43A1.59,1.59,0,0,0,86,81.27a3.43,3.43,0,0,0,.5-2Z"/>
    <path class="cls-1" d="M90.6,70.44a1.88,1.88,0,0,1,1,.27,1.83,1.83,0,0,1,.69.77,2.38,2.38,0,0,1,.25,1.08,2.34,2.34,0,0,1-.25,1.07,1.81,1.81,0,0,1-.69.76,2.09,2.09,0,0,1-2.08,0,1.87,1.87,0,0,1-.69-.76,2.33,2.33,0,0,1-.24-1.07,2.37,2.37,0,0,1,.24-1.08,1.82,1.82,0,0,1,1.73-1Zm0,.55a1.54,1.54,0,0,0-.76.2,1.33,1.33,0,0,0-.49.56,2,2,0,0,0,0,1.61,1.33,1.33,0,0,0,.49.56,1.54,1.54,0,0,0,.76.2,1.45,1.45,0,0,0,.76-.21,1.42,1.42,0,0,0,.5-.56,1.68,1.68,0,0,0,.17-.79,1.66,1.66,0,0,0-.17-.79,1.35,1.35,0,0,0-.5-.56,1.44,1.44,0,0,0-.76-.2Zm.91,1.14a.61.61,0,0,1-.1.37.88.88,0,0,1-.25.26l.39.92h-.64l-.31-.79h-.25v.79h-.57V71.39h.86a1.06,1.06,0,0,1,.62.19.65.65,0,0,1,.25.55Zm-.61,0a.2.2,0,0,0-.09-.2.63.63,0,0,0-.27-.06h-.19v.52h.2c.24,0,.37-.08.37-.26Z"/>
  </g>
  <g>
    <path class="cls-1" d="M15.27,122.47a65.3,65.3,0,0,0-7.27,0C9.09,122.59,14.4,122.55,15.27,122.47Z"/>
    <path class="cls-1" d="M8.64,119.69c.87,0,7.9.13,8.16,0-.41-.11-5.33-.07-6.14-.06A10.78,10.78,0,0,0,8.64,119.69Z"/>
    <path class="cls-2" d="M32.89,118.35c-1.13.05-2.31.15-3.44.23-2.79.22-1.4.12-2.33-.18a4.36,4.36,0,0,0-.78-.17,13.87,13.87,0,0,1-4.39,4,6,6,0,0,0,.61,1,14.6,14.6,0,0,1-1.74,1.43c-.16-.18-.33-.36-.5-.52a3.23,3.23,0,0,0-.58-.53c-.43.27-1.3,1.1-1.37,1.61.3.36,2,2.25,2.44,2.26.6,0,3.77-2.18,4.56-2.46.6-.21,1.16-.43,1.73-.62s.39-.2.53-.62.2-.61.28-.92a6.9,6.9,0,0,0,.28-2.07l5.1-.65c0-.19,0-.16,0-.29,1.29,0,1.08.22,1.81-.5.22-.21,1.07-1.1.92-1.44-.75-.74-1.28-.12-2.2.1V117c-.46,0-.66.74-1,1.41Z"/>
    <path class="cls-1" d="M12.19,117.54c.36.09,2.6.08,3.12.08s2.6,0,3.14-.07a52.12,52.12,0,0,0-6.25,0Z"/>
    <path class="cls-1" d="M10.9,112.87c.59.07,3.29.07,4,.07s3.37,0,4-.08c-.31-.12-7.74-.12-8,0Z"/>
    <path class="cls-1" d="M12.89,114.62h.16c.35,0,4.6,0,4.82-.08-.8-.1-7.63-.09-8.49,0,.2.07,3.19.12,3.51.08Z"/>
    <path class="cls-2" d="M29.15,110.69l-.84.34c-1.07.39-2,.84-3,1.3a6.52,6.52,0,0,0-1.3.86,14.59,14.59,0,0,1-1.31.91,4.86,4.86,0,1,0,9-3.2c-.21-.35-.43-.59-.58-.88Z"/>
    <path class="cls-1" d="M16.06,126a.62.62,0,0,0,1,0l.79-.73a13.12,13.12,0,0,0,1.45-1.53c-.19-.36-.63-.89-1.08-.94a12.17,12.17,0,0,0-1.15,1.49,8.73,8.73,0,0,0-1,1.67Z"/>
    <path class="cls-1" d="M22.32,113a13.78,13.78,0,0,1-1.17,1.09l-1,1c-.15.21.06.22.29.1a25.77,25.77,0,0,0,4-2.63,25.6,25.6,0,0,1,5-2.25,11.87,11.87,0,0,0,1.54-.57A8,8,0,0,0,29.51,108a4,4,0,0,0-.64-.51,1.6,1.6,0,0,0-1.68-.35,15.67,15.67,0,0,0-1.78.5c-.57.18-2.89,1-3.08,1.43-.45,1.06-.17,2.87,0,4Z"/>
    <path class="cls-2" d="M27.61,124.47l-2.66.91a10.4,10.4,0,0,0,3.59.36L28,128a5.49,5.49,0,0,0,2.15-.39c.23-.13.25-.43.38-.89a9,9,0,0,0,.36-2.17c0-.5-.19-.54-.66-.6a16.41,16.41,0,0,0-2.43-.08l-.2.65Z"/>
    <path class="cls-1" d="M32.23,128.38a.86.86,0,0,0-.3-.63,4.21,4.21,0,0,0-1.61.08l-2,.29a2.7,2.7,0,0,0,.24,1.44l.69-.14a16.17,16.17,0,0,0,3-1Z"/>
    <path class="cls-1" d="M33.3,117.15c.18-.12.27-.31.45-.35s.11,0,.18,0a3.21,3.21,0,0,1,.06,1c.82-.1,1.23-.83,2-.1.21.2.16.41,0,.67H41V111.7l-7.7,0v5.48Z"/>
    <polygon class="cls-2" points="11.42 134.38 10.65 135.53 10.21 135.6 9.25 134.29 9.25 137.13 8.15 137.13 8.15 131.93 8.89 131.93 10.43 134.12 11.82 131.93 12.53 131.93 12.53 137.13 11.42 137.13 11.42 134.38 11.42 134.38"/>
    <path class="cls-2" d="M14,134.33a1.84,1.84,0,0,0-.47.07,2.54,2.54,0,0,0-.46.17l-.3-.92a2.48,2.48,0,0,1,.64-.24,3.07,3.07,0,0,1,.74-.1,1.52,1.52,0,0,1,.76.18,1.28,1.28,0,0,1,.51.52,1.64,1.64,0,0,1,.18.76v2.36H15l-.26-.39a1.08,1.08,0,0,1-.84.47,1.27,1.27,0,0,1-.94-.33,1.24,1.24,0,0,1-.31-.9,1,1,0,0,1,.35-.85,1.52,1.52,0,0,1,1-.28h.53a.54.54,0,0,0-.15-.38.5.5,0,0,0-.35-.14Zm0,1.23a.44.44,0,0,0-.29.11.46.46,0,0,0-.11.29.35.35,0,0,0,.1.24.3.3,0,0,0,.24.1.81.81,0,0,0,.59-.3v-.44Z"/>
    <path class="cls-2" d="M17.13,137.21a3.28,3.28,0,0,1-.69-.1,1.57,1.57,0,0,1-.64-.3l.33-.78a2.5,2.5,0,0,0,.48.18,1.78,1.78,0,0,0,.45.08.59.59,0,0,0,.29-.07.19.19,0,0,0,.13-.18.22.22,0,0,0-.12-.19,1.35,1.35,0,0,0-.34-.17,2.53,2.53,0,0,1-.85-.47.91.91,0,0,1-.33-.72,1.09,1.09,0,0,1,.38-.87,1.62,1.62,0,0,1,1-.31,2.28,2.28,0,0,1,.63.09,1.69,1.69,0,0,1,.6.3l-.32.78a2.22,2.22,0,0,0-.87-.24.5.5,0,0,0-.27.07.25.25,0,0,0-.11.18c0,.08.15.17.45.29.79.29,1.18.71,1.18,1.23a1.13,1.13,0,0,1-.36.9,1.66,1.66,0,0,1-1.07.31Z"/>
    <path class="cls-2" d="M20.17,133.51h.77l.19.93h-1v1.23a.7.7,0,0,0,.13.42.36.36,0,0,0,.33.16.88.88,0,0,0,.44-.12l.31.83a.84.84,0,0,1-.36.19,1.25,1.25,0,0,1-.46.09,1.6,1.6,0,0,1-1.07-.37,1.31,1.31,0,0,1-.42-1v-1.4h-.49v-.93h.49v-.93l1.11-.19v1.13Z"/>
    <path class="cls-2" d="M22.91,133.31a1.48,1.48,0,0,1,.89.26,1.59,1.59,0,0,1,.54.69,2.7,2.7,0,0,1,.18,1v.36h-2.2a.82.82,0,0,0,.91.65,1.93,1.93,0,0,0,1-.29l.31.83a2,2,0,0,1-.59.31,2.87,2.87,0,0,1-.77.11,2.08,2.08,0,0,1-1.48-.51,1.87,1.87,0,0,1-.54-1.42,2.2,2.2,0,0,1,.23-1,1.62,1.62,0,0,1,.63-.69,1.77,1.77,0,0,1,.93-.24Zm0,1a.52.52,0,0,0-.4.18.72.72,0,0,0-.18.45h1.16a.91.91,0,0,0-.19-.45A.5.5,0,0,0,22.89,134.29Z"/>
    <path class="cls-2" d="M26.94,134.38a1.42,1.42,0,0,0-.57.15,2,2,0,0,0-.57.38v2.22H24.69v-3.7h.56l.31.53a2.72,2.72,0,0,1,.58-.37,1.34,1.34,0,0,1,.58-.17l.22,1Z"/>
    <polygon class="cls-2" points="32.3 131.93 32.3 137.13 31.2 137.13 31.2 135.01 29.41 135.01 29.41 137.13 28.31 137.13 28.31 131.93 29.41 131.89 29.41 134.06 31.2 134.06 31.2 131.93 32.3 131.93 32.3 131.93"/>
    <path class="cls-2" d="M34.13,136.28a1.54,1.54,0,0,0,.8-.33v-2.52H36v3.7h-.62l-.26-.39a2.93,2.93,0,0,1-.67.37,1.64,1.64,0,0,1-.68.15,1.05,1.05,0,0,1-.93-.4,1.77,1.77,0,0,1-.29-1.07v-2.36H33.7v2.26a.73.73,0,0,0,.11.43.34.34,0,0,0,.32.16Z"/>
    <path class="cls-2" d="M39.7,135.24a2.08,2.08,0,0,1-.48,1.45,1.71,1.71,0,0,1-1.3.52,1.43,1.43,0,0,1-.88-.33l-.19.25h-.57v-5.31l1.1-.08v1.7a1.29,1.29,0,0,1,.58-.13,1.67,1.67,0,0,1,1.27.5,2,2,0,0,1,.47,1.43Zm-1.14,0a1.14,1.14,0,0,0-.19-.72.61.61,0,0,0-.53-.26.78.78,0,0,0-.46.18v1.64a.84.84,0,0,0,.49.16.6.6,0,0,0,.5-.27,1.27,1.27,0,0,0,.19-.73Z"/>
    <path class="cls-1" d="M40.1,131.91a.77.77,0,0,1,.39.11.77.77,0,0,1,.26.28,1,1,0,0,1,.09.41.9.9,0,0,1-.09.4.73.73,0,0,1-.26.29.78.78,0,0,1-.78,0,.73.73,0,0,1-.26-.29.9.9,0,0,1-.09-.4,1,1,0,0,1,.09-.41.77.77,0,0,1,.26-.28A.77.77,0,0,1,40.1,131.91Zm0,.21a.54.54,0,0,0-.28.08.48.48,0,0,0-.19.21.7.7,0,0,0,0,.6.43.43,0,0,0,.19.21.59.59,0,0,0,.56,0,.48.48,0,0,0,.19-.21.68.68,0,0,0,0-.6.52.52,0,0,0-.18-.21.59.59,0,0,0-.29-.07Zm.34.43a.23.23,0,0,1,0,.14.2.2,0,0,1-.09.09l.15.35h-.24l-.12-.3H40v.3h-.21v-.86h.32a.4.4,0,0,1,.24.07.24.24,0,0,1,.09.21Zm-.23,0a.08.08,0,0,0,0-.08l-.1,0H40v.2h.08c.09,0,.14,0,.14-.1Z"/>
  </g>
  <g>
    <path class="cls-1" d="M291.27,109.47a65.3,65.3,0,0,0-7.27,0C285.09,109.59,290.4,109.55,291.27,109.47Z"/>
    <path class="cls-1" d="M284.64,106.69c.87,0,7.9.13,8.16,0-.41-.11-5.33-.07-6.14-.06A10.78,10.78,0,0,0,284.64,106.69Z"/>
    <path class="cls-2" d="M308.89,105.35c-1.13.05-2.31.15-3.44.23-2.79.22-1.4.12-2.33-.18a4.36,4.36,0,0,0-.78-.17,13.87,13.87,0,0,1-4.39,4,6,6,0,0,0,.61,1,14.6,14.6,0,0,1-1.74,1.43c-.16-.18-.33-.36-.5-.52a3.23,3.23,0,0,0-.58-.53c-.43.27-1.3,1.1-1.37,1.61.3.36,2,2.25,2.44,2.26.6,0,3.77-2.18,4.56-2.46.6-.21,1.16-.43,1.73-.62s.39-.2.53-.62.2-.61.28-.92a6.9,6.9,0,0,0,.28-2.07l5.1-.65c0-.19,0-.16,0-.29,1.29,0,1.08.22,1.81-.5.22-.21,1.07-1.1.92-1.44-.75-.74-1.28-.12-2.2.1V104c-.46,0-.66.74-1,1.41Z"/>
    <path class="cls-1" d="M288.19,104.54c.36.09,2.6.08,3.12.08.67,0,2.6,0,3.14-.07a52.12,52.12,0,0,0-6.25,0Z"/>
    <path class="cls-1" d="M286.9,99.87c.59.07,3.29.07,4,.07s3.37,0,4-.08c-.31-.12-7.74-.12-8.05,0Z"/>
    <path class="cls-1" d="M288.89,101.62h.16c.35,0,4.6,0,4.82-.08-.8-.1-7.63-.09-8.49,0,.2.07,3.19.12,3.51.08Z"/>
    <path class="cls-2" d="M305.15,97.69l-.84.34c-1.07.39-2,.84-3,1.3a6.52,6.52,0,0,0-1.3.86,14.59,14.59,0,0,1-1.31.91,4.86,4.86,0,1,0,9-3.2c-.21-.35-.43-.59-.58-.88Z"/>
    <path class="cls-1" d="M292.06,113a.62.62,0,0,0,1,0l.79-.73a13.12,13.12,0,0,0,1.45-1.53c-.19-.36-.63-.89-1.08-.94a12.17,12.17,0,0,0-1.15,1.49,8.73,8.73,0,0,0-1,1.67Z"/>
    <path class="cls-1" d="M298.32,100a13.78,13.78,0,0,1-1.17,1.09l-1,1c-.15.21.06.22.29.1a25.77,25.77,0,0,0,4.05-2.63,25.6,25.6,0,0,1,5-2.25,11.87,11.87,0,0,0,1.54-.57A8,8,0,0,0,305.51,95a4,4,0,0,0-.64-.51,1.6,1.6,0,0,0-1.68-.35,15.67,15.67,0,0,0-1.78.5c-.57.18-2.89,1-3.08,1.43-.45,1.06-.17,2.87,0,4Z"/>
    <path class="cls-2" d="M303.61,111.47l-2.66.91a10.4,10.4,0,0,0,3.59.36L304,115a5.49,5.49,0,0,0,2.15-.39c.23-.13.25-.43.38-.89a9,9,0,0,0,.36-2.17c0-.5-.19-.54-.66-.6a16.41,16.41,0,0,0-2.43-.08l-.2.65Z"/>
    <path class="cls-1" d="M308.23,115.38a.86.86,0,0,0-.3-.63,4.21,4.21,0,0,0-1.61.08l-2,.29a2.7,2.7,0,0,0,.24,1.44l.69-.14a16.17,16.17,0,0,0,3-1Z"/>
    <path class="cls-1" d="M309.3,104.15c.18-.12.27-.31.45-.35s.11,0,.18,0a3.21,3.21,0,0,1,.06,1c.82-.1,1.23-.83,2-.1.21.2.16.41.05.67H317V98.7l-7.7,0v5.48Z"/>
    <polygon class="cls-2" points="287.42 121.38 286.65 122.53 286.21 122.6 285.25 121.29 285.25 124.13 284.15 124.13 284.15 118.93 284.89 118.93 286.43 121.12 287.82 118.93 288.53 118.93 288.53 124.13 287.42 124.13 287.42 121.38 287.42 121.38"/>
    <path class="cls-2" d="M290,121.33a1.84,1.84,0,0,0-.47.07,2.54,2.54,0,0,0-.46.17l-.3-.92a2.48,2.48,0,0,1,.64-.24,3.07,3.07,0,0,1,.74-.1,1.52,1.52,0,0,1,.76.18,1.28,1.28,0,0,1,.51.52,1.64,1.64,0,0,1,.18.76v2.36H291l-.26-.39a1.08,1.08,0,0,1-.84.47,1.27,1.27,0,0,1-.94-.33,1.24,1.24,0,0,1-.31-.9,1,1,0,0,1,.35-.85,1.52,1.52,0,0,1,1-.28h.53a.54.54,0,0,0-.15-.38.5.5,0,0,0-.35-.14Zm0,1.23a.44.44,0,0,0-.29.11.46.46,0,0,0-.11.29.35.35,0,0,0,.1.24.3.3,0,0,0,.24.1.81.81,0,0,0,.59-.3v-.44Z"/>
    <path class="cls-2" d="M293.13,124.21a3.28,3.28,0,0,1-.69-.1,1.57,1.57,0,0,1-.64-.3l.33-.78a2.5,2.5,0,0,0,.48.18,1.78,1.78,0,0,0,.45.08.59.59,0,0,0,.29-.07.19.19,0,0,0,.13-.18.22.22,0,0,0-.12-.19,1.35,1.35,0,0,0-.34-.17,2.53,2.53,0,0,1-.85-.47.91.91,0,0,1-.33-.72,1.09,1.09,0,0,1,.38-.87,1.62,1.62,0,0,1,1-.31,2.28,2.28,0,0,1,.63.09,1.69,1.69,0,0,1,.6.3l-.32.78a2.22,2.22,0,0,0-.87-.24.5.5,0,0,0-.27.07.25.25,0,0,0-.11.18c0,.08.15.17.45.29.79.29,1.18.71,1.18,1.23a1.13,1.13,0,0,1-.36.9,1.66,1.66,0,0,1-1.07.31Z"/>
    <path class="cls-2" d="M296.17,120.51h.77l.19.93h-1v1.23a.7.7,0,0,0,.13.42.36.36,0,0,0,.33.16.88.88,0,0,0,.44-.12l.31.83a.84.84,0,0,1-.36.19,1.25,1.25,0,0,1-.46.09,1.6,1.6,0,0,1-1.07-.37,1.31,1.31,0,0,1-.42-1v-1.4h-.49v-.93h.49v-.93l1.11-.19v1.13Z"/>
    <path class="cls-2" d="M298.91,120.31a1.48,1.48,0,0,1,.89.26,1.59,1.59,0,0,1,.54.69,2.7,2.7,0,0,1,.18,1v.36h-2.2a.82.82,0,0,0,.91.65,1.93,1.93,0,0,0,1-.29l.31.83a2,2,0,0,1-.59.31,2.87,2.87,0,0,1-.77.11,2.08,2.08,0,0,1-1.48-.51,1.87,1.87,0,0,1-.54-1.42,2.2,2.2,0,0,1,.23-1,1.62,1.62,0,0,1,.63-.69,1.77,1.77,0,0,1,.93-.24Zm0,1a.52.52,0,0,0-.4.18.72.72,0,0,0-.18.45h1.16a.91.91,0,0,0-.19-.45A.5.5,0,0,0,298.89,121.29Z"/>
    <path class="cls-2" d="M302.94,121.38a1.42,1.42,0,0,0-.57.15,2,2,0,0,0-.57.38v2.22h-1.11v-3.7h.56l.31.53a2.72,2.72,0,0,1,.58-.37,1.34,1.34,0,0,1,.58-.17l.22,1Z"/>
    <polygon class="cls-2" points="308.3 118.93 308.3 124.13 307.2 124.13 307.2 122.01 305.42 122.01 305.42 124.13 304.31 124.13 304.31 118.93 305.42 118.89 305.42 121.06 307.2 121.06 307.2 118.93 308.3 118.93 308.3 118.93"/>
    <path class="cls-2" d="M310.13,123.28a1.54,1.54,0,0,0,.8-.33v-2.52H312v3.7h-.62l-.26-.39a2.93,2.93,0,0,1-.67.37,1.64,1.64,0,0,1-.68.15,1.05,1.05,0,0,1-.93-.4,1.77,1.77,0,0,1-.29-1.07v-2.36h1.11v2.26a.73.73,0,0,0,.11.43.34.34,0,0,0,.32.16Z"/>
    <path class="cls-2" d="M315.7,122.24a2.08,2.08,0,0,1-.48,1.45,1.71,1.71,0,0,1-1.3.52,1.43,1.43,0,0,1-.88-.33l-.19.25h-.57v-5.31l1.1-.08v1.7a1.29,1.29,0,0,1,.58-.13,1.67,1.67,0,0,1,1.27.5,2,2,0,0,1,.47,1.43Zm-1.14,0a1.14,1.14,0,0,0-.19-.72.61.61,0,0,0-.53-.26.78.78,0,0,0-.46.18v1.64a.84.84,0,0,0,.49.16.6.6,0,0,0,.5-.27,1.27,1.27,0,0,0,.19-.73Z"/>
    <path class="cls-1" d="M316.1,118.91a.77.77,0,0,1,.39.11.77.77,0,0,1,.26.28,1,1,0,0,1,.09.41.9.9,0,0,1-.09.4.73.73,0,0,1-.26.29.78.78,0,0,1-.78,0,.73.73,0,0,1-.26-.29.9.9,0,0,1-.09-.4,1,1,0,0,1,.09-.41.77.77,0,0,1,.26-.28A.77.77,0,0,1,316.1,118.91Zm0,.21a.54.54,0,0,0-.28.08.48.48,0,0,0-.19.21.7.7,0,0,0,0,.6.43.43,0,0,0,.19.21.6.6,0,0,0,.56,0,.48.48,0,0,0,.19-.21.68.68,0,0,0,0-.6.52.52,0,0,0-.18-.21.59.59,0,0,0-.29-.07Zm.34.43a.23.23,0,0,1,0,.14.2.2,0,0,1-.09.09l.15.35h-.24l-.12-.3H316v.3h-.21v-.86h.32a.4.4,0,0,1,.24.07.24.24,0,0,1,.09.21Zm-.23,0a.08.08,0,0,0,0-.08l-.1,0H316v.2h.08c.09,0,.14,0,.14-.1Z"/>
  </g>
  <g>
    <path class="cls-1" d="M129.88,191.53a123.59,123.59,0,0,0-13.88,0C118.09,191.76,128.21,191.68,129.88,191.53Z"/>
    <path class="cls-1" d="M117.22,186.23c1.67.07,15.08.25,15.59,0-.8-.2-10.19-.13-11.73-.11A19.75,19.75,0,0,0,117.22,186.23Z"/>
    <path class="cls-2" d="M163.53,183.67c-2.16.09-4.42.28-6.58.44-5.33.41-2.67.23-4.45-.34a6.41,6.41,0,0,0-1.49-.33c-.94,2.1-6.6,7.1-8.38,7.72a11.12,11.12,0,0,0,1.18,1.92,28.25,28.25,0,0,1-3.34,2.73,12.91,12.91,0,0,0-1-1,5.87,5.87,0,0,0-1.1-1c-.82.52-2.47,2.1-2.61,3.09.57.68,3.86,4.29,4.66,4.3,1.14,0,7.19-4.17,8.7-4.7,1.14-.4,2.21-.82,3.31-1.17.82-.27.73-.39,1-1.19.19-.59.39-1.16.54-1.75a13.26,13.26,0,0,0,.54-3.95l9.73-1.24c0-.38-.07-.31.06-.57,2.47,0,2,.42,3.45-.94.42-.4,2.05-2.1,1.75-2.75-1.42-1.42-2.42-.23-4.19.19V181c-.89.1-1.25,1.42-1.83,2.69Z"/>
    <path class="cls-1" d="M124,182.13c.7.16,5,.14,6,.14,1.27,0,4.95,0,6-.13a101,101,0,0,0-11.93,0Z"/>
    <path class="cls-1" d="M121.53,173.2c1.14.14,6.29.15,7.68.13,1.62,0,6.44,0,7.67-.13-.59-.24-14.77-.23-15.36,0Z"/>
    <path class="cls-1" d="M125.33,176.54h.31c.66.11,8.78,0,9.21-.14-1.53-.2-14.58-.19-16.22,0,.38.14,6.09.22,6.7.15Z"/>
    <path class="cls-2" d="M156.37,169.05l-1.6.64c-2,.74-3.9,1.61-5.8,2.49a12.7,12.7,0,0,0-2.48,1.64,29.29,29.29,0,0,1-2.5,1.74,9.27,9.27,0,1,0,17.25-6.11c-.39-.67-.82-1.14-1.1-1.68Z"/>
    <path class="cls-1" d="M131.39,198.34a1.18,1.18,0,0,0,1.87.07l1.51-1.4a27.22,27.22,0,0,0,2.77-2.91,3.42,3.42,0,0,0-2.07-1.8,22.31,22.31,0,0,0-2.19,2.84,17.48,17.48,0,0,0-1.89,3.19Z"/>
    <path class="cls-1" d="M143.34,173.5a23.79,23.79,0,0,1-2.23,2.1l-2,1.94c-.28.41.11.41.55.18a49.64,49.64,0,0,0,7.74-5c1.77-1.42,7.14-3.41,9.62-4.31a22.51,22.51,0,0,0,2.93-1.09,15.47,15.47,0,0,0-2.94-3.51,7.07,7.07,0,0,0-1.22-1c-1.21-.8-1.42-1-3.2-.68a33.8,33.8,0,0,0-3.41,1c-1.09.35-5.5,1.86-5.87,2.73-.86,2-.32,5.48,0,7.67Z"/>
    <path class="cls-2" d="M153.43,195.36l-5.07,1.73c1,.63,5.49.81,6.86.69l-1,4.26a10.58,10.58,0,0,0,4.1-.76c.45-.25.49-.81.72-1.7a16.85,16.85,0,0,0,.7-4.14c0-.95-.36-1-1.26-1.13a31.25,31.25,0,0,0-4.64-.16l-.39,1.24Z"/>
    <path class="cls-1" d="M162.25,202.82a1.55,1.55,0,0,0-.57-1.2,8.16,8.16,0,0,0-3.06.14l-3.84.57a5.25,5.25,0,0,0,.44,2.75l1.33-.29c.75-.14,5.27-1.51,5.71-2Z"/>
    <path class="cls-1" d="M164.31,181.39c.33-.24.51-.61.85-.68.58-.14.21,0,.34,0a6.41,6.41,0,0,1,.12,2c1.55-.19,2.35-1.59,3.87-.19.41.37.31.78.09,1.28H179V171l-14.69,0v10.46Z"/>
    <polygon class="cls-2" points="122.53 214.27 121.06 216.47 120.23 216.6 118.39 214.1 118.39 219.51 116.29 219.51 116.29 209.6 117.69 209.6 120.63 213.77 123.3 209.6 124.65 209.6 124.65 219.51 122.53 219.51 122.53 214.27 122.53 214.27"/>
    <path class="cls-2" d="M127.39,214.18a3.36,3.36,0,0,0-.89.13,3.86,3.86,0,0,0-.88.32l-.57-1.75a4.93,4.93,0,0,1,1.23-.46,6.06,6.06,0,0,1,1.4-.2,3,3,0,0,1,1.46.35,2.5,2.5,0,0,1,1,1,3.06,3.06,0,0,1,.34,1.45v4.51h-1.17l-.5-.75a2.09,2.09,0,0,1-1.61.91,2.16,2.16,0,0,1-2.39-2.36,1.92,1.92,0,0,1,.67-1.62,2.83,2.83,0,0,1,1.84-.54h1a1.07,1.07,0,0,0-.28-.72.89.89,0,0,0-.67-.26Zm-.07,2.34a.74.74,0,0,0-.76.78.63.63,0,0,0,.64.64,1.63,1.63,0,0,0,1.13-.57v-.85Z"/>
    <path class="cls-2" d="M133.43,219.67a5.32,5.32,0,0,1-1.31-.19,2.76,2.76,0,0,1-1.22-.58l.61-1.49a5.26,5.26,0,0,0,.93.36,3.43,3.43,0,0,0,.85.14,1.25,1.25,0,0,0,.57-.13.38.38,0,0,0,.25-.34.48.48,0,0,0-.24-.36,2.31,2.31,0,0,0-.65-.32,5.28,5.28,0,0,1-1.62-.91,1.72,1.72,0,0,1-.63-1.37,2,2,0,0,1,.73-1.65,3,3,0,0,1,2-.61,4.42,4.42,0,0,1,1.2.19A3.08,3.08,0,0,1,136,213l-.61,1.49a3.85,3.85,0,0,0-1.67-.45.9.9,0,0,0-.51.13.38.38,0,0,0-.2.33c0,.16.28.34.85.56,1.5.56,2.25,1.35,2.25,2.36a2.08,2.08,0,0,1-.7,1.7,3,3,0,0,1-2,.6Z"/>
    <path class="cls-2" d="M139.24,212.6h1.46l.37,1.78h-1.83v2.36a1.26,1.26,0,0,0,.24.8.74.74,0,0,0,.63.31,1.81,1.81,0,0,0,.84-.24l.6,1.59a2,2,0,0,1-.7.37,2.91,2.91,0,0,1-.88.16,3,3,0,0,1-2-.7,2.53,2.53,0,0,1-.8-2v-2.67h-.94v-1.78h.94v-1.78l2.11-.35v2.14Z"/>
    <path class="cls-2" d="M144.47,212.22a2.82,2.82,0,0,1,1.69.5,3.06,3.06,0,0,1,1,1.33,4.72,4.72,0,0,1,.34,1.86v.69h-4.19a1.57,1.57,0,0,0,1.73,1.24,3.55,3.55,0,0,0,1.84-.56l.6,1.59a3.51,3.51,0,0,1-1.14.58,4.54,4.54,0,0,1-1.46.22,4,4,0,0,1-2.83-1,3.65,3.65,0,0,1-1-2.72,4.25,4.25,0,0,1,.44-2,3.06,3.06,0,0,1,1.2-1.32,3.44,3.44,0,0,1,1.77-.46Zm-.05,1.88a1,1,0,0,0-.75.33,1.47,1.47,0,0,0-.36.87h2.22a1.73,1.73,0,0,0-.36-.87A.94.94,0,0,0,144.42,214.1Z"/>
    <path class="cls-2" d="M152.16,214.27a2.51,2.51,0,0,0-1.08.28,3.74,3.74,0,0,0-1.1.74v4.22h-2.12v-7h1.08l.59,1a6.58,6.58,0,0,1,1.09-.71,2.76,2.76,0,0,1,1.12-.31l.42,1.83Z"/>
    <polygon class="cls-2" points="162.4 209.6 162.4 219.51 160.29 219.51 160.29 215.48 156.88 215.48 156.88 219.51 154.78 219.51 154.78 209.6 156.88 209.51 156.88 213.67 160.29 213.67 160.29 209.6 162.4 209.6 162.4 209.6"/>
    <path class="cls-2" d="M165.89,217.89a3,3,0,0,0,1.52-.62v-4.81h2.12v7.07h-1.17l-.5-.75a6.49,6.49,0,0,1-1.29.71,3.61,3.61,0,0,1-1.3.28,2,2,0,0,1-1.78-.76,3.46,3.46,0,0,1-.54-2v-4.5h2.11v4.31a1.46,1.46,0,0,0,.21.82.67.67,0,0,0,.62.3Z"/>
    <path class="cls-2" d="M176.51,215.91a3.91,3.91,0,0,1-.91,2.76,3.18,3.18,0,0,1-2.48,1,2.73,2.73,0,0,1-1.67-.62l-.38.46H170V209.38l2.1-.16v3.25a2.68,2.68,0,0,1,1.11-.25,3.15,3.15,0,0,1,2.42,1,3.87,3.87,0,0,1,.89,2.72Zm-2.17,0a2.26,2.26,0,0,0-.36-1.37,1.19,1.19,0,0,0-1-.5,1.5,1.5,0,0,0-.88.34v3.14a1.72,1.72,0,0,0,.93.31,1.12,1.12,0,0,0,1-.53,2.47,2.47,0,0,0,.36-1.4Z"/>
    <path class="cls-1" d="M177.28,209.56a1.53,1.53,0,0,1,.75.2,1.31,1.31,0,0,1,.49.55,1.75,1.75,0,0,1,.18.78,1.7,1.7,0,0,1-.18.76,1.34,1.34,0,0,1-.49.54,1.47,1.47,0,0,1-1.49,0,1.37,1.37,0,0,1-.5-.54,1.83,1.83,0,0,1-.17-.76,1.89,1.89,0,0,1,.17-.78,1.33,1.33,0,0,1,.5-.55A1.47,1.47,0,0,1,177.28,209.56Zm0,.4a1.11,1.11,0,0,0-.54.14,1.06,1.06,0,0,0-.36.4,1.44,1.44,0,0,0,0,1.15.88.88,0,0,0,.36.4,1,1,0,0,0,1.08,0,1,1,0,0,0,.36-.4,1.25,1.25,0,0,0,.13-.57,1.28,1.28,0,0,0-.13-.57.88.88,0,0,0-.35-.39,1.08,1.08,0,0,0-.55-.15Zm.66.82a.5.5,0,0,1-.08.26.52.52,0,0,1-.18.18l.28.67h-.46l-.22-.57h-.18v.57h-.41v-1.64h.62a.72.72,0,0,1,.45.13.49.49,0,0,1,.18.4Zm-.44,0a.17.17,0,0,0-.07-.15.43.43,0,0,0-.19,0h-.14V211h.15c.17,0,.26-.06.26-.18Z"/>
  </g>
  <g>
    <path class="cls-1" d="M360.88,214.53a123.59,123.59,0,0,0-13.88,0C349.09,214.76,359.21,214.68,360.88,214.53Z"/>
    <path class="cls-1" d="M348.22,209.23c1.67.07,15.08.25,15.59,0-.8-.2-10.19-.13-11.73-.11A19.75,19.75,0,0,0,348.22,209.23Z"/>
    <path class="cls-2" d="M394.53,206.67c-2.16.09-4.42.28-6.58.44-5.33.41-2.67.23-4.45-.34a6.41,6.41,0,0,0-1.49-.33c-.94,2.1-6.6,7.1-8.38,7.72a11.12,11.12,0,0,0,1.18,1.92,28.25,28.25,0,0,1-3.34,2.73,12.91,12.91,0,0,0-1-1,5.87,5.87,0,0,0-1.1-1c-.82.52-2.47,2.1-2.61,3.09.57.68,3.86,4.29,4.66,4.3,1.14,0,7.19-4.17,8.7-4.7,1.14-.4,2.21-.82,3.31-1.17.82-.27.73-.39,1-1.19.19-.59.39-1.16.54-1.75a13.26,13.26,0,0,0,.54-3.95l9.73-1.24c0-.38-.07-.31.06-.57,2.47,0,2.05.42,3.45-.94.42-.4,2-2.1,1.75-2.75-1.42-1.42-2.42-.23-4.19.19V204c-.89.1-1.25,1.42-1.83,2.69Z"/>
    <path class="cls-1" d="M355,205.13c.7.16,5,.14,6,.14,1.27,0,5,0,6-.13a101,101,0,0,0-11.93,0Z"/>
    <path class="cls-1" d="M352.53,196.2c1.14.14,6.29.15,7.68.13,1.62,0,6.44,0,7.67-.13-.59-.24-14.77-.23-15.36,0Z"/>
    <path class="cls-1" d="M356.33,199.54h.31c.66.11,8.78,0,9.21-.14-1.53-.2-14.58-.19-16.22,0,.38.14,6.09.22,6.7.15Z"/>
    <path class="cls-2" d="M387.37,192.05l-1.6.64c-2,.74-3.9,1.61-5.8,2.49a12.7,12.7,0,0,0-2.48,1.64,29.29,29.29,0,0,1-2.5,1.74,9.27,9.27,0,1,0,17.25-6.11c-.39-.67-.82-1.14-1.1-1.68Z"/>
    <path class="cls-1" d="M362.39,221.34a1.18,1.18,0,0,0,1.87.07l1.51-1.4a27.22,27.22,0,0,0,2.77-2.91,3.42,3.42,0,0,0-2.07-1.8,22.31,22.31,0,0,0-2.19,2.84,17.48,17.48,0,0,0-1.89,3.19Z"/>
    <path class="cls-1" d="M374.34,196.5a23.79,23.79,0,0,1-2.23,2.1l-1.95,1.94c-.28.41.11.41.55.18a49.64,49.64,0,0,0,7.74-5c1.77-1.42,7.14-3.41,9.62-4.31a22.51,22.51,0,0,0,2.93-1.09,15.47,15.47,0,0,0-2.94-3.51,7.07,7.07,0,0,0-1.22-1c-1.21-.8-1.42-1-3.2-.68a33.8,33.8,0,0,0-3.41,1c-1.09.35-5.5,1.86-5.87,2.73-.86,2-.32,5.48,0,7.67Z"/>
    <path class="cls-2" d="M384.43,218.36l-5.07,1.73c1,.63,5.49.81,6.86.69l-1,4.26a10.58,10.58,0,0,0,4.1-.76c.45-.25.49-.81.72-1.7a16.85,16.85,0,0,0,.7-4.14c0-.95-.36-1-1.26-1.13a31.25,31.25,0,0,0-4.64-.16l-.39,1.24Z"/>
    <path class="cls-1" d="M393.25,225.82a1.55,1.55,0,0,0-.57-1.2,8.16,8.16,0,0,0-3.06.14l-3.84.57a5.25,5.25,0,0,0,.44,2.75l1.33-.29c.75-.14,5.27-1.51,5.71-2Z"/>
    <path class="cls-1" d="M395.31,204.39c.33-.24.51-.61.85-.68.58-.14.21,0,.34,0a6.41,6.41,0,0,1,.12,2c1.55-.19,2.35-1.59,3.87-.19.41.37.31.78.09,1.28H410V194l-14.69,0v10.46Z"/>
    <polygon class="cls-2" points="353.53 237.27 352.06 239.47 351.23 239.6 349.39 237.1 349.39 242.51 347.29 242.51 347.29 232.6 348.69 232.6 351.63 236.77 354.3 232.6 355.65 232.6 355.65 242.51 353.53 242.51 353.53 237.27 353.53 237.27"/>
    <path class="cls-2" d="M358.39,237.18a3.36,3.36,0,0,0-.89.13,3.86,3.86,0,0,0-.88.32l-.57-1.75a4.93,4.93,0,0,1,1.23-.46,6.06,6.06,0,0,1,1.4-.2,3,3,0,0,1,1.46.35,2.5,2.5,0,0,1,1,1,3.06,3.06,0,0,1,.34,1.45v4.51h-1.17l-.5-.75a2.09,2.09,0,0,1-1.61.91,2.16,2.16,0,0,1-2.39-2.36,1.92,1.92,0,0,1,.67-1.62,2.83,2.83,0,0,1,1.84-.54h1a1.07,1.07,0,0,0-.28-.72.89.89,0,0,0-.67-.26Zm-.07,2.34a.74.74,0,0,0-.76.78.63.63,0,0,0,.64.64,1.63,1.63,0,0,0,1.13-.57v-.85Z"/>
    <path class="cls-2" d="M364.43,242.67a5.32,5.32,0,0,1-1.31-.19,2.76,2.76,0,0,1-1.22-.58l.61-1.49a5.26,5.26,0,0,0,.93.36,3.43,3.43,0,0,0,.85.14,1.25,1.25,0,0,0,.57-.13.38.38,0,0,0,.25-.34.48.48,0,0,0-.24-.36,2.31,2.31,0,0,0-.65-.32,5.28,5.28,0,0,1-1.62-.91,1.72,1.72,0,0,1-.63-1.37,2,2,0,0,1,.73-1.65,3,3,0,0,1,2-.61,4.42,4.42,0,0,1,1.2.19A3.08,3.08,0,0,1,367,236l-.61,1.49a3.85,3.85,0,0,0-1.67-.45.9.9,0,0,0-.51.13.38.38,0,0,0-.2.33c0,.16.28.34.85.56,1.5.56,2.25,1.35,2.25,2.36a2.08,2.08,0,0,1-.7,1.7,3,3,0,0,1-2,.6Z"/>
    <path class="cls-2" d="M370.24,235.6h1.46l.37,1.78h-1.83v2.36a1.26,1.26,0,0,0,.24.8.74.74,0,0,0,.63.31,1.81,1.81,0,0,0,.84-.24l.6,1.59a2,2,0,0,1-.7.37,2.91,2.91,0,0,1-.88.16,3,3,0,0,1-2-.7,2.53,2.53,0,0,1-.8-2v-2.67h-.94v-1.78h.94v-1.78l2.11-.35v2.14Z"/>
    <path class="cls-2" d="M375.47,235.22a2.82,2.82,0,0,1,1.69.5,3.06,3.06,0,0,1,1,1.33,4.72,4.72,0,0,1,.34,1.86v.69h-4.19a1.57,1.57,0,0,0,1.73,1.24,3.55,3.55,0,0,0,1.84-.56l.6,1.59a3.51,3.51,0,0,1-1.14.58,4.54,4.54,0,0,1-1.46.22,4,4,0,0,1-2.83-1,3.65,3.65,0,0,1-1-2.72,4.25,4.25,0,0,1,.44-2,3.06,3.06,0,0,1,1.2-1.32,3.44,3.44,0,0,1,1.77-.46Zm-.05,1.88a1,1,0,0,0-.75.33,1.47,1.47,0,0,0-.36.87h2.22a1.73,1.73,0,0,0-.36-.87A.94.94,0,0,0,375.42,237.1Z"/>
    <path class="cls-2" d="M383.16,237.27a2.51,2.51,0,0,0-1.08.28,3.74,3.74,0,0,0-1.1.74v4.22h-2.12v-7h1.08l.59,1a6.58,6.58,0,0,1,1.09-.71,2.76,2.76,0,0,1,1.12-.31l.42,1.83Z"/>
    <polygon class="cls-2" points="393.39 232.6 393.39 242.51 391.29 242.51 391.29 238.48 387.88 238.48 387.88 242.51 385.78 242.51 385.78 232.6 387.88 232.51 387.88 236.67 391.29 236.67 391.29 232.6 393.39 232.6 393.39 232.6"/>
    <path class="cls-2" d="M396.89,240.89a3,3,0,0,0,1.52-.62v-4.81h2.12v7.07h-1.17l-.5-.75a6.49,6.49,0,0,1-1.29.71,3.61,3.61,0,0,1-1.3.28,2,2,0,0,1-1.78-.76,3.46,3.46,0,0,1-.54-2v-4.5h2.11v4.31a1.46,1.46,0,0,0,.21.82.67.67,0,0,0,.62.3Z"/>
    <path class="cls-2" d="M407.51,238.91a3.91,3.91,0,0,1-.91,2.76,3.18,3.18,0,0,1-2.48,1,2.73,2.73,0,0,1-1.67-.62l-.38.46H401V232.38l2.1-.16v3.25a2.68,2.68,0,0,1,1.11-.25,3.15,3.15,0,0,1,2.42,1,3.87,3.87,0,0,1,.89,2.72Zm-2.17,0a2.26,2.26,0,0,0-.36-1.37,1.19,1.19,0,0,0-1-.5,1.5,1.5,0,0,0-.88.34v3.14a1.72,1.72,0,0,0,.93.31,1.12,1.12,0,0,0,1-.53,2.47,2.47,0,0,0,.36-1.4Z"/>
    <path class="cls-1" d="M408.28,232.56a1.53,1.53,0,0,1,.75.2,1.31,1.31,0,0,1,.49.55,1.75,1.75,0,0,1,.18.78,1.7,1.7,0,0,1-.18.76,1.34,1.34,0,0,1-.49.54,1.47,1.47,0,0,1-1.49,0,1.37,1.37,0,0,1-.5-.54,1.83,1.83,0,0,1-.17-.76,1.89,1.89,0,0,1,.17-.78,1.33,1.33,0,0,1,.5-.55A1.47,1.47,0,0,1,408.28,232.56Zm0,.4a1.11,1.11,0,0,0-.54.14,1.06,1.06,0,0,0-.36.4,1.44,1.44,0,0,0,0,1.15.88.88,0,0,0,.36.4,1,1,0,0,0,1.08,0,1,1,0,0,0,.36-.4,1.25,1.25,0,0,0,.13-.57,1.28,1.28,0,0,0-.13-.57.88.88,0,0,0-.35-.39,1.08,1.08,0,0,0-.55-.15Zm.66.82a.5.5,0,0,1-.08.26.52.52,0,0,1-.18.18l.28.67h-.46l-.22-.57h-.18v.57h-.41v-1.64h.62a.72.72,0,0,1,.45.13.49.49,0,0,1,.18.4Zm-.44,0a.17.17,0,0,0-.07-.15.43.43,0,0,0-.19,0h-.14V234h.15c.17,0,.26-.06.26-.18Z"/>
  </g>
  <g>
    <path class="cls-1" d="M21.65,207.28c-.6-.29-14.89-.3-15.65,0C8.36,207.54,19.76,207.45,21.65,207.28Z"/>
    <path class="cls-1" d="M7.37,201.31c1.88.07,17,.28,17.57-.05-.9-.23-11.48-.15-13.22-.14A22.27,22.27,0,0,0,7.37,201.31Z"/>
    <path class="cls-2" d="M59.56,198.42c-2.43.1-5,.32-7.41.5-6,.46-3,.26-5-.39a7.91,7.91,0,0,0-1.67-.37c-1.07,2.37-7.45,8-9.45,8.7A12.38,12.38,0,0,0,37.34,209a32.33,32.33,0,0,1-3.76,3.07A14.28,14.28,0,0,0,32.5,211a6.69,6.69,0,0,0-1.24-1.14c-.93.58-2.79,2.36-2.94,3.48.64.77,4.34,4.84,5.25,4.85,1.28,0,8.1-4.7,9.8-5.3,1.28-.45,2.49-.93,3.73-1.32.92-.3.82-.44,1.12-1.34.23-.66.44-1.31.62-2a14.85,14.85,0,0,0,.61-4.45l11-1.39c0-.43-.08-.35.07-.64,2.78,0,2.31.47,3.89-1.06.47-.46,2.31-2.38,2-3.1-1.6-1.6-2.73-.26-4.73.21v-2.4c-1,.11-1.41,1.6-2.06,3Z"/>
    <path class="cls-1" d="M15,196.68c.78.19,5.59.17,6.72.17,1.42,0,5.58,0,6.74-.15a111.57,111.57,0,0,0-13.44,0Z"/>
    <path class="cls-1" d="M12.23,186.62c1.28.16,7.09.17,8.66.15,1.82,0,7.25,0,8.64-.15-.67-.27-16.64-.26-17.31,0Z"/>
    <path class="cls-1" d="M16.52,190.39h.35c.74.12,9.89,0,10.37-.17-1.72-.22-16.42-.2-18.27,0a74.18,74.18,0,0,0,7.55.17Z"/>
    <path class="cls-2" d="M51.5,181.94l-1.81.72c-2.29.85-4.39,1.82-6.54,2.81a15,15,0,0,0-2.79,1.85,30.06,30.06,0,0,1-2.81,2A10.44,10.44,0,1,0,57,182.39c-.43-.75-.92-1.28-1.24-1.89Z"/>
    <path class="cls-1" d="M23.34,215a1.32,1.32,0,0,0,2.11.08l1.71-1.57a33.23,33.23,0,0,0,3.11-3.28,3.81,3.81,0,0,0-2.33-2,24,24,0,0,0-2.46,3.2,19.65,19.65,0,0,0-2.14,3.59Z"/>
    <path class="cls-1" d="M36.81,187a30.27,30.27,0,0,1-2.51,2.37l-2.2,2.18c-.32.46.12.47.62.21a54.81,54.81,0,0,0,8.72-5.64c2-1.6,8.05-3.84,10.85-4.85A26.44,26.44,0,0,0,55.58,180c-1-1.85-2.19-2.73-3.3-4A8.6,8.6,0,0,0,50.9,175c-1.36-.9-1.6-1.18-3.61-.76a39,39,0,0,0-3.84,1.07c-1.22.4-6.2,2.1-6.62,3.08-1,2.29-.35,6.18,0,8.64Z"/>
    <path class="cls-2" d="M48.19,211.6l-5.72,2c1.08.71,6.18.91,7.73.77l-1.15,4.8a11.81,11.81,0,0,0,4.62-.85c.5-.28.56-.92.81-1.92a18.64,18.64,0,0,0,.79-4.66c-.05-1.08-.4-1.15-1.42-1.28a33.7,33.7,0,0,0-5.22-.17l-.44,1.39Z"/>
    <path class="cls-1" d="M58.12,220a1.75,1.75,0,0,0-.64-1.35,9.2,9.2,0,0,0-3.45.16l-4.33.64a5.8,5.8,0,0,0,.51,3.1l1.48-.32c.86-.16,5.94-1.71,6.44-2.23Z"/>
    <path class="cls-1" d="M60.44,195.85c.38-.27.58-.68,1-.77.66-.15.24,0,.38,0a7.12,7.12,0,0,1,.14,2.24c1.75-.22,2.65-1.8,4.37-.22.45.42.34.88.1,1.44H77V184.1l-16.56,0v11.79Z"/>
    <polygon class="cls-2" points="13.36 232.9 11.71 235.38 10.76 235.53 8.7 232.72 8.7 238.81 6.33 238.81 6.33 227.64 7.91 227.64 11.22 232.34 14.23 227.64 15.75 227.64 15.75 238.81 13.36 238.81 13.36 232.9 13.36 232.9"/>
    <path class="cls-2" d="M18.83,232.8a4.24,4.24,0,0,0-1,.15,5.86,5.86,0,0,0-1,.36l-.64-2a5.3,5.3,0,0,1,1.39-.52,6.41,6.41,0,0,1,1.58-.22,3.37,3.37,0,0,1,1.64.4,2.71,2.71,0,0,1,1.09,1.11,3.46,3.46,0,0,1,.38,1.63v5.08H21L20.4,238a2.33,2.33,0,0,1-1.81,1,2.7,2.7,0,0,1-2-.71,2.75,2.75,0,0,1-.68-1.95,2.18,2.18,0,0,1,.76-1.82,3.23,3.23,0,0,1,2.08-.61h1.15a1.17,1.17,0,0,0-.32-.81,1,1,0,0,0-.75-.29Zm-.07,2.65a.84.84,0,0,0-.62.24.87.87,0,0,0-.23.63.69.69,0,0,0,.19.51.68.68,0,0,0,.52.21,1.81,1.81,0,0,0,1.28-.64v-1Z"/>
    <path class="cls-2" d="M25.64,239a6.61,6.61,0,0,1-1.47-.22,3.32,3.32,0,0,1-1.38-.65l.69-1.68a5.72,5.72,0,0,0,1,.4,4,4,0,0,0,1,.16,1.5,1.5,0,0,0,.64-.14.43.43,0,0,0,.29-.39.56.56,0,0,0-.27-.41,2.54,2.54,0,0,0-.74-.36,5.84,5.84,0,0,1-1.82-1,1.94,1.94,0,0,1-.71-1.54,2.28,2.28,0,0,1,.82-1.87,3.46,3.46,0,0,1,2.24-.68,5.06,5.06,0,0,1,1.34.21,3.3,3.3,0,0,1,1.3.64l-.68,1.67a4.44,4.44,0,0,0-1.88-.51,1,1,0,0,0-.58.15.43.43,0,0,0-.23.38c0,.17.32.38,1,.62,1.69.64,2.54,1.53,2.54,2.66a2.36,2.36,0,0,1-.79,1.92,3.39,3.39,0,0,1-2.28.68Z"/>
    <path class="cls-2" d="M32.19,231h1.64l.43,2H32.19v2.66a1.45,1.45,0,0,0,.27.9.83.83,0,0,0,.71.35,2,2,0,0,0,.94-.26l.68,1.79a2.53,2.53,0,0,1-.78.41,3.33,3.33,0,0,1-1,.18,3.38,3.38,0,0,1-2.3-.79,2.83,2.83,0,0,1-.89-2.24v-3H28.77v-2h1.06v-2l2.37-.4V231Z"/>
    <path class="cls-2" d="M38.09,230.6a3.21,3.21,0,0,1,1.9.56,3.43,3.43,0,0,1,1.16,1.5,5.37,5.37,0,0,1,.39,2.1v.77H36.81a1.77,1.77,0,0,0,1.95,1.4,4,4,0,0,0,2.08-.63l.67,1.79a4,4,0,0,1-1.28.66,5.46,5.46,0,0,1-1.65.25,4.44,4.44,0,0,1-3.18-1.1,4.05,4.05,0,0,1-1.17-3.06,5,5,0,0,1,.49-2.24,3.47,3.47,0,0,1,1.36-1.48,3.86,3.86,0,0,1,2-.52ZM38,232.72a1.08,1.08,0,0,0-.84.37,1.69,1.69,0,0,0-.41,1h2.5a1.86,1.86,0,0,0-.41-1A1,1,0,0,0,38,232.72Z"/>
    <path class="cls-2" d="M46.75,232.9a3.07,3.07,0,0,0-1.22.32,4.72,4.72,0,0,0-1.24.83v4.76H41.91v-7.95h1.21l.67,1.14a6.66,6.66,0,0,1,1.23-.8,2.94,2.94,0,0,1,1.26-.35l.47,2.05Z"/>
    <polygon class="cls-2" points="58.29 227.64 58.29 238.81 55.91 238.81 55.91 234.27 52.07 234.27 52.07 238.81 49.7 238.81 49.7 227.64 52.07 227.55 52.07 232.23 55.91 232.23 55.91 227.64 58.29 227.64 58.29 227.64"/>
    <path class="cls-2" d="M62.22,237a3.37,3.37,0,0,0,1.72-.7v-5.43h2.39v8H65l-.56-.84a7.32,7.32,0,0,1-1.45.8,4.07,4.07,0,0,1-1.46.32,2.29,2.29,0,0,1-2-.86,3.88,3.88,0,0,1-.62-2.31v-5.08H61.3v4.87a1.58,1.58,0,0,0,.23.92.76.76,0,0,0,.69.34Z"/>
    <path class="cls-2" d="M74.2,234.76a4.47,4.47,0,0,1-1,3.11,3.6,3.6,0,0,1-2.8,1.13,3.08,3.08,0,0,1-1.88-.71l-.43.52H66.84V227.4l2.37-.18v3.66a3,3,0,0,1,1.25-.28,3.55,3.55,0,0,1,2.73,1.09,4.34,4.34,0,0,1,1,3.07Zm-2.45,0a2.56,2.56,0,0,0-.41-1.54,1.32,1.32,0,0,0-1.14-.56,1.71,1.71,0,0,0-1,.38v3.54a1.91,1.91,0,0,0,1.05.35,1.28,1.28,0,0,0,1.08-.6,2.72,2.72,0,0,0,.41-1.57Z"/>
    <path class="cls-1" d="M75.06,227.6a1.6,1.6,0,0,1,.85.23,1.54,1.54,0,0,1,.55.61,1.89,1.89,0,0,1,.2.88,2,2,0,0,1-.2.86,1.54,1.54,0,0,1-.55.61,1.68,1.68,0,0,1-1.68,0,1.49,1.49,0,0,1-.56-.61,2,2,0,0,1-.2-.86,1.89,1.89,0,0,1,.2-.88,1.49,1.49,0,0,1,.56-.61A1.53,1.53,0,0,1,75.06,227.6Zm0,.45a1.21,1.21,0,0,0-.61.16,1.09,1.09,0,0,0-.4.45,1.63,1.63,0,0,0,0,1.3,1.16,1.16,0,0,0,.4.45,1.12,1.12,0,0,0,.61.16,1.08,1.08,0,0,0,1-.62,1.39,1.39,0,0,0,.14-.64,1.42,1.42,0,0,0-.14-.64,1.08,1.08,0,0,0-1-.6Zm.74.92a.57.57,0,0,1-.08.29.53.53,0,0,1-.21.21l.32.75h-.52l-.24-.64h-.21v.64H74.4v-1.85h.7a.89.89,0,0,1,.5.15.56.56,0,0,1,.2.45Zm-.49,0a.17.17,0,0,0-.08-.16.42.42,0,0,0-.22-.05h-.15v.42H75c.19,0,.29-.07.29-.21Z"/>
  </g>
  <g>
    <path class="cls-1" d="M215,106.65a117.44,117.44,0,0,0-13,0C204,106.87,213.44,106.8,215,106.65Z"/>
    <path class="cls-1" d="M203.14,101.69c1.56.07,14.13.23,14.6,0-.75-.19-9.54-.12-11-.11A18.89,18.89,0,0,0,203.14,101.69Z"/>
    <path class="cls-2" d="M246.51,99.29c-2,.09-4.14.27-6.16.42-5,.38-2.5.21-4.17-.32a6.07,6.07,0,0,0-1.39-.31c-.89,2-6.19,6.64-7.85,7.23a10.71,10.71,0,0,0,1.1,1.8,26.77,26.77,0,0,1-3.13,2.55,11.21,11.21,0,0,0-.89-.93,5.46,5.46,0,0,0-1-1c-.77.49-2.32,2-2.44,2.89.53.64,3.6,4,4.36,4,1.06,0,6.73-3.9,8.15-4.4,1.06-.37,2.06-.77,3.09-1.1.77-.24.69-.36.94-1.11.18-.55.36-1.09.51-1.64a12.52,12.52,0,0,0,.5-3.7l9.12-1.16c0-.35-.07-.29.05-.53,2.31,0,1.92.39,3.23-.88.39-.38,1.92-2,1.64-2.58-1.33-1.33-2.27-.21-3.93.17v-2c-.82.1-1.17,1.33-1.71,2.52Z"/>
    <path class="cls-1" d="M209.49,97.85c.65.16,4.65.13,5.59.13,1.18,0,4.63,0,5.6-.12a94.58,94.58,0,0,0-11.17,0Z"/>
    <path class="cls-1" d="M207.18,89.49c1.06.13,5.89.14,7.19.12,1.52,0,6,0,7.19-.13-.56-.21-13.83-.21-14.39,0Z"/>
    <path class="cls-1" d="M210.74,92.62H211c.62.1,8.22,0,8.62-.14-1.43-.18-13.65-.17-15.18,0,.35.13,5.69.21,6.27.14Z"/>
    <path class="cls-2" d="M239.81,85.6l-1.5.6c-1.9.7-3.65,1.51-5.43,2.33a12.39,12.39,0,0,0-2.33,1.54,26.22,26.22,0,0,1-2.33,1.62A8.68,8.68,0,1,0,244.37,86c-.37-.62-.77-1.06-1-1.57Z"/>
    <path class="cls-1" d="M216.41,113a1.1,1.1,0,0,0,1.75.06l1.42-1.3a26.72,26.72,0,0,0,2.59-2.73c-.35-.65-1.13-1.59-1.94-1.68a20.21,20.21,0,0,0-2,2.66,16.35,16.35,0,0,0-1.77,3Z"/>
    <path class="cls-1" d="M227.6,89.77a24.7,24.7,0,0,1-2.08,2l-1.83,1.81c-.26.39.1.39.52.18A47.17,47.17,0,0,0,231.45,89c1.66-1.33,6.69-3.19,9-4a21.57,21.57,0,0,0,2.74-1,14.63,14.63,0,0,0-2.74-3.29,6.72,6.72,0,0,0-1.15-.9,2.87,2.87,0,0,0-3-.63,32.09,32.09,0,0,0-3.19.89c-1,.33-5.15,1.74-5.5,2.55-.8,1.91-.3,5.14,0,7.19Z"/>
    <path class="cls-2" d="M237.06,110.24l-4.75,1.62c.89.6,5.13.76,6.42.65l-1,4a9.93,9.93,0,0,0,3.85-.71c.41-.23.45-.76.67-1.6a16.09,16.09,0,0,0,.66-3.87c0-.9-.34-1-1.18-1.06a28.76,28.76,0,0,0-4.35-.15l-.36,1.16Z"/>
    <path class="cls-1" d="M245.31,117.22a1.48,1.48,0,0,0-.53-1.12,7.78,7.78,0,0,0-2.87.13l-3.6.54a4.89,4.89,0,0,0,.42,2.57l1.24-.26c.71-.14,4.94-1.42,5.35-1.85Z"/>
    <path class="cls-1" d="M247.24,97.15c.31-.21.48-.56.8-.63.54-.13.19,0,.32,0a6.26,6.26,0,0,1,.11,1.86c1.46-.18,2.2-1.49,3.63-.18.38.35.28.73.08,1.19H261v-12l-13.76,0v9.8Z"/>
    <polygon class="cls-2" points="208.12 127.95 206.74 130.01 205.96 130.13 204.24 127.8 204.24 132.86 202.27 132.86 202.27 123.58 203.59 123.58 206.34 127.48 208.84 123.58 210.1 123.58 210.1 132.86 208.12 132.86 208.12 127.95 208.12 127.95"/>
    <path class="cls-2" d="M212.66,127.86a3.34,3.34,0,0,0-.83.13,4,4,0,0,0-.82.3l-.53-1.64a4.31,4.31,0,0,1,1.15-.43,4.87,4.87,0,0,1,1.31-.18,2.82,2.82,0,0,1,1.37.32,2.37,2.37,0,0,1,.9.93,2.78,2.78,0,0,1,.32,1.36v4.21h-1.1l-.46-.69a2,2,0,0,1-1.51.85,2.21,2.21,0,0,1-1.68-.6,2.26,2.26,0,0,1-.56-1.62,1.83,1.83,0,0,1,.63-1.51,2.67,2.67,0,0,1,1.73-.5h1a1,1,0,0,0-.27-.68.84.84,0,0,0-.62-.24Zm-.06,2.2a.66.66,0,0,0-.51.21.75.75,0,0,0-.2.52.63.63,0,0,0,.17.42.57.57,0,0,0,.43.18,1.53,1.53,0,0,0,1.06-.54v-.79Z"/>
    <path class="cls-2" d="M218.32,133a5.07,5.07,0,0,1-1.22-.18,2.71,2.71,0,0,1-1.15-.54l.58-1.4a4,4,0,0,0,.86.34,3.11,3.11,0,0,0,.8.13,1.18,1.18,0,0,0,.53-.12.36.36,0,0,0,.24-.32.47.47,0,0,0-.22-.34,2.37,2.37,0,0,0-.62-.3,4.9,4.9,0,0,1-1.51-.85,1.61,1.61,0,0,1-.59-1.28,1.89,1.89,0,0,1,.68-1.55,2.81,2.81,0,0,1,1.86-.56,3.9,3.9,0,0,1,1.12.17,3,3,0,0,1,1.08.53l-.57,1.39a3.57,3.57,0,0,0-1.57-.42.84.84,0,0,0-.48.12.38.38,0,0,0-.19.31c0,.15.27.32.8.52,1.41.53,2.11,1.27,2.11,2.21a2,2,0,0,1-.65,1.6,2.84,2.84,0,0,1-1.9.56Z"/>
    <path class="cls-2" d="M223.77,126.39h1.36l.35,1.67h-1.71v2.21a1.15,1.15,0,0,0,.22.74.69.69,0,0,0,.59.29,1.56,1.56,0,0,0,.78-.22l.57,1.49a1.89,1.89,0,0,1-.66.34,2.29,2.29,0,0,1-.82.15,2.75,2.75,0,0,1-1.9-.65,2.34,2.34,0,0,1-.75-1.86v-2.5h-.88v-1.67h.88v-1.67l2-.33v2Z"/>
    <path class="cls-2" d="M228.66,126a2.59,2.59,0,0,1,1.58.46,2.87,2.87,0,0,1,1,1.24,4.56,4.56,0,0,1,.32,1.75v.64h-3.92a1.46,1.46,0,0,0,1.61,1.16,3.34,3.34,0,0,0,1.73-.52l.56,1.49a3.5,3.5,0,0,1-1.07.55,4.21,4.21,0,0,1-1.37.2,3.67,3.67,0,0,1-2.64-.91,3.35,3.35,0,0,1-1-2.54,4.15,4.15,0,0,1,.41-1.87,2.87,2.87,0,0,1,1.12-1.22,3.06,3.06,0,0,1,1.66-.43Zm0,1.76a.91.91,0,0,0-.71.3,1.45,1.45,0,0,0-.33.82h2.07a1.64,1.64,0,0,0-.33-.82A.89.89,0,0,0,228.62,127.8Z"/>
    <path class="cls-2" d="M235.86,128a2.36,2.36,0,0,0-1,.26,4,4,0,0,0-1,.69v4h-2v-6.61h1l.55.94a5.82,5.82,0,0,1,1-.66,2.53,2.53,0,0,1,1-.29l.39,1.71Z"/>
    <polygon class="cls-2" points="245.45 123.58 245.45 132.86 243.48 132.86 243.48 129.08 240.29 129.08 240.29 132.86 238.32 132.86 238.32 123.58 240.29 123.5 240.29 127.39 243.48 127.39 243.48 123.58 245.45 123.58 245.45 123.58"/>
    <path class="cls-2" d="M248.72,131.34a2.76,2.76,0,0,0,1.43-.58v-4.51h2v6.63H251l-.47-.7a6.66,6.66,0,0,1-1.2.66,3.42,3.42,0,0,1-1.22.26,1.91,1.91,0,0,1-1.66-.71,3.18,3.18,0,0,1-.51-1.92v-4.22h2v4a1.3,1.3,0,0,0,.19.77.64.64,0,0,0,.58.28Z"/>
    <path class="cls-2" d="M258.67,129.49a3.71,3.71,0,0,1-.85,2.59,3,3,0,0,1-2.33.93,2.49,2.49,0,0,1-1.56-.59l-.36.44h-1v-9.49l2-.15v3a2.2,2.2,0,0,1,1-.23,2.91,2.91,0,0,1,2.26.9,3.6,3.6,0,0,1,.84,2.55Zm-2,0a2.15,2.15,0,0,0-.34-1.28,1.12,1.12,0,0,0-1-.46,1.36,1.36,0,0,0-.82.31V131a1.62,1.62,0,0,0,.87.29,1,1,0,0,0,.9-.5,2.29,2.29,0,0,0,.34-1.3Z"/>
    <path class="cls-1" d="M259.39,123.54a1.32,1.32,0,0,1,.7.19,1.19,1.19,0,0,1,.46.51,1.7,1.7,0,0,1,.17.73,1.58,1.58,0,0,1-.17.71,1.19,1.19,0,0,1-.46.51,1.4,1.4,0,0,1-1.4,0,1.34,1.34,0,0,1-.46-.51,1.57,1.57,0,0,1-.16-.71,1.55,1.55,0,0,1,.16-.73,1.25,1.25,0,0,1,1.16-.7Zm0,.38a.93.93,0,0,0-.51.13.91.91,0,0,0-.33.37,1.35,1.35,0,0,0,0,1.08.87.87,0,0,0,.33.38.93.93,0,0,0,.51.13.84.84,0,0,0,.51-.14,1,1,0,0,0,.34-.37,1.23,1.23,0,0,0,.11-.53,1.41,1.41,0,0,0-.11-.54.93.93,0,0,0-.34-.37.9.9,0,0,0-.51-.13Zm.61.76a.48.48,0,0,1-.06.24.77.77,0,0,1-.18.18l.27.62h-.43l-.21-.53h-.17v.53h-.38v-1.54h.58a.72.72,0,0,1,.42.13.44.44,0,0,1,.16.37Zm-.41,0a.13.13,0,0,0-.06-.14.28.28,0,0,0-.18,0h-.13v.34h.14c.16,0,.24,0,.24-.17Z"/>
  </g>
  <g>
    <path class="cls-1" d="M202.63,38.5c-.68-.32-16.78-.34-17.63,0C187.65,38.79,200.51,38.69,202.63,38.5Z"/>
    <path class="cls-1" d="M186.55,31.77c2.12.09,19.15.31,19.79-.06-1-.26-12.93-.16-14.89-.15C190.51,31.56,187.12,31.47,186.55,31.77Z"/>
    <path class="cls-2" d="M245.35,28.52c-2.74.11-5.61.36-8.35.56-6.77.52-3.38.29-5.66-.44a8.67,8.67,0,0,0-1.88-.42c-1.2,2.68-8.39,9-10.64,9.81a13.85,13.85,0,0,0,1.49,2.44,36.44,36.44,0,0,1-4.24,3.46,16,16,0,0,0-1.21-1.26,7.77,7.77,0,0,0-1.4-1.29c-1.05.66-3.14,2.66-3.31,3.92.72.87,4.89,5.46,5.91,5.47,1.44,0,9.13-5.29,11.05-6,1.44-.51,2.81-1,4.2-1.5,1-.33.93-.48,1.27-1.5.25-.75.49-1.48.69-2.23a16.69,16.69,0,0,0,.68-5L246.31,33c0-.47-.09-.38.07-.72,3.14,0,2.61.54,4.39-1.19.53-.51,2.6-2.67,2.22-3.49-1.8-1.8-3.08-.29-5.33.23v-2.7c-1.12.13-1.59,1.8-2.32,3.42Z"/>
    <path class="cls-1" d="M195.16,26.56c.88.21,6.3.18,7.57.18,1.61,0,6.29,0,7.6-.16-.62-.29-14.2-.31-15.14,0Z"/>
    <path class="cls-1" d="M192,15.22c1.45.18,8,.19,9.76.17,2.05,0,8.17.06,9.74-.17-.76-.3-18.76-.3-19.51,0Z"/>
    <path class="cls-1" d="M196.85,19.46h.4c.83.14,11.14,0,11.68-.18-1.94-.25-18.5-.23-20.59,0a84.26,84.26,0,0,0,8.51.19Z"/>
    <path class="cls-2" d="M236.27,10l-2,.81c-2.58,1-4.95,2.05-7.37,3.17A15.7,15.7,0,0,0,223.72,16a35.86,35.86,0,0,1-3.17,2.2,11.77,11.77,0,1,0,21.9-7.75c-.5-.86-1-1.45-1.4-2.13Z"/>
    <path class="cls-1" d="M204.54,47.15a1.5,1.5,0,0,0,2.38.08l1.92-1.77a36.12,36.12,0,0,0,3.51-3.7c-.47-.88-1.53-2.16-2.63-2.28a27.49,27.49,0,0,0-2.78,3.6c-.52.85-2.22,3.13-2.4,4.05Z"/>
    <path class="cls-1" d="M219.72,15.61a34.76,34.76,0,0,1-2.83,2.66l-2.48,2.46c-.36.52.14.53.7.24a62.69,62.69,0,0,0,9.82-6.36c2.26-1.8,9.07-4.33,12.22-5.47a28.46,28.46,0,0,0,3.72-1.39c-1.08-2.08-2.47-3.06-3.72-4.45a10,10,0,0,0-1.55-1.22c-1.54-1-1.81-1.34-4.07-.86a40.2,40.2,0,0,0-4.33,1.2c-1.38.45-7,2.36-7.46,3.47-1.08,2.58-.4,7,0,9.73Z"/>
    <path class="cls-2" d="M232.53,43.36l-6.43,2.2c1.21.8,7,1,8.7.88l-1.29,5.4a13.43,13.43,0,0,0,5.21-1c.56-.32.62-1,.91-2.17a21.15,21.15,0,0,0,.89-5.25c-.06-1.22-.46-1.3-1.6-1.45a38.62,38.62,0,0,0-5.89-.19l-.5,1.56Z"/>
    <path class="cls-1" d="M243.73,52.83a2,2,0,0,0-.72-1.52,10.28,10.28,0,0,0-3.89.18l-4.88.72a6.6,6.6,0,0,0,.57,3.49l1.68-.36c1-.18,6.69-1.92,7.25-2.5Z"/>
    <path class="cls-1" d="M246.34,25.62c.43-.3.66-.77,1.08-.87.74-.17.27,0,.44.06a8,8,0,0,1,.14,2.52c2-.25,3-2,4.93-.25.51.48.38,1,.11,1.62h12V12.39l-18.65-.05V25.63Z"/>
    <polygon class="cls-2" points="193.29 67.37 191.43 70.16 190.37 70.33 188.04 67.16 188.04 74.03 185.37 74.03 185.37 61.44 187.15 61.44 190.88 66.74 194.27 61.44 195.98 61.44 195.98 74.03 193.29 74.03 193.29 67.37 193.29 67.37"/>
    <path class="cls-2" d="M199.46,67.26a4.34,4.34,0,0,0-1.13.16,5.88,5.88,0,0,0-1.11.41l-.72-2.22a6.2,6.2,0,0,1,1.55-.59,7.71,7.71,0,0,1,1.79-.24,3.74,3.74,0,0,1,1.85.44,3.08,3.08,0,0,1,1.22,1.26,3.81,3.81,0,0,1,.44,1.84V74h-1.49l-.64-1a2.59,2.59,0,0,1-2,1.15,3,3,0,0,1-2.28-.81,3.07,3.07,0,0,1-.77-2.19,2.47,2.47,0,0,1,.86-2,3.71,3.71,0,0,1,2.34-.69h1.3a1.36,1.36,0,0,0-.36-.91,1.15,1.15,0,0,0-.84-.33Zm-.09,3a.93.93,0,0,0-.69.27,1,1,0,0,0-.26.71.76.76,0,0,0,.22.57.75.75,0,0,0,.58.24,2,2,0,0,0,1.44-.72V70.23Z"/>
    <path class="cls-2" d="M207.13,74.24a7.17,7.17,0,0,1-1.66-.25,3.69,3.69,0,0,1-1.56-.74l.79-1.89a5.58,5.58,0,0,0,1.17.46A5,5,0,0,0,207,72a1.69,1.69,0,0,0,.73-.16.48.48,0,0,0,.31-.44.61.61,0,0,0-.3-.46,3.06,3.06,0,0,0-.83-.41,6.59,6.59,0,0,1-2.05-1.15,2.19,2.19,0,0,1-.81-1.73,2.62,2.62,0,0,1,.93-2.11,3.89,3.89,0,0,1,2.53-.76A5.53,5.53,0,0,1,209,65a3.84,3.84,0,0,1,1.46.72l-.77,1.88a5,5,0,0,0-2.12-.57,1.15,1.15,0,0,0-.65.17.49.49,0,0,0-.26.42c0,.2.36.44,1.09.71,1.9.72,2.86,1.72,2.86,3a2.7,2.7,0,0,1-.89,2.16,3.86,3.86,0,0,1-2.57.76Z"/>
    <path class="cls-2" d="M214.51,65.26h1.85l.48,2.26h-2.33v3a1.68,1.68,0,0,0,.3,1,1,1,0,0,0,.81.39,2.23,2.23,0,0,0,1.06-.3l.77,2a2.61,2.61,0,0,1-.89.46,3.31,3.31,0,0,1-1.12.2,3.79,3.79,0,0,1-2.58-.88,3.18,3.18,0,0,1-1-2.53V67.51h-1.2V65.24h1.2V63l2.67-.44v2.72Z"/>
    <path class="cls-2" d="M221.16,64.78a3.49,3.49,0,0,1,2.14.63,3.87,3.87,0,0,1,1.31,1.68,6,6,0,0,1,.43,2.37v.87h-5.32a2,2,0,0,0,2.19,1.57,4.48,4.48,0,0,0,2.35-.7l.75,2a4.35,4.35,0,0,1-1.45.75,6.1,6.1,0,0,1-1.85.28A5,5,0,0,1,218.12,73a4.54,4.54,0,0,1-1.31-3.44,5.49,5.49,0,0,1,.55-2.52,3.92,3.92,0,0,1,1.53-1.67,4.23,4.23,0,0,1,2.25-.58Zm-.07,2.38a1.27,1.27,0,0,0-1,.42,1.87,1.87,0,0,0-.46,1.1h2.81a2.14,2.14,0,0,0-.45-1.1A1.21,1.21,0,0,0,221.09,67.16Z"/>
    <path class="cls-2" d="M230.92,67.37a3.33,3.33,0,0,0-1.38.36,5.42,5.42,0,0,0-1.4.93V74h-2.68v-9h1.37l.75,1.28a7.52,7.52,0,0,1,1.39-.9,3.19,3.19,0,0,1,1.42-.4l.53,2.32Z"/>
    <polygon class="cls-2" points="243.91 61.44 243.91 74.03 241.24 74.03 241.24 68.91 236.91 68.91 236.91 74.03 234.24 74.03 234.24 61.44 236.91 61.34 236.91 66.61 241.24 66.61 241.24 61.44 243.91 61.44 243.91 61.44"/>
    <path class="cls-2" d="M248.35,72a3.68,3.68,0,0,0,1.93-.79V65.07H253v9h-1.49l-.63-.94a9.2,9.2,0,0,1-1.63.89,4.54,4.54,0,0,1-1.66.36,2.57,2.57,0,0,1-2.25-1,4.34,4.34,0,0,1-.69-2.6V65.07h2.68v5.48a1.85,1.85,0,0,0,.26,1,.88.88,0,0,0,.79.37Z"/>
    <path class="cls-2" d="M261.84,69.46A5,5,0,0,1,260.69,73a4.12,4.12,0,0,1-3.16,1.27,3.56,3.56,0,0,1-2.12-.8l-.48.59h-1.37V61.17l2.67-.21v4.13a3.25,3.25,0,0,1,1.4-.31A4,4,0,0,1,260.71,66a4.92,4.92,0,0,1,1.13,3.46Zm-2.75,0a2.88,2.88,0,0,0-.47-1.74,1.5,1.5,0,0,0-1.28-.63,1.92,1.92,0,0,0-1.11.42v4a2.16,2.16,0,0,0,1.18.39,1.42,1.42,0,0,0,1.21-.68,3.13,3.13,0,0,0,.47-1.76Z"/>
    <path class="cls-1" d="M262.82,61.4a1.78,1.78,0,0,1,.95.25,1.72,1.72,0,0,1,.62.69,2.14,2.14,0,0,1,.22,1,2,2,0,0,1-.22,1,1.72,1.72,0,0,1-.62.69,1.9,1.9,0,0,1-1.9,0,1.72,1.72,0,0,1-.62-.69,2,2,0,0,1-.22-1,2.14,2.14,0,0,1,.22-1,1.72,1.72,0,0,1,.62-.69A1.78,1.78,0,0,1,262.82,61.4Zm0,.5a1.39,1.39,0,0,0-.69.18,1.17,1.17,0,0,0-.45.51,1.77,1.77,0,0,0,0,1.46,1.17,1.17,0,0,0,.45.51,1.21,1.21,0,0,0,.69.18,1.3,1.3,0,0,0,.69-.18,1.41,1.41,0,0,0,.46-.51,1.79,1.79,0,0,0,.15-.72,1.75,1.75,0,0,0-.15-.72,1.26,1.26,0,0,0-.46-.51,1.3,1.3,0,0,0-.69-.18Zm.83,1a.66.66,0,0,1-.09.33.69.69,0,0,1-.24.24l.36.84h-.58l-.28-.72h-.23v.72h-.52V62.27h.78a.89.89,0,0,1,.57.17.6.6,0,0,1,.23.5Zm-.56,0a.2.2,0,0,0-.08-.19.53.53,0,0,0-.25,0h-.17v.48h.18c.22,0,.34-.08.34-.24Z"/>
  </g>
  <g>
    <path class="cls-1" d="M293.47,52.16c-.67-.32-16.63-.34-17.47,0C278.63,52.45,291.37,52.35,293.47,52.16Z"/>
    <path class="cls-1" d="M277.53,45.49c2.1.09,19,.31,19.62-.06-1-.25-12.82-.16-14.76-.15C281.46,45.28,278.1,45.19,277.53,45.49Z"/>
    <path class="cls-2" d="M335.8,42.27c-2.71.11-5.55.35-8.27.56-6.71.51-3.35.28-5.61-.44a9.82,9.82,0,0,0-1.86-.42c-1.19,2.65-8.31,8.94-10.55,9.72A13.87,13.87,0,0,0,311,54.11a34.81,34.81,0,0,1-4.2,3.43,15.78,15.78,0,0,0-1.2-1.25A8,8,0,0,0,304.2,55c-1,.66-3.11,2.64-3.28,3.89.71.86,4.85,5.4,5.86,5.42,1.43,0,9.05-5.25,11-5.92,1.43-.5,2.78-1,4.16-1.48,1-.33.92-.48,1.26-1.49.24-.74.49-1.46.68-2.21a16.39,16.39,0,0,0,.68-5l12.24-1.56c0-.47-.08-.38.08-.71,3.1,0,2.58.53,4.34-1.18.53-.51,2.58-2.65,2.21-3.46-1.79-1.79-3.06-.29-5.29.23V38.89c-1.11.13-1.57,1.79-2.3,3.39Z"/>
    <path class="cls-1" d="M286.07,40.33c.87.21,6.24.18,7.5.18,1.59,0,6.23,0,7.53-.17a129.39,129.39,0,0,0-15,0Z"/>
    <path class="cls-1" d="M283,29.09c1.43.18,7.92.19,9.67.17,2,0,8.1.06,9.65-.17-.75-.3-18.59-.29-19.33,0Z"/>
    <path class="cls-1" d="M287.75,33.3h.39c.82.13,11,0,11.57-.19-1.92-.24-18.33-.22-20.4,0a82.8,82.8,0,0,0,8.44.19Z"/>
    <path class="cls-2" d="M326.81,23.87l-2,.8c-2.56.94-4.91,2-7.3,3.14a15.51,15.51,0,0,0-3.12,2.07,36,36,0,0,1-3.15,2.18,11.67,11.67,0,1,0,21.71-7.69c-.49-.84-1-1.43-1.39-2.11Z"/>
    <path class="cls-1" d="M295.36,60.73a1.48,1.48,0,0,0,2.36.08l1.9-1.76a34.44,34.44,0,0,0,3.48-3.66c-.47-.87-1.52-2.14-2.6-2.26a26.82,26.82,0,0,0-2.75,3.57c-.53.84-2.21,3.1-2.39,4Z"/>
    <path class="cls-1" d="M310.4,29.47a32.45,32.45,0,0,1-2.8,2.64l-2.45,2.44c-.36.52.13.53.69.24a62.72,62.72,0,0,0,9.73-6.3c2.23-1.79,9-4.29,12.11-5.42a27.83,27.83,0,0,0,3.68-1.38c-1.07-2.06-2.44-3-3.69-4.41a9,9,0,0,0-1.53-1.22c-1.52-1-1.79-1.32-4-.85a39.51,39.51,0,0,0-4.29,1.2c-1.37.44-6.93,2.34-7.4,3.43-1.07,2.56-.39,6.9,0,9.65Z"/>
    <path class="cls-2" d="M323.1,57l-6.38,2.18c1.21.79,6.91,1,8.63.86l-1.28,5.36a13.18,13.18,0,0,0,5.16-.95c.56-.31.62-1,.91-2.14a21.69,21.69,0,0,0,.88-5.21c-.06-1.2-.45-1.28-1.59-1.43a37.88,37.88,0,0,0-5.83-.19L323.1,57Z"/>
    <path class="cls-1" d="M334.2,66.36a2,2,0,0,0-.72-1.51,10.29,10.29,0,0,0-3.85.18l-4.84.71a6.57,6.57,0,0,0,.57,3.46l1.66-.35c1-.18,6.63-1.91,7.19-2.48Z"/>
    <path class="cls-1" d="M336.79,39.39c.42-.29.65-.75,1.07-.85.73-.18.26,0,.43.05a7.87,7.87,0,0,1,.14,2.5c2-.24,3-2,4.89-.24.5.47.37,1,.11,1.6h11.85V26.28l-18.49,0V39.4Z"/>
    <polygon class="cls-2" points="284.22 80.77 282.37 83.54 281.32 83.7 279.01 80.56 279.01 87.37 276.37 87.37 276.37 74.9 278.13 74.9 281.83 80.14 285.19 74.9 286.88 74.9 286.88 87.37 284.22 87.37 284.22 80.77 284.22 80.77"/>
    <path class="cls-2" d="M290.33,80.66a4.21,4.21,0,0,0-1.12.16,5.39,5.39,0,0,0-1.1.41L287.39,79a6.14,6.14,0,0,1,1.55-.57,7,7,0,0,1,1.76-.25,3.75,3.75,0,0,1,1.83.44,3.06,3.06,0,0,1,1.22,1.25,3.81,3.81,0,0,1,.43,1.82v5.67h-1.47l-.63-.94a2.61,2.61,0,0,1-2,1.14,3,3,0,0,1-2.26-.8,3,3,0,0,1-.76-2.17,2.47,2.47,0,0,1,.85-2,3.68,3.68,0,0,1,2.32-.68h1.29a1.31,1.31,0,0,0-.36-.9,1.12,1.12,0,0,0-.83-.33Zm-.09,3a.92.92,0,0,0-.68.27,1,1,0,0,0-.27.7.81.81,0,0,0,.23.57.71.71,0,0,0,.57.24,2.05,2.05,0,0,0,1.43-.72V83.6Z"/>
    <path class="cls-2" d="M297.93,87.57a6.5,6.5,0,0,1-1.64-.24,3.7,3.7,0,0,1-1.55-.73l.78-1.87a6.06,6.06,0,0,0,1.16.45,4.35,4.35,0,0,0,1.08.17,1.59,1.59,0,0,0,.71-.15.5.5,0,0,0,.32-.44.63.63,0,0,0-.3-.45,2.87,2.87,0,0,0-.82-.41,6.69,6.69,0,0,1-2-1.13,2.19,2.19,0,0,1-.8-1.73,2.59,2.59,0,0,1,.92-2.08,3.82,3.82,0,0,1,2.5-.76,5.79,5.79,0,0,1,1.5.23,3.85,3.85,0,0,1,1.45.71L300.44,81a5,5,0,0,0-2.1-.57,1.24,1.24,0,0,0-.65.17.48.48,0,0,0-.25.42c0,.2.36.43,1.07.7,1.89.71,2.84,1.7,2.83,3a2.63,2.63,0,0,1-.87,2.14,3.81,3.81,0,0,1-2.55.76Z"/>
    <path class="cls-2" d="M305.25,78.67h1.83l.47,2.24h-2.3v3a1.64,1.64,0,0,0,.29,1,.94.94,0,0,0,.8.38,2.05,2.05,0,0,0,1.05-.29l.76,2a2.65,2.65,0,0,1-.88.46,3.45,3.45,0,0,1-1.1.2,3.72,3.72,0,0,1-2.56-.88,3.11,3.11,0,0,1-1-2.5V80.9h-1.19V78.66h1.19V76.42l2.64-.44v2.69Z"/>
    <path class="cls-2" d="M311.83,78.2a3.47,3.47,0,0,1,2.12.62,3.94,3.94,0,0,1,1.3,1.67,6.08,6.08,0,0,1,.43,2.35v.86h-5.27a2,2,0,0,0,2.17,1.56,4.35,4.35,0,0,0,2.32-.7l.75,2a4.64,4.64,0,0,1-1.43.74,5.78,5.78,0,0,1-1.84.27,5,5,0,0,1-3.56-1.23,4.48,4.48,0,0,1-1.29-3.41,5.4,5.4,0,0,1,.54-2.5,3.88,3.88,0,0,1,1.51-1.65,4.18,4.18,0,0,1,2.23-.58Zm-.07,2.36a1.25,1.25,0,0,0-.94.42,1.83,1.83,0,0,0-.45,1.09h2.78A2.07,2.07,0,0,0,312.7,81,1.17,1.17,0,0,0,311.76,80.56Z"/>
    <path class="cls-2" d="M321.5,80.77a3.24,3.24,0,0,0-1.36.36,5.17,5.17,0,0,0-1.39.92v5.32h-2.66V78.49h1.36l.74,1.27a7.22,7.22,0,0,1,1.38-.89,3.15,3.15,0,0,1,1.41-.4l.52,2.3Z"/>
    <polygon class="cls-2" points="334.38 74.9 334.38 87.37 331.73 87.37 331.73 82.29 327.44 82.29 327.44 87.37 324.8 87.37 324.8 74.9 327.44 74.79 327.44 80.01 331.73 80.01 331.73 74.9 334.38 74.9 334.38 74.9"/>
    <path class="cls-2" d="M338.78,85.33a3.72,3.72,0,0,0,1.91-.78V78.49h2.67v8.9h-1.48l-.63-.94a8,8,0,0,1-1.62.89,4.33,4.33,0,0,1-1.63.35,2.57,2.57,0,0,1-2.24-1,4.36,4.36,0,0,1-.68-2.58V78.49h2.66v5.43a1.83,1.83,0,0,0,.26,1,.87.87,0,0,0,.78.37Z"/>
    <path class="cls-2" d="M352.15,82.84A5,5,0,0,1,351,86.31a4,4,0,0,1-3.13,1.26,3.43,3.43,0,0,1-2.1-.79l-.47.59h-1.36V74.62l2.64-.2v4.09a3.22,3.22,0,0,1,1.4-.31,4,4,0,0,1,3,1.21,4.86,4.86,0,0,1,1.13,3.43Zm-2.73,0a2.93,2.93,0,0,0-.46-1.73,1.48,1.48,0,0,0-1.27-.62,2,2,0,0,0-1.11.42v4a2.14,2.14,0,0,0,1.17.38,1.41,1.41,0,0,0,1.21-.66,3.2,3.2,0,0,0,.46-1.76Z"/>
    <path class="cls-1" d="M353.11,74.85a1.7,1.7,0,0,1,.94.25,1.68,1.68,0,0,1,.63.69,2.06,2.06,0,0,1,.21,1,2.13,2.13,0,0,1-.21,1,1.65,1.65,0,0,1-.63.68,1.84,1.84,0,0,1-1.87,0,1.63,1.63,0,0,1-.62-.68,2,2,0,0,1-.22-1,2.07,2.07,0,0,1,.22-1,1.65,1.65,0,0,1,.62-.69A1.69,1.69,0,0,1,353.11,74.85Zm0,.5a1.36,1.36,0,0,0-.68.18,1.12,1.12,0,0,0-.44.5,1.75,1.75,0,0,0,0,1.45,1.12,1.12,0,0,0,.44.5,1.27,1.27,0,0,0,1.82-.5,1.51,1.51,0,0,0,.15-.72,1.47,1.47,0,0,0-.15-.71,1.21,1.21,0,0,0-.45-.5,1.19,1.19,0,0,0-.69-.18Zm.83,1a.59.59,0,0,1-.09.32.69.69,0,0,1-.24.24l.36.83h-.58l-.27-.71h-.23v.71h-.52V75.71h.78a.93.93,0,0,1,.56.17.6.6,0,0,1,.23.5Zm-.55,0a.22.22,0,0,0-.09-.19.64.64,0,0,0-.24,0h-.17v.47h.18c.22,0,.33-.08.33-.23Z"/>
  </g>
  <g>
    <path class="cls-1" d="M62,129.09c-.65-.31-16.15-.32-17,0C47.55,129.38,59.93,129.28,62,129.09Z"/>
    <path class="cls-1" d="M46.49,122.61c2,.09,18.43.31,19.05,0-1-.25-12.45-.16-14.33-.15C50.3,122.41,47,122.33,46.49,122.61Z"/>
    <path class="cls-2" d="M103.09,119.48c-2.64.12-5.4.35-8,.55-6.51.5-3.26.27-5.44-.42a8.72,8.72,0,0,0-1.82-.41c-1.15,2.57-8.07,8.68-10.24,9.44A14,14,0,0,0,79,131a34.67,34.67,0,0,1-4.07,3.33,16.85,16.85,0,0,0-1.17-1.22,8,8,0,0,0-1.35-1.24c-1,.64-3,2.57-3.19,3.78.7.83,4.71,5.25,5.7,5.26,1.38,0,8.79-5.09,10.63-5.74,1.39-.49,2.7-1,4-1.44,1-.32.9-.47,1.22-1.45.24-.72.48-1.42.67-2.14a16.47,16.47,0,0,0,.66-4.83L104,123.78c0-.45-.09-.37.07-.69,3,0,2.51.51,4.22-1.15.51-.49,2.5-2.57,2.14-3.36-1.73-1.73-3-.28-5.13.23v-2.6c-1.08.12-1.53,1.73-2.23,3.28Z"/>
    <path class="cls-1" d="M54.78,117.6c.85.2,6.06.18,7.29.18,1.54,0,6.05,0,7.31-.16a122.08,122.08,0,0,0-14.57,0Z"/>
    <path class="cls-1" d="M51.76,106.69c1.39.17,7.69.18,9.39.16,2,0,7.87.06,9.37-.17-.73-.28-18-.28-18.77,0Z"/>
    <path class="cls-1" d="M56.41,110.77h.38c.8.13,10.72,0,11.24-.18-1.86-.23-17.81-.22-19.81,0,.46.17,7.43.28,8.19.19Z"/>
    <path class="cls-2" d="M94.35,101.61l-2,.78c-2.49.92-4.77,2-7.1,3a15.48,15.48,0,0,0-3,2,32.48,32.48,0,0,1-3.05,2.12,11.33,11.33,0,1,0,21.08-7.47c-.47-.82-1-1.39-1.34-2Z"/>
    <path class="cls-1" d="M63.81,137.42a1.44,1.44,0,0,0,2.29.07l1.85-1.7a34.41,34.41,0,0,0,3.37-3.56c-.45-.84-1.47-2.08-2.53-2.19a26.15,26.15,0,0,0-2.67,3.47c-.51.81-2.14,3-2.31,3.89Z"/>
    <path class="cls-1" d="M78.42,107.06a32.21,32.21,0,0,1-2.73,2.56L73.31,112c-.35.5.13.51.67.23a59.88,59.88,0,0,0,9.45-6.12c2.17-1.74,8.74-4.17,11.77-5.26a28.15,28.15,0,0,0,3.57-1.34c-1-2-2.37-3-3.58-4.29A9,9,0,0,0,93.7,94c-1.48-1-1.74-1.28-3.92-.82a39.4,39.4,0,0,0-4.16,1.16c-1.33.43-6.73,2.27-7.18,3.33-1,2.49-.39,6.71,0,9.38Z"/>
    <path class="cls-2" d="M90.75,133.77l-6.19,2.12c1.16.77,6.7,1,8.37.84l-1.24,5.21a13,13,0,0,0,5-.93c.55-.3.6-1,.88-2.08a20.39,20.39,0,0,0,.86-5.06c-.06-1.17-.44-1.24-1.54-1.38a35.8,35.8,0,0,0-5.67-.19l-.48,1.51Z"/>
    <path class="cls-1" d="M101.53,142.89a1.94,1.94,0,0,0-.7-1.47,10.12,10.12,0,0,0-3.74.17l-4.7.7a6.33,6.33,0,0,0,.55,3.36l1.62-.35c.92-.17,6.44-1.85,7-2.41Z"/>
    <path class="cls-1" d="M104,116.69c.41-.28.63-.73,1-.83.71-.17.26,0,.42,0a7.72,7.72,0,0,1,.14,2.43c1.91-.23,2.88-2,4.74-.23.5.45.37,1,.11,1.55H122V104l-18,0V116.7Z"/>
    <polygon class="cls-2" points="52.98 156.88 51.19 159.57 50.16 159.73 47.93 156.68 47.93 163.29 45.35 163.29 45.35 151.18 47.07 151.18 50.66 156.27 53.92 151.18 55.57 151.18 55.57 163.29 52.98 163.29 52.98 156.88 52.98 156.88"/>
    <path class="cls-2" d="M58.92,156.77a4.42,4.42,0,0,0-1.09.16,5.7,5.7,0,0,0-1.07.39l-.69-2.13a5.74,5.74,0,0,1,1.49-.57,7.14,7.14,0,0,1,1.72-.24,3.69,3.69,0,0,1,1.78.43A3,3,0,0,1,62.24,156a3.67,3.67,0,0,1,.42,1.77v5.51H61.23l-.61-.91a2.57,2.57,0,0,1-2,1.11,2.63,2.63,0,0,1-2.92-2.89,2.37,2.37,0,0,1,.82-2A3.55,3.55,0,0,1,58.8,158h1.26a1.37,1.37,0,0,0-.35-.88,1.12,1.12,0,0,0-.82-.31Zm-.08,2.87a.88.88,0,0,0-.67.27.93.93,0,0,0-.26.67.82.82,0,0,0,.22.56.72.72,0,0,0,.56.23,2,2,0,0,0,1.38-.7v-1Z"/>
    <path class="cls-2" d="M66.3,163.49a7.27,7.27,0,0,1-1.6-.23,3.51,3.51,0,0,1-1.49-.72l.75-1.81a5.72,5.72,0,0,0,1.13.43,4.11,4.11,0,0,0,1,.17,1.43,1.43,0,0,0,.7-.15.47.47,0,0,0,.3-.42.59.59,0,0,0-.29-.44,2.86,2.86,0,0,0-.8-.4,6.38,6.38,0,0,1-2-1.1,2.13,2.13,0,0,1-.78-1.67,2.53,2.53,0,0,1,.89-2,3.78,3.78,0,0,1,2.43-.74,5.93,5.93,0,0,1,1.46.23,3.79,3.79,0,0,1,1.41.69l-.74,1.82a4.86,4.86,0,0,0-2-.56,1.26,1.26,0,0,0-.63.16.51.51,0,0,0-.25.41c0,.19.35.42,1,.68,1.84.69,2.76,1.66,2.76,2.89a2.6,2.6,0,0,1-.85,2.08,3.69,3.69,0,0,1-2.48.73Z"/>
    <path class="cls-2" d="M73.41,154.85h1.77l.47,2.17H73.41v2.89a1.53,1.53,0,0,0,.28,1,.92.92,0,0,0,.78.38,2.15,2.15,0,0,0,1-.29l.74,1.94a2.29,2.29,0,0,1-.86.45,3.21,3.21,0,0,1-1.07.19,3.6,3.6,0,0,1-2.49-.85,3.07,3.07,0,0,1-1-2.43V157H69.69v-2.17h1.15v-2.18l2.57-.43v2.62Z"/>
    <path class="cls-2" d="M79.8,154.38a3.44,3.44,0,0,1,2.06.61,3.65,3.65,0,0,1,1.26,1.62,6,6,0,0,1,.42,2.28v.84H78.42a1.9,1.9,0,0,0,2.11,1.51,4.26,4.26,0,0,0,2.25-.67l.73,1.94a4.36,4.36,0,0,1-1.39.71,6,6,0,0,1-1.79.27,4.8,4.8,0,0,1-3.45-1.2A4.33,4.33,0,0,1,75.62,159a5.25,5.25,0,0,1,.53-2.43,3.72,3.72,0,0,1,1.47-1.6,4.24,4.24,0,0,1,2.17-.57Zm-.06,2.3a1.23,1.23,0,0,0-.92.4,1.82,1.82,0,0,0-.44,1.06h2.71a2.21,2.21,0,0,0-.44-1.06A1.17,1.17,0,0,0,79.74,156.68Z"/>
    <path class="cls-2" d="M89.2,156.88a3.21,3.21,0,0,0-1.33.35,4.85,4.85,0,0,0-1.34.9v5.16H83.94v-8.62h1.32L86,155.9a7,7,0,0,1,1.34-.87,3.13,3.13,0,0,1,1.37-.38l.51,2.23Z"/>
    <polygon class="cls-2" points="101.7 151.18 101.7 163.29 99.13 163.29 99.13 158.36 94.97 158.36 94.97 163.29 92.4 163.29 92.4 151.18 94.97 151.07 94.97 156.15 99.13 156.15 99.13 151.18 101.7 151.18 101.7 151.18"/>
    <path class="cls-2" d="M106,161.31a3.52,3.52,0,0,0,1.86-.76v-5.88h2.59v8.64H109l-.61-.91a8,8,0,0,1-1.57.86,4.13,4.13,0,0,1-1.59.35,2.5,2.5,0,0,1-2.17-.93,4.21,4.21,0,0,1-.67-2.51v-5.5H105v5.27a1.79,1.79,0,0,0,.25,1,.86.86,0,0,0,.75.36Z"/>
    <path class="cls-2" d="M119,158.89a4.85,4.85,0,0,1-1.11,3.38,3.92,3.92,0,0,1-3,1.22,3.3,3.3,0,0,1-2-.77l-.46.57H111V150.91l2.57-.19v4a3.14,3.14,0,0,1,1.35-.31,3.87,3.87,0,0,1,3,1.18,4.77,4.77,0,0,1,1.09,3.33Zm-2.65,0a2.79,2.79,0,0,0-.45-1.68,1.45,1.45,0,0,0-1.23-.6,1.82,1.82,0,0,0-1.07.41v3.84a2,2,0,0,0,1.13.38,1.38,1.38,0,0,0,1.17-.65,3,3,0,0,0,.45-1.7Z"/>
    <path class="cls-1" d="M119.9,151.13a1.62,1.62,0,0,1,.91.25,1.68,1.68,0,0,1,.61.66,2.23,2.23,0,0,1,.21,1,2.15,2.15,0,0,1-.21.94,1.68,1.68,0,0,1-.61.66,1.8,1.8,0,0,1-1.82,0,1.59,1.59,0,0,1-.6-.66,2,2,0,0,1-.22-.94,2.1,2.1,0,0,1,.22-1,1.59,1.59,0,0,1,.6-.66A1.62,1.62,0,0,1,119.9,151.13Zm0,.49a1.19,1.19,0,0,0-.66.17,1.22,1.22,0,0,0-.44.49,1.73,1.73,0,0,0,0,1.41,1.22,1.22,0,0,0,.44.49,1.19,1.19,0,0,0,.66.17,1.12,1.12,0,0,0,.66-.18,1.22,1.22,0,0,0,.44-.49,1.66,1.66,0,0,0,0-1.38,1.2,1.2,0,0,0-.43-.49,1.24,1.24,0,0,0-.67-.17Zm.8,1a.57.57,0,0,1-.09.32.54.54,0,0,1-.22.23l.34.81h-.56l-.27-.69h-.22V154h-.5v-2h.75a.89.89,0,0,1,.55.16.58.58,0,0,1,.22.48Zm-.54,0a.18.18,0,0,0-.08-.17.39.39,0,0,0-.24-.05h-.16v.45h.18c.21,0,.32-.07.32-.23Z"/>
  </g>
  <g>
    <path class="cls-1" d="M223.86,191c-1-.47-24.17-.49-25.4,0C202.28,191.45,220.8,191.31,223.86,191Z"/>
    <path class="cls-1" d="M200.69,181.33c3.05.13,27.59.45,28.52-.08-1.46-.38-18.63-.24-21.46-.22C206.39,181,201.51,180.9,200.69,181.33Z"/>
    <path class="cls-2" d="M285.41,176.64c-4,.17-8.08.52-12,.82-9.75.75-4.88.41-8.15-.63a12.65,12.65,0,0,0-2.71-.61c-1.73,3.85-12.09,13-15.33,14.13a20,20,0,0,0,2.14,3.51c-.94.86-5.19,4.68-6.1,5a25.06,25.06,0,0,0-1.75-1.82,11.08,11.08,0,0,0-2-1.85c-1.5.95-4.52,3.84-4.77,5.65,1,1.25,7.05,7.86,8.52,7.87,2.08,0,13.16-7.62,15.92-8.6,2.08-.73,4-1.5,6.05-2.15,1.5-.48,1.34-.7,1.83-2.16.36-1.09.71-2.13,1-3.22a24.16,24.16,0,0,0,1-7.22l17.8-2.27c0-.68-.13-.55.11-1,4.52,0,3.76.77,6.32-1.72.76-.74,3.74-3.85,3.2-5-2.6-2.59-4.44-.41-7.68.34v-3.89c-1.61.18-2.28,2.6-3.34,4.92Z"/>
    <path class="cls-1" d="M213.1,173.82c1.27.31,9.07.27,10.91.27,2.31,0,9.05,0,11-.24-.9-.42-20.46-.45-21.82,0Z"/>
    <path class="cls-1" d="M208.58,157.49c2.08.25,11.51.27,14.06.24,3,0,11.77.08,14-.25-1.09-.42-27-.42-28.1,0Z"/>
    <path class="cls-1" d="M215.54,163.6h.56c1.21.2,16.06,0,16.84-.26-2.8-.36-26.66-.34-29.66,0,.68.25,11.13.41,12.26.27Z"/>
    <path class="cls-2" d="M272.33,149.89l-2.94,1.17c-3.71,1.37-7.13,3-10.61,4.56a23.24,23.24,0,0,0-4.54,3,50.84,50.84,0,0,1-4.56,3.17A16.93,16.93,0,0,0,273.83,174c8.9-4.35,12-15.51,7.4-23.38-.71-1.22-1.51-2.08-2-3.06Z"/>
    <path class="cls-1" d="M226.61,203.49c1,1.25,2.3,1.13,3.43.12l2.77-2.56a51,51,0,0,0,5.06-5.32c-.69-1.27-2.21-3.12-3.79-3.29a38.41,38.41,0,0,0-4,5.2c-.76,1.21-3.21,4.5-3.47,5.83Z"/>
    <path class="cls-1" d="M248.48,158a44.52,44.52,0,0,1-4.08,3.84l-3.56,3.55c-.52.75.19.76,1,.34A90.44,90.44,0,0,0,256,156.61c3.25-2.6,13.08-6.24,17.61-7.88a42.65,42.65,0,0,0,5.35-2c-1.55-3-3.55-4.42-5.36-6.42a13.49,13.49,0,0,0-2.23-1.76c-2.22-1.46-2.6-1.92-5.86-1.24a61.39,61.39,0,0,0-6.24,1.74c-2,.65-10.07,3.4-10.75,5-1.56,3.72-.58,10,0,14Z"/>
    <path class="cls-2" d="M267,198l-9.28,3.16c1.75,1.16,10,1.49,12.54,1.26l-1.86,7.8c2.31-.09,5.71-.37,7.51-1.39.81-.45.89-1.49,1.31-3.11a30.87,30.87,0,0,0,1.29-7.57c-.09-1.76-.66-1.87-2.31-2.08a54.74,54.74,0,0,0-8.49-.28l-.71,2.25Z"/>
    <path class="cls-1" d="M283.08,211.67a2.83,2.83,0,0,0-1-2.18c-1.43-.47-4.05,0-5.61.25l-7,1c0,2.26,0,3.22.82,5l2.42-.52c1.39-.25,9.64-2.77,10.45-3.61Z"/>
    <path class="cls-1" d="M286.84,172.47c.61-.43,1-1.11,1.56-1.25,1.07-.25.38,0,.62.08a11.63,11.63,0,0,1,.22,3.63c2.85-.35,4.3-2.91,7.09-.35.74.68.55,1.42.17,2.33h17.22V153.4l-26.87-.06v19.14Z"/>
    <polygon class="cls-2" points="210.41 232.62 207.72 236.65 206.19 236.89 202.84 232.33 202.84 242.22 198.99 242.22 198.99 224.09 201.56 224.09 206.93 231.72 211.82 224.09 214.28 224.09 214.28 242.22 210.41 242.22 210.41 232.62 210.41 232.62"/>
    <path class="cls-2" d="M219.3,232.46a6.44,6.44,0,0,0-1.64.24,8.3,8.3,0,0,0-1.6.59l-1-3.2a8.38,8.38,0,0,1,2.25-.84,10.15,10.15,0,0,1,2.57-.36,5.39,5.39,0,0,1,2.66.64,4.47,4.47,0,0,1,1.77,1.81,5.57,5.57,0,0,1,.63,2.65v8.24h-2.15l-.91-1.36a3.8,3.8,0,0,1-2.94,1.66,4.32,4.32,0,0,1-3.28-1.17,4.4,4.4,0,0,1-1.11-3.16,3.58,3.58,0,0,1,1.24-3,5.28,5.28,0,0,1,3.37-1H221a2,2,0,0,0-.52-1.32,1.63,1.63,0,0,0-1.22-.47Zm-.13,4.29a1.38,1.38,0,0,0-1,.4,1.43,1.43,0,0,0-.38,1,1.15,1.15,0,0,0,.32.82,1.06,1.06,0,0,0,.84.35,3,3,0,0,0,2.08-1v-1.56Z"/>
    <path class="cls-2" d="M230.35,242.52a10.69,10.69,0,0,1-2.39-.35,5.45,5.45,0,0,1-2.25-1.07l1.13-2.72a8.71,8.71,0,0,0,1.69.66,6.35,6.35,0,0,0,1.56.25,2.2,2.2,0,0,0,1-.23.68.68,0,0,0,.46-.63.88.88,0,0,0-.43-.66,4.47,4.47,0,0,0-1.2-.59,9.69,9.69,0,0,1-3-1.65,3.16,3.16,0,0,1-1.16-2.51,3.73,3.73,0,0,1,1.34-3,5.56,5.56,0,0,1,3.63-1.1,8.54,8.54,0,0,1,2.19.33,5.87,5.87,0,0,1,2.11,1L234,233a7.2,7.2,0,0,0-3.05-.83,1.71,1.71,0,0,0-.94.24.71.71,0,0,0-.37.61q0,.44,1.56,1,4.13,1.56,4.12,4.32a3.91,3.91,0,0,1-1.27,3.12,5.59,5.59,0,0,1-3.71,1.09Z"/>
    <path class="cls-2" d="M241,229.58h2.66l.69,3.26H241v4.31a2.35,2.35,0,0,0,.43,1.46,1.4,1.4,0,0,0,1.16.57,3.15,3.15,0,0,0,1.53-.43l1.11,2.9a3.58,3.58,0,0,1-1.28.67,4.93,4.93,0,0,1-1.61.3,5.5,5.5,0,0,1-3.72-1.28,4.6,4.6,0,0,1-1.46-3.64v-4.88h-1.72v-3.26h1.72V226.3l3.85-.64v3.92Z"/>
    <path class="cls-2" d="M250.55,228.89a5.08,5.08,0,0,1,3.09.91,5.56,5.56,0,0,1,1.89,2.42,8.88,8.88,0,0,1,.62,3.41v1.26h-7.66a2.84,2.84,0,0,0,3.15,2.27,6.44,6.44,0,0,0,3.38-1l1.08,2.91a6.42,6.42,0,0,1-2.08,1.07,8.6,8.6,0,0,1-2.67.4,7.22,7.22,0,0,1-5.17-1.79,6.53,6.53,0,0,1-1.88-5,7.89,7.89,0,0,1,.79-3.64,5.67,5.67,0,0,1,2.2-2.4,6.25,6.25,0,0,1,3.24-.84Zm-.09,3.44a1.8,1.8,0,0,0-1.37.6,2.67,2.67,0,0,0-.66,1.59h4a3.1,3.1,0,0,0-.65-1.59A1.72,1.72,0,0,0,250.46,232.33Z"/>
    <path class="cls-2" d="M264.62,232.62a4.94,4.94,0,0,0-2,.52,8,8,0,0,0-2,1.35v7.73h-3.87V229.31h2l1.08,1.84a10.68,10.68,0,0,1,2-1.29,4.6,4.6,0,0,1,2-.57l.77,3.33Z"/>
    <polygon class="cls-2" points="283.34 224.09 283.34 242.22 279.49 242.22 279.49 234.84 273.26 234.84 273.26 242.22 269.41 242.22 269.41 224.09 273.26 223.93 273.26 231.53 279.49 231.53 279.49 224.09 283.34 224.09 283.34 224.09"/>
    <path class="cls-2" d="M289.74,239.26a5.39,5.39,0,0,0,2.78-1.14v-8.81h3.88v12.94h-2.15l-.91-1.36a11.48,11.48,0,0,1-2.36,1.28,6.1,6.1,0,0,1-2.38.52,3.73,3.73,0,0,1-3.24-1.38,6.33,6.33,0,0,1-1-3.76v-8.24h3.87v7.9a2.62,2.62,0,0,0,.37,1.5,1.29,1.29,0,0,0,1.14.55Z"/>
    <path class="cls-2" d="M309.17,235.63a7.25,7.25,0,0,1-1.66,5.06,5.9,5.9,0,0,1-4.55,1.83,5.05,5.05,0,0,1-3.06-1.15l-.69.85h-2V223.69l3.84-.29v5.94a4.77,4.77,0,0,1,2-.45,5.77,5.77,0,0,1,4.43,1.76,7,7,0,0,1,1.63,5Zm-4,0a4.15,4.15,0,0,0-.66-2.51,2.18,2.18,0,0,0-1.85-.9,2.78,2.78,0,0,0-1.61.61v5.75a3.18,3.18,0,0,0,1.71.57,2.05,2.05,0,0,0,1.75-1,4.46,4.46,0,0,0,.66-2.54Z"/>
    <path class="cls-1" d="M310.58,224a2.53,2.53,0,0,1,1.37.36,2.48,2.48,0,0,1,.9,1,3,3,0,0,1,.32,1.42,2.94,2.94,0,0,1-.32,1.4,2.41,2.41,0,0,1-.9,1,2.72,2.72,0,0,1-2.73,0,2.41,2.41,0,0,1-.9-1,2.94,2.94,0,0,1-.32-1.4,3,3,0,0,1,.32-1.42,2.41,2.41,0,0,1,2.26-1.36Zm0,.73a1.81,1.81,0,0,0-1,.26,1.68,1.68,0,0,0-.65.72,2.59,2.59,0,0,0,0,2.11,1.73,1.73,0,0,0,.65.74,1.81,1.81,0,0,0,1,.26,1.72,1.72,0,0,0,1-.27,1.79,1.79,0,0,0,.66-.73,2.47,2.47,0,0,0,0-2.08,1.76,1.76,0,0,0-.65-.73,1.85,1.85,0,0,0-1-.26Zm1.2,1.49a1,1,0,0,1-.13.48,1.1,1.1,0,0,1-.34.34l.52,1.21H311l-.4-1h-.34v1h-.74v-3h1.12a1.35,1.35,0,0,1,.82.25.87.87,0,0,1,.33.72Zm-.8,0a.3.3,0,0,0-.12-.27.75.75,0,0,0-.36-.07h-.25v.68h.27c.32,0,.48-.11.48-.34Z"/>
  </g>
  <g>
    <path class="cls-1" d="M342.39,135.25c-.74-.36-18.45-.38-19.39,0C325.92,135.57,340.06,135.46,342.39,135.25Z"/>
    <path class="cls-1" d="M324.7,127.85c2.33.09,21.07.34,21.78-.07-1.12-.28-14.23-.18-16.39-.16C329.06,127.62,325.33,127.52,324.7,127.85Z"/>
    <path class="cls-2" d="M389.38,124.27c-3,.12-6.16.39-9.18.62-7.44.57-3.72.31-6.22-.48a9.85,9.85,0,0,0-2.07-.47c-1.32,3-9.23,9.92-11.71,10.79a14.69,14.69,0,0,0,1.64,2.68,40.48,40.48,0,0,1-4.66,3.81,17.59,17.59,0,0,0-1.34-1.39,8.25,8.25,0,0,0-1.54-1.41c-1.14.72-3.45,2.93-3.64,4.31.79,1,5.38,6,6.51,6,1.58,0,10-5.82,12.15-6.56,1.59-.56,3.09-1.15,4.62-1.64,1.14-.37,1-.54,1.39-1.66.28-.82.55-1.63.77-2.45a18.72,18.72,0,0,0,.75-5.52l13.59-1.73c0-.52-.1-.42.08-.79,3.45,0,2.87.59,4.82-1.31.59-.57,2.86-2.94,2.45-3.84-2-2-3.39-.32-5.86.25v-3c-1.24.14-1.75,2-2.56,3.76Z"/>
    <path class="cls-1" d="M334.17,122.11c1,.24,6.93.21,8.33.21,1.77,0,6.92,0,8.37-.19-.69-.31-15.62-.34-16.66,0Z"/>
    <path class="cls-1" d="M330.73,109.64c1.58.2,8.78.21,10.73.19,2.25,0,9,.06,10.71-.19-.83-.33-20.63-.32-21.46,0Z"/>
    <path class="cls-1" d="M336,114.31h.43c.92.15,12.26,0,12.85-.2-2.13-.28-20.35-.26-22.64,0,.52.19,8.49.32,9.36.21Z"/>
    <path class="cls-2" d="M379.4,103.84l-2.24.89c-2.84,1-5.45,2.26-8.11,3.49a17.75,17.75,0,0,0-3.46,2.29,38.05,38.05,0,0,1-3.49,2.42,12.95,12.95,0,1,0,24.09-8.53c-.54-.93-1.15-1.59-1.54-2.34Z"/>
    <path class="cls-1" d="M344.49,144.76a1.64,1.64,0,0,0,2.62.09l2.11-1.95a39,39,0,0,0,3.86-4.06c-.52-1-1.68-2.38-2.89-2.51a30.09,30.09,0,0,0-3.05,4c-.58.93-2.45,3.44-2.65,4.46Z"/>
    <path class="cls-1" d="M361.19,110.07a37,37,0,0,1-3.12,2.93l-2.72,2.71c-.39.57.15.58.77.25a68.26,68.26,0,0,0,10.8-7c2.48-2,10-4.76,13.45-6a32.36,32.36,0,0,0,4.08-1.53c-1.19-2.29-2.71-3.38-4.09-4.9a10.16,10.16,0,0,0-1.71-1.35c-1.69-1.11-2-1.47-4.47-.94a43.62,43.62,0,0,0-4.76,1.33c-1.52.49-7.69,2.59-8.21,3.81-1.19,2.84-.44,7.66,0,10.71Z"/>
    <path class="cls-2" d="M375.29,140.6,368.21,143c1.33.88,7.66,1.13,9.57,1l-1.42,6c1.76-.06,4.36-.28,5.73-1.06.62-.35.68-1.13,1-2.38a23.48,23.48,0,0,0,1-5.78c-.06-1.33-.5-1.42-1.76-1.58a42.46,42.46,0,0,0-6.48-.22l-.54,1.72Z"/>
    <path class="cls-1" d="M387.6,151a2.17,2.17,0,0,0-.79-1.67,11.33,11.33,0,0,0-4.28.2l-5.37.79a7.28,7.28,0,0,0,.63,3.84l1.84-.4c1.06-.19,7.37-2.11,8-2.75Z"/>
    <path class="cls-1" d="M390.48,121.08c.46-.33.72-.84,1.19-1,.81-.19.29,0,.47.06a8.67,8.67,0,0,1,.16,2.77c2.18-.27,3.29-2.22,5.42-.27.57.52.42,1.09.13,1.78H411v-18l-20.52,0v14.61Z"/>
    <polygon class="cls-2" points="332.12 167.01 330.07 170.08 328.9 170.26 326.34 166.78 326.34 174.33 323.4 174.33 323.4 160.49 325.36 160.49 329.47 166.31 333.2 160.49 335.08 160.49 335.08 174.33 332.12 174.33 332.12 167.01 332.12 167.01"/>
    <path class="cls-2" d="M338.91,166.88a4.85,4.85,0,0,0-1.25.19,5.93,5.93,0,0,0-1.22.44l-.79-2.44a6.4,6.4,0,0,1,1.71-.64,8.66,8.66,0,0,1,2-.28,4.2,4.2,0,0,1,2,.49A3.29,3.29,0,0,1,342.7,166a4.07,4.07,0,0,1,.48,2v6.29h-1.64l-.69-1a2.91,2.91,0,0,1-2.24,1.27,3,3,0,0,1-3.35-3.3,2.71,2.71,0,0,1,.94-2.26,4,4,0,0,1,2.58-.75h1.43a1.49,1.49,0,0,0-.4-1,1.21,1.21,0,0,0-.93-.36Zm-.1,3.28a1,1,0,0,0-.76.3,1.07,1.07,0,0,0-.29.78.87.87,0,0,0,.24.63.82.82,0,0,0,.64.26,2.23,2.23,0,0,0,1.59-.79v-1.19Z"/>
    <path class="cls-2" d="M347.34,174.56a8.09,8.09,0,0,1-1.82-.27,4,4,0,0,1-1.71-.81l.86-2.08a6.5,6.5,0,0,0,1.29.5,4.86,4.86,0,0,0,1.19.2,1.79,1.79,0,0,0,.79-.18.5.5,0,0,0,.35-.48.66.66,0,0,0-.33-.51,3.68,3.68,0,0,0-.91-.45,7.28,7.28,0,0,1-2.26-1.26,2.38,2.38,0,0,1-.88-1.91,2.81,2.81,0,0,1,1-2.31,4.29,4.29,0,0,1,2.78-.85,6.69,6.69,0,0,1,1.67.26,4.48,4.48,0,0,1,1.61.79l-.85,2.08a5.6,5.6,0,0,0-2.33-.64,1.39,1.39,0,0,0-.72.19.53.53,0,0,0-.28.47c0,.21.39.47,1.19.77q3.15,1.19,3.14,3.3a2.94,2.94,0,0,1-1,2.38,4.27,4.27,0,0,1-2.83.84Z"/>
    <path class="cls-2" d="M355.46,164.68h2l.52,2.49h-2.56v3.29a1.86,1.86,0,0,0,.33,1.12,1.07,1.07,0,0,0,.89.43,2.36,2.36,0,0,0,1.16-.33l.85,2.22a2.78,2.78,0,0,1-1,.51,3.61,3.61,0,0,1-1.22.22,4.12,4.12,0,0,1-2.85-1,3.53,3.53,0,0,1-1.11-2.78v-3.72h-1.31v-2.49h1.31v-2.49l2.94-.49v3Z"/>
    <path class="cls-2" d="M362.77,164.15a4,4,0,0,1,2.36.7,4.3,4.3,0,0,1,1.44,1.85,6.81,6.81,0,0,1,.48,2.6v1h-5.86A2.18,2.18,0,0,0,363.6,172a4.9,4.9,0,0,0,2.58-.77l.83,2.22a5,5,0,0,1-1.59.81,6.43,6.43,0,0,1-2,.31,5.47,5.47,0,0,1-3.94-1.37,5,5,0,0,1-1.44-3.78,5.94,5.94,0,0,1,.6-2.78,4.3,4.3,0,0,1,1.68-1.83,4.79,4.79,0,0,1,2.48-.65Zm-.07,2.63a1.37,1.37,0,0,0-1.05.46,2.08,2.08,0,0,0-.5,1.21h3.09a2.36,2.36,0,0,0-.5-1.21A1.26,1.26,0,0,0,362.7,166.78Z"/>
    <path class="cls-2" d="M373.51,167a3.64,3.64,0,0,0-1.52.39,5.88,5.88,0,0,0-1.53,1v5.9h-3v-9.85H369l.83,1.4a8.39,8.39,0,0,1,1.52-1,3.46,3.46,0,0,1,1.57-.44l.58,2.55Z"/>
    <polygon class="cls-2" points="387.81 160.49 387.81 174.33 384.87 174.33 384.87 168.7 380.11 168.7 380.11 174.33 377.17 174.33 377.17 160.49 380.11 160.37 380.11 166.17 384.87 166.17 384.87 160.49 387.81 160.49 387.81 160.49"/>
    <path class="cls-2" d="M392.69,172.07a4.08,4.08,0,0,0,2.12-.87v-6.72h3v9.88h-1.64l-.7-1a9.43,9.43,0,0,1-1.79,1,4.76,4.76,0,0,1-1.82.39,2.84,2.84,0,0,1-2.48-1.06,4.75,4.75,0,0,1-.76-2.86v-6.29h2.95v6a2,2,0,0,0,.29,1.15,1,1,0,0,0,.87.42Z"/>
    <path class="cls-2" d="M407.53,169.3a5.56,5.56,0,0,1-1.27,3.86,4.51,4.51,0,0,1-3.48,1.4,3.84,3.84,0,0,1-2.33-.88l-.53.65h-1.51V160.18l2.94-.22v4.54a3.59,3.59,0,0,1,1.55-.35,4.4,4.4,0,0,1,3.38,1.35,5.37,5.37,0,0,1,1.25,3.8Zm-3,0a3.17,3.17,0,0,0-.5-1.92,1.69,1.69,0,0,0-1.42-.69,2.12,2.12,0,0,0-1.22.47v4.39a2.32,2.32,0,0,0,1.3.43,1.59,1.59,0,0,0,1.34-.74,3.43,3.43,0,0,0,.5-2Z"/>
    <path class="cls-1" d="M408.6,160.44a1.88,1.88,0,0,1,1,.27,1.83,1.83,0,0,1,.69.77,2.38,2.38,0,0,1,.25,1.08,2.34,2.34,0,0,1-.25,1.07,1.81,1.81,0,0,1-.69.76,2.09,2.09,0,0,1-2.08,0,1.87,1.87,0,0,1-.69-.76,2.33,2.33,0,0,1-.24-1.07,2.37,2.37,0,0,1,.24-1.08,1.82,1.82,0,0,1,1.73-1Zm0,.55a1.54,1.54,0,0,0-.76.2,1.33,1.33,0,0,0-.49.56,2,2,0,0,0,0,1.61,1.33,1.33,0,0,0,.49.56,1.54,1.54,0,0,0,.76.2,1.45,1.45,0,0,0,.76-.21,1.42,1.42,0,0,0,.5-.56,1.68,1.68,0,0,0,.17-.79,1.66,1.66,0,0,0-.17-.79,1.35,1.35,0,0,0-.5-.56,1.44,1.44,0,0,0-.76-.2Zm.91,1.14a.61.61,0,0,1-.1.37.88.88,0,0,1-.25.26l.39.92h-.64l-.31-.79h-.25v.79h-.57v-2.29h.86a1.06,1.06,0,0,1,.62.19.65.65,0,0,1,.25.55Zm-.61,0a.2.2,0,0,0-.09-.2.63.63,0,0,0-.27-.06h-.19v.52h.2c.24,0,.37-.08.37-.26Z"/>
  </g>
  <g>
    <path class="cls-1" d="M381,42.22a77.89,77.89,0,0,0-9,0C373.36,42.37,380,42.32,381,42.22Z"/>
    <path class="cls-1" d="M372.79,38.77c1.09,0,9.82.16,10.15,0-.52-.13-6.63-.09-7.64-.08A13.33,13.33,0,0,0,372.79,38.77Z"/>
    <path class="cls-2" d="M402.93,37.1c-1.41.06-2.87.19-4.28.29-3.47.27-1.73.15-2.9-.22a4.6,4.6,0,0,0-1-.22c-.62,1.37-4.3,4.62-5.46,5a7,7,0,0,0,.77,1.25A18.62,18.62,0,0,1,387.92,45a7.58,7.58,0,0,0-.62-.65,4.12,4.12,0,0,0-.72-.66,4.44,4.44,0,0,0-1.69,2c.37.45,2.51,2.8,3,2.81.74,0,4.68-2.72,5.66-3.06.74-.26,1.44-.54,2.15-.77.54-.17.48-.25.65-.77s.26-.76.36-1.14a9,9,0,0,0,.35-2.57l6.33-.81c0-.24-.05-.2,0-.37,1.61,0,1.34.28,2.25-.61.27-.26,1.33-1.37,1.14-1.79-.93-.92-1.58-.15-2.74.12V35.36c-.57.06-.81.92-1.19,1.75Z"/>
    <path class="cls-1" d="M377.21,36.1c.45.11,3.23.09,3.88.09.82,0,3.22,0,3.89-.08a64.79,64.79,0,0,0-7.76,0Z"/>
    <path class="cls-1" d="M375.6,30.29c.74.09,4.09.1,5,.08s4.19,0,5-.08c-.39-.16-9.61-.15-10,0Z"/>
    <path class="cls-1" d="M378.07,32.46h.21c.43.07,5.71,0,6-.09-1-.13-9.48-.12-10.55,0,.25.09,4,.15,4.36.1Z"/>
    <path class="cls-2" d="M398.28,27.59l-1,.41c-1.32.49-2.53,1.05-3.77,1.62a8.92,8.92,0,0,0-1.62,1.07,16.21,16.21,0,0,1-1.62,1.13,6,6,0,1,0,11.22-4c-.25-.44-.53-.74-.72-1.09Z"/>
    <path class="cls-1" d="M382,46.65a.76.76,0,0,0,1.22,0l1-.91a18.94,18.94,0,0,0,1.8-1.89c-.25-.45-.79-1.11-1.35-1.17a12.68,12.68,0,0,0-1.42,1.85A11.69,11.69,0,0,0,382,46.64Z"/>
    <path class="cls-1" d="M389.79,30.49a17.4,17.4,0,0,1-1.45,1.36l-1.27,1.26c-.18.27.07.27.36.12a31.31,31.31,0,0,0,5-3.25c1.16-.93,4.65-2.22,6.27-2.81a13.48,13.48,0,0,0,1.9-.71,9.61,9.61,0,0,0-1.91-2.28,4.37,4.37,0,0,0-.79-.63,2,2,0,0,0-2.08-.44,20.82,20.82,0,0,0-2.22.62c-.71.23-3.59,1.21-3.83,1.77-.55,1.33-.2,3.57,0,5Z"/>
    <path class="cls-2" d="M396.36,44.71l-3.3,1.13c.62.41,3.57.53,4.46.45l-.66,2.77a6.94,6.94,0,0,0,2.67-.49c.29-.17.32-.53.47-1.11a10.89,10.89,0,0,0,.45-2.7c0-.62-.23-.66-.82-.73a17.83,17.83,0,0,0-3-.1l-.26.8Z"/>
    <path class="cls-1" d="M402.1,49.56a1,1,0,0,0-.37-.78,5.18,5.18,0,0,0-2,.1l-2.5.36a3.34,3.34,0,0,0,.29,1.79l.86-.18a20,20,0,0,0,3.71-1.28Z"/>
    <path class="cls-1" d="M403.44,35.62c.22-.16.33-.4.55-.45.38-.09.14,0,.22,0a3.91,3.91,0,0,1,.08,1.29c1-.12,1.53-1,2.52-.12.27.24.2.5.06.83H413V28.84l-9.56,0v6.81Z"/>
    <polygon class="cls-2" points="376.25 57.01 375.3 58.45 374.75 58.53 373.56 56.91 373.56 60.43 372.19 60.43 372.19 53.98 373.1 53.98 375.01 56.69 376.75 53.98 377.63 53.98 377.63 60.43 376.25 60.43 376.25 57.01 376.25 57.01"/>
    <path class="cls-2" d="M379.41,57a2.25,2.25,0,0,0-.58.08,2.78,2.78,0,0,0-.57.21l-.37-1.14a3.66,3.66,0,0,1,.8-.3,3.56,3.56,0,0,1,.91-.12,2,2,0,0,1,.95.22,1.58,1.58,0,0,1,.63.65,1.91,1.91,0,0,1,.22.94v2.93h-.76l-.33-.48a1.34,1.34,0,0,1-1,.59,1.55,1.55,0,0,1-1.17-.42,1.57,1.57,0,0,1-.39-1.12,1.24,1.24,0,0,1,.44-1,1.84,1.84,0,0,1,1.2-.35H380a.68.68,0,0,0-.19-.47.54.54,0,0,0-.43-.17Zm0,1.52a.48.48,0,0,0-.36.15.46.46,0,0,0-.13.36.36.36,0,0,0,.11.29.37.37,0,0,0,.3.12A1,1,0,0,0,380,59v-.55Z"/>
    <path class="cls-2" d="M383.34,60.53a3.56,3.56,0,0,1-.85-.12,1.91,1.91,0,0,1-.8-.38l.41-1a3.13,3.13,0,0,0,.6.24,2.53,2.53,0,0,0,.55.09.78.78,0,0,0,.37-.09.22.22,0,0,0,.16-.22.3.3,0,0,0-.15-.24,1.35,1.35,0,0,0-.42-.2,3.79,3.79,0,0,1-1.06-.59,1.14,1.14,0,0,1-.41-.89,1.33,1.33,0,0,1,.47-1.08,2,2,0,0,1,1.3-.39,2.87,2.87,0,0,1,.77.11,2.15,2.15,0,0,1,.76.37l-.4,1a2.46,2.46,0,0,0-1.09-.29.56.56,0,0,0-.33.08.26.26,0,0,0-.13.22c0,.1.18.22.55.36,1,.37,1.47.88,1.47,1.54a1.38,1.38,0,0,1-.46,1.11,1.94,1.94,0,0,1-1.32.39Z"/>
    <path class="cls-2" d="M387.13,55.93h.94l.25,1.16h-1.19v1.54a.83.83,0,0,0,.15.52.5.5,0,0,0,.41.2,1.13,1.13,0,0,0,.54-.16l.4,1a1.55,1.55,0,0,1-.46.24,2.13,2.13,0,0,1-.57.1,1.89,1.89,0,0,1-1.32-.46,1.61,1.61,0,0,1-.52-1.29V57.08h-.61V55.93h.61V54.77l1.37-.23v1.39Z"/>
    <path class="cls-2" d="M390.53,55.69a1.8,1.8,0,0,1,1.1.32,2,2,0,0,1,.67.86,3.16,3.16,0,0,1,.22,1.21v.45h-2.73a1,1,0,0,0,1.13.81,2.34,2.34,0,0,0,1.2-.36l.38,1a2.26,2.26,0,0,1-.74.38,2.74,2.74,0,0,1-.95.14A2.54,2.54,0,0,1,389,59.9a2.36,2.36,0,0,1-.68-1.77,2.77,2.77,0,0,1,.29-1.29,1.94,1.94,0,0,1,.78-.85,2.13,2.13,0,0,1,1.15-.3Zm0,1.22a.64.64,0,0,0-.49.21.93.93,0,0,0-.23.57h1.44a1.2,1.2,0,0,0-.24-.57A.6.6,0,0,0,390.5,56.91Z"/>
    <path class="cls-2" d="M395.53,57a1.74,1.74,0,0,0-.7.19,2.52,2.52,0,0,0-.72.48v2.75h-1.38V55.84h.71l.38.65a4.1,4.1,0,0,1,.71-.46,1.74,1.74,0,0,1,.73-.2l.27,1.18Z"/>
    <polygon class="cls-2" points="402.19 53.98 402.19 60.43 400.82 60.43 400.82 57.8 398.61 57.8 398.61 60.43 397.24 60.43 397.24 53.98 398.61 53.92 398.61 56.63 400.82 56.63 400.82 53.98 402.19 53.98 402.19 53.98"/>
    <path class="cls-2" d="M404.47,59.37a1.91,1.91,0,0,0,1-.4V55.84h1.38v4.6h-.77l-.32-.49a3.81,3.81,0,0,1-.84.46,2.24,2.24,0,0,1-.85.19,1.32,1.32,0,0,1-1.15-.5,2.23,2.23,0,0,1-.36-1.33V55.84h1.38v2.8a1,1,0,0,0,.13.54.44.44,0,0,0,.41.19Z"/>
    <path class="cls-2" d="M411.38,58.08a2.58,2.58,0,0,1-.59,1.8,2.06,2.06,0,0,1-1.62.65,1.75,1.75,0,0,1-1.09-.41l-.24.31h-.7V53.84l1.36-.11v2.12a1.64,1.64,0,0,1,.72-.16,2.07,2.07,0,0,1,1.58.62,2.5,2.5,0,0,1,.58,1.77Zm-1.41,0a1.51,1.51,0,0,0-.24-.9.78.78,0,0,0-.66-.32,1,1,0,0,0-.57.22v2a1.2,1.2,0,0,0,.61.2.72.72,0,0,0,.62-.35,1.62,1.62,0,0,0,.24-.91Z"/>
    <path class="cls-1" d="M411.88,54a1,1,0,0,1,.49.13.86.86,0,0,1,.32.36,1,1,0,0,1,.11.5,1,1,0,0,1-.11.5.86.86,0,0,1-.32.36,1,1,0,0,1-1,0,.86.86,0,0,1-.32-.36,1.06,1.06,0,0,1-.12-.5,1.11,1.11,0,0,1,.12-.5.86.86,0,0,1,.32-.36A.89.89,0,0,1,411.88,54Zm0,.26a.64.64,0,0,0-.35.1.61.61,0,0,0-.23.25.89.89,0,0,0,0,.75.58.58,0,0,0,.23.26.64.64,0,0,0,.35.1.6.6,0,0,0,.35-.1.55.55,0,0,0,.24-.26.91.91,0,0,0,.08-.37,1,1,0,0,0-.08-.37.71.71,0,0,0-.23-.26.74.74,0,0,0-.36-.09Zm.43.53a.34.34,0,0,1-.05.17.49.49,0,0,1-.12.13l.19.43H412l-.15-.37h-.12v.37h-.26V54.4h.4a.5.5,0,0,1,.29.09.3.3,0,0,1,.12.25Zm-.29,0a.09.09,0,0,0,0-.09.28.28,0,0,0-.13,0h-.09v.25h.1c.11,0,.17,0,.17-.13Z"/>
  </g>
  <g>
    <path class="cls-1" d="M120.55,47.94a128.4,128.4,0,0,0-14.55,0C108.19,48.18,118.79,48.1,120.55,47.94Z"/>
    <path class="cls-1" d="M107.28,42.38c1.75.08,15.8.26,16.33,0-.84-.22-10.67-.14-12.29-.13A21.54,21.54,0,0,0,107.28,42.38Z"/>
    <path class="cls-2" d="M155.79,39.7c-2.26.1-4.63.3-6.89.47-5.58.43-2.79.23-4.67-.37a7.39,7.39,0,0,0-1.55-.34c-1,2.2-6.92,7.43-8.78,8.09a11.51,11.51,0,0,0,1.23,2,30,30,0,0,1-3.5,2.86,10.94,10.94,0,0,0-1-1,6.46,6.46,0,0,0-1.15-1.07c-.86.55-2.59,2.2-2.73,3.24.59.71,4,4.5,4.87,4.51,1.19,0,7.54-4.37,9.12-4.93,1.19-.42,2.32-.86,3.47-1.23.85-.27.76-.4,1-1.24.21-.62.41-1.22.57-1.84a13.8,13.8,0,0,0,.57-4.14l10.19-1.29c0-.4-.07-.32.06-.6,2.59,0,2.15.44,3.62-1,.43-.43,2.14-2.21,1.83-2.88-1.48-1.49-2.54-.24-4.39.19V36.89c-.93.11-1.31,1.49-1.92,2.82Z"/>
    <path class="cls-1" d="M114.38,38.09c.73.17,5.2.15,6.25.15,1.32,0,5.18,0,6.27-.14a104.24,104.24,0,0,0-12.5,0Z"/>
    <path class="cls-1" d="M111.8,28.73c1.19.15,6.59.16,8,.14,1.69,0,6.74.05,8-.14-.63-.25-15.47-.24-16.1,0Z"/>
    <path class="cls-1" d="M115.78,32.23h.32c.69.12,9.2,0,9.64-.15-1.6-.2-15.26-.19-17,0a69.67,69.67,0,0,0,7,.16Z"/>
    <path class="cls-2" d="M148.3,24.38l-1.68.67c-2.13.79-4.09,1.69-6.08,2.61a13.2,13.2,0,0,0-2.6,1.73,31.11,31.11,0,0,1-2.61,1.81,9.71,9.71,0,1,0,18.06-6.4c-.4-.7-.86-1.19-1.15-1.75Z"/>
    <path class="cls-1" d="M122.12,55.07a1.23,1.23,0,0,0,2,.07l1.59-1.46a29.77,29.77,0,0,0,2.89-3c-.39-.73-1.26-1.79-2.17-1.88a22.94,22.94,0,0,0-2.29,3,18.56,18.56,0,0,0-2,3.34Z"/>
    <path class="cls-1" d="M134.64,29.05a29.13,29.13,0,0,1-2.33,2.2l-2,2c-.3.43.11.43.57.19a51.18,51.18,0,0,0,8.1-5.24c1.86-1.49,7.49-3.57,10.09-4.51a23.38,23.38,0,0,0,3.06-1.15A15.71,15.71,0,0,0,149,18.9a7.79,7.79,0,0,0-1.28-1c-1.27-.84-1.49-1.1-3.36-.71a35.11,35.11,0,0,0-3.57,1c-1.13.36-5.76,1.94-6.15,2.85-.89,2.13-.33,5.75,0,8Z"/>
    <path class="cls-2" d="M145.22,52l-5.32,1.81c1,.66,5.75.85,7.18.72L146,59a11.2,11.2,0,0,0,4.3-.79c.46-.27.51-.86.75-1.79A17,17,0,0,0,151.8,52c0-1-.37-1.08-1.32-1.19a31.42,31.42,0,0,0-4.85-.17l-.41,1.3Z"/>
    <path class="cls-1" d="M154.45,59.76a1.63,1.63,0,0,0-.59-1.25,8.54,8.54,0,0,0-3.21.14l-4,.6a5.51,5.51,0,0,0,.47,2.88l1.39-.3c.79-.15,5.52-1.59,6-2.07Z"/>
    <path class="cls-1" d="M156.61,37.31c.35-.25.54-.63.89-.71.61-.15.22,0,.36,0a6.73,6.73,0,0,1,.12,2.08c1.63-.2,2.46-1.67,4.06-.2.42.39.32.81.09,1.34H172V26.39l-15.39,0v11Z"/>
    <polygon class="cls-2" points="112.84 71.75 111.31 74.06 110.43 74.2 108.51 71.58 108.51 77.25 106.3 77.25 106.3 66.87 107.77 66.87 110.85 71.23 113.65 66.87 115.06 66.87 115.06 77.25 112.84 77.25 112.84 71.75 112.84 71.75"/>
    <path class="cls-2" d="M117.93,71.66a3.61,3.61,0,0,0-.93.14,4.23,4.23,0,0,0-.92.34l-.6-1.84a5,5,0,0,1,1.29-.48,5.6,5.6,0,0,1,1.47-.2,3.14,3.14,0,0,1,1.53.36,2.53,2.53,0,0,1,1,1,3.21,3.21,0,0,1,.36,1.52v4.72h-1.23l-.52-.78a2.18,2.18,0,0,1-1.69,1,2.48,2.48,0,0,1-1.87-.67,2.52,2.52,0,0,1-.64-1.81,2.08,2.08,0,0,1,.71-1.7,3,3,0,0,1,1.93-.56h1.08a1.14,1.14,0,0,0-.3-.75.93.93,0,0,0-.7-.27Zm-.07,2.46a.75.75,0,0,0-.57.23.77.77,0,0,0-.22.58.65.65,0,0,0,.18.47.59.59,0,0,0,.48.2,1.71,1.71,0,0,0,1.19-.59v-.9Z"/>
    <path class="cls-2" d="M124.26,77.42a5.81,5.81,0,0,1-1.37-.2,3.14,3.14,0,0,1-1.29-.61l.65-1.56a5.74,5.74,0,0,0,1,.38,3.84,3.84,0,0,0,.89.14,1.38,1.38,0,0,0,.6-.13.4.4,0,0,0,.26-.36.51.51,0,0,0-.25-.38,2.55,2.55,0,0,0-.68-.34,5.55,5.55,0,0,1-1.7-.94,1.81,1.81,0,0,1-.66-1.44,2.14,2.14,0,0,1,.76-1.73,3.14,3.14,0,0,1,2.09-.63,4.46,4.46,0,0,1,1.25.19,3.14,3.14,0,0,1,1.2.59L126.35,72a4.13,4.13,0,0,0-1.75-.48,1,1,0,0,0-.54.14.4.4,0,0,0-.21.35c0,.17.3.36.89.58,1.58.6,2.36,1.42,2.36,2.48a2.23,2.23,0,0,1-.73,1.78,3.14,3.14,0,0,1-2.12.63Z"/>
    <path class="cls-2" d="M130.35,70h1.52l.4,1.87h-1.92v2.47a1.29,1.29,0,0,0,.25.83.76.76,0,0,0,.66.33,1.76,1.76,0,0,0,.87-.25l.64,1.67a2.32,2.32,0,0,1-.73.38,3.25,3.25,0,0,1-.92.17,3.11,3.11,0,0,1-2.14-.74,2.61,2.61,0,0,1-.83-2.08V71.87h-1V70h1V68.13l2.2-.36V70Z"/>
    <path class="cls-2" d="M135.83,69.62a2.88,2.88,0,0,1,1.77.52,3.23,3.23,0,0,1,1.08,1.39,5.19,5.19,0,0,1,.36,2v.72h-4.4a1.64,1.64,0,0,0,1.81,1.29,3.7,3.7,0,0,0,1.94-.58l.62,1.67a3.84,3.84,0,0,1-1.19.61,5,5,0,0,1-1.54.23,4.1,4.1,0,0,1-2.95-1,3.75,3.75,0,0,1-1.08-2.85,4.41,4.41,0,0,1,.45-2.08A3.15,3.15,0,0,1,134,70.1a3.47,3.47,0,0,1,1.86-.48Zm-.06,2a1.07,1.07,0,0,0-.78.35,1.58,1.58,0,0,0-.38.91h2.32a1.88,1.88,0,0,0-.37-.91A1,1,0,0,0,135.77,71.58Z"/>
    <path class="cls-2" d="M143.88,71.75a2.79,2.79,0,0,0-1.13.3,4.6,4.6,0,0,0-1.16.77v4.43h-2.21V69.86h1.13l.62,1a6.19,6.19,0,0,1,1.14-.74,2.67,2.67,0,0,1,1.17-.33l.44,1.91Z"/>
    <polygon class="cls-2" points="154.6 66.87 154.6 77.25 152.4 77.25 152.4 73.02 148.83 73.02 148.83 77.25 146.63 77.25 146.63 66.87 148.83 66.78 148.83 71.13 152.4 71.13 152.4 66.87 154.6 66.87 154.6 66.87"/>
    <path class="cls-2" d="M158.26,75.55a3,3,0,0,0,1.6-.65v-5h2.22v7.41h-1.23l-.52-.78a7,7,0,0,1-1.35.73,3.58,3.58,0,0,1-1.36.3,2.13,2.13,0,0,1-1.86-.79,3.6,3.6,0,0,1-.58-2.16V69.86h2.22v4.52a1.46,1.46,0,0,0,.22.86.71.71,0,0,0,.64.31Z"/>
    <path class="cls-2" d="M169.39,73.48a4.11,4.11,0,0,1-.95,2.89,3.35,3.35,0,0,1-2.6,1,2.87,2.87,0,0,1-1.75-.66l-.4.49h-1.13V66.64l2.2-.17v3.4a2.58,2.58,0,0,1,1.16-.25,3.31,3.31,0,0,1,2.54,1,4.09,4.09,0,0,1,.93,2.86Zm-2.27,0a2.35,2.35,0,0,0-.38-1.44,1.23,1.23,0,0,0-1.06-.52,1.61,1.61,0,0,0-.92.35v3.29a1.75,1.75,0,0,0,1,.33,1.16,1.16,0,0,0,1-.56,2.58,2.58,0,0,0,.38-1.46Z"/>
    <path class="cls-1" d="M170.2,66.83A1.33,1.33,0,0,1,171,67a1.37,1.37,0,0,1,.52.57,1.75,1.75,0,0,1,.18.81,1.7,1.7,0,0,1-.18.8,1.37,1.37,0,0,1-.52.57,1.55,1.55,0,0,1-1.56,0,1.37,1.37,0,0,1-.52-.57,1.84,1.84,0,0,1-.18-.8,1.88,1.88,0,0,1,.18-.81,1.41,1.41,0,0,1,1.3-.78Zm0,.41a1.13,1.13,0,0,0-.57.15,1,1,0,0,0-.37.42,1.5,1.5,0,0,0,0,1.21,1,1,0,0,0,.37.42,1.13,1.13,0,0,0,.57.15,1,1,0,0,0,.57-.16,1,1,0,0,0,.38-.42,1.33,1.33,0,0,0,.12-.59,1.37,1.37,0,0,0-.12-.6,1.07,1.07,0,0,0-.38-.41,1,1,0,0,0-.57-.15Zm.68.86a.44.44,0,0,1-.07.27.61.61,0,0,1-.19.2l.29.69h-.48l-.23-.59H170v.59h-.43V67.54h.65a.86.86,0,0,1,.47.14.51.51,0,0,1,.18.42Zm-.45,0a.17.17,0,0,0-.07-.15.41.41,0,0,0-.21,0H170v.39h.15c.19,0,.28-.06.28-.19Z"/>
  </g>
  <g>
    <path class="cls-1" d="M144.36,126A91.8,91.8,0,0,0,134,126C135.56,126.2,143.11,126.14,144.36,126Z"/>
    <path class="cls-1" d="M134.91,122.08c1.24,0,11.25.18,11.63,0-.6-.15-7.6-.09-8.75-.09A14.63,14.63,0,0,0,134.91,122.08Z"/>
    <path class="cls-2" d="M169.46,120.17c-1.61.06-3.3.21-4.91.33-4,.3-2,.17-3.32-.26a6,6,0,0,0-1.11-.25c-.7,1.57-4.93,5.3-6.25,5.76a8.11,8.11,0,0,0,.87,1.44,22,22,0,0,1-2.49,2,8.27,8.27,0,0,0-.71-.74,4.54,4.54,0,0,0-.82-.76,5.12,5.12,0,0,0-1.95,2.31c.43.51,2.88,3.2,3.48,3.21.85,0,5.36-3.11,6.49-3.51.85-.3,1.65-.61,2.47-.88.61-.19.54-.28.74-.88.15-.44.29-.87.41-1.31a9.77,9.77,0,0,0,.4-3l7.26-.92c0-.28-.05-.23,0-.42,1.84,0,1.54.31,2.58-.7.31-.31,1.53-1.57,1.3-2.06-1.05-1-1.81-.16-3.13.14v-1.58c-.66.07-.93,1.06-1.36,2Z"/>
    <path class="cls-1" d="M140,119c.52.12,3.7.1,4.45.1.94,0,3.69,0,4.46-.09a73.23,73.23,0,0,0-8.89,0Z"/>
    <path class="cls-1" d="M138.13,112.35c.84.11,4.69.12,5.73.1,1.2,0,4.8,0,5.72-.1-.45-.17-11-.17-11.46,0Z"/>
    <path class="cls-1" d="M141,114.85h.23c.5.08,6.55,0,6.87-.11-1.14-.15-10.87-.14-12.1,0,.28.1,4.54.17,5,.11Z"/>
    <path class="cls-2" d="M164.12,109.26l-1.2.47c-1.51.56-2.9,1.21-4.32,1.86a9.44,9.44,0,0,0-1.85,1.23,20,20,0,0,1-1.87,1.29,6.91,6.91,0,1,0,12.87-4.55c-.29-.5-.61-.85-.82-1.25Z"/>
    <path class="cls-1" d="M145.48,131.11a.88.88,0,0,0,1.4,0l1.13-1a22.27,22.27,0,0,0,2.06-2.17c-.28-.52-.9-1.27-1.55-1.34a17.08,17.08,0,0,0-1.63,2.12,12.34,12.34,0,0,0-1.41,2.37Z"/>
    <path class="cls-1" d="M154.4,112.58a19.57,19.57,0,0,1-1.67,1.57l-1.45,1.44c-.21.31.08.31.41.14a36.45,36.45,0,0,0,5.77-3.73c1.32-1.06,5.33-2.55,7.18-3.22a17.56,17.56,0,0,0,2.18-.81,11.45,11.45,0,0,0-2.18-2.62,5.84,5.84,0,0,0-.92-.72,2.28,2.28,0,0,0-2.39-.5,23.44,23.44,0,0,0-2.54.71c-.81.26-4.11,1.38-4.38,2-.64,1.52-.24,4.09,0,5.72Z"/>
    <path class="cls-2" d="M161.93,128.89l-3.79,1.29c.72.47,4.1.6,5.12.51l-.76,3.18a7.91,7.91,0,0,0,3.06-.56c.33-.19.36-.61.54-1.27a12.65,12.65,0,0,0,.52-3.09c0-.71-.27-.76-.94-.85a22.24,22.24,0,0,0-3.46-.11l-.29.92Z"/>
    <path class="cls-1" d="M168.5,134.45a1.13,1.13,0,0,0-.42-.89,6.15,6.15,0,0,0-2.29.1l-2.86.43a3.9,3.9,0,0,0,.33,2l1-.22a21.79,21.79,0,0,0,4.26-1.47Z"/>
    <path class="cls-1" d="M170,118.46c.25-.17.38-.45.63-.5.44-.11.16,0,.26,0a4.77,4.77,0,0,1,.08,1.48c1.17-.15,1.76-1.19,2.9-.15.3.28.22.59.06,1h7v-9.59l-11,0v7.81Z"/>
    <polygon class="cls-2" points="138.87 142.99 137.78 144.63 137.15 144.73 135.79 142.87 135.79 146.91 134.22 146.91 134.22 139.51 135.26 139.51 137.46 142.62 139.45 139.51 140.45 139.51 140.45 146.91 138.87 146.91 138.87 142.99 138.87 142.99"/>
    <path class="cls-2" d="M142.5,142.93a2.52,2.52,0,0,0-.67.09,3.91,3.91,0,0,0-.65.24l-.43-1.3a3.8,3.8,0,0,1,.92-.35,4.09,4.09,0,0,1,1.05-.14,2.16,2.16,0,0,1,1.08.26,1.77,1.77,0,0,1,.72.74,2.13,2.13,0,0,1,.26,1.08v3.36h-.88l-.37-.56a1.54,1.54,0,0,1-1.2.68,1.6,1.6,0,0,1-1.78-1.76,1.43,1.43,0,0,1,.5-1.21,2.12,2.12,0,0,1,1.38-.4h.76a.83.83,0,0,0-.21-.54.66.66,0,0,0-.5-.19Zm-.06,1.75a.5.5,0,0,0-.4.16.57.57,0,0,0-.16.41.51.51,0,0,0,.13.34.44.44,0,0,0,.34.14,1.2,1.2,0,0,0,.85-.42v-.64Z"/>
    <path class="cls-2" d="M147,147a4,4,0,0,1-1-.15,2.23,2.23,0,0,1-.92-.43l.46-1.11a4.12,4.12,0,0,0,.69.27,2.76,2.76,0,0,0,.64.1,1,1,0,0,0,.42-.09.29.29,0,0,0,.19-.26.36.36,0,0,0-.18-.27,2.16,2.16,0,0,0-.48-.24,4,4,0,0,1-1.21-.67,1.27,1.27,0,0,1-.47-1,1.5,1.5,0,0,1,.54-1.24,2.26,2.26,0,0,1,1.48-.45,3.83,3.83,0,0,1,.89.13,2.25,2.25,0,0,1,.86.43l-.45,1.11a2.88,2.88,0,0,0-1.25-.34.66.66,0,0,0-.38.1.28.28,0,0,0-.15.25c0,.11.21.25.64.41,1.12.42,1.68,1,1.68,1.76a1.6,1.6,0,0,1-.52,1.27A2.26,2.26,0,0,1,147,147Z"/>
    <path class="cls-2" d="M151.34,141.75h1.08l.29,1.33h-1.37v1.76a1,1,0,0,0,.17.59.54.54,0,0,0,.48.23,1.23,1.23,0,0,0,.62-.17l.45,1.18a1.46,1.46,0,0,1-.52.28,2.41,2.41,0,0,1-.65.12,2.25,2.25,0,0,1-1.52-.52,1.91,1.91,0,0,1-.6-1.49v-2h-.7v-1.33h.7v-1.33l1.57-.26v1.6Z"/>
    <path class="cls-2" d="M155.24,141.47a2,2,0,0,1,1.26.37,2.28,2.28,0,0,1,.77,1,3.65,3.65,0,0,1,.26,1.39v.51H154.4a1.15,1.15,0,0,0,1.28.93,2.69,2.69,0,0,0,1.38-.42l.44,1.19a2.68,2.68,0,0,1-.84.43,3.7,3.7,0,0,1-1.09.17,3,3,0,0,1-2.11-.73,2.68,2.68,0,0,1-.77-2,3.29,3.29,0,0,1,.32-1.48,2.3,2.3,0,0,1,.9-1,2.55,2.55,0,0,1,1.32-.34Zm0,1.4a.77.77,0,0,0-.56.25,1.07,1.07,0,0,0-.26.64H156a1.26,1.26,0,0,0-.27-.64A.67.67,0,0,0,155.2,142.87Z"/>
    <path class="cls-2" d="M161,143a2,2,0,0,0-.81.21,3.27,3.27,0,0,0-.82.55v3.16h-1.58v-5.27h.8l.44.75a5.46,5.46,0,0,1,.82-.53,1.89,1.89,0,0,1,.84-.23L161,143Z"/>
    <polygon class="cls-2" points="168.61 139.51 168.61 146.91 167.04 146.91 167.04 143.9 164.5 143.9 164.5 146.91 162.93 146.91 162.93 139.51 164.5 139.45 164.5 142.54 167.04 142.54 167.04 139.51 168.61 139.51 168.61 139.51"/>
    <path class="cls-2" d="M171.22,145.7a2.17,2.17,0,0,0,1.13-.47v-3.59h1.58v5.28h-.87l-.37-.56a5,5,0,0,1-1,.53,2.72,2.72,0,0,1-1,.21,1.53,1.53,0,0,1-1.33-.57A2.57,2.57,0,0,1,169,145v-3.36h1.57v3.22a1.13,1.13,0,0,0,.16.62.52.52,0,0,0,.46.22Z"/>
    <path class="cls-2" d="M179.14,144.22a3,3,0,0,1-.67,2.06,2.41,2.41,0,0,1-1.86.75,2.12,2.12,0,0,1-1.25-.47l-.28.35h-.8v-7.56l1.57-.12v2.42a1.92,1.92,0,0,1,.82-.18,2.36,2.36,0,0,1,1.81.72,2.88,2.88,0,0,1,.66,2Zm-1.61,0a1.68,1.68,0,0,0-.28-1,.88.88,0,0,0-.75-.37,1.09,1.09,0,0,0-.65.25v2.34a1.14,1.14,0,0,0,.69.23.8.8,0,0,0,.71-.39,1.83,1.83,0,0,0,.28-1Z"/>
    <path class="cls-1" d="M179.72,139.48a1.12,1.12,0,0,1,.56.15,1,1,0,0,1,.36.41,1.17,1.17,0,0,1,.13.58,1.14,1.14,0,0,1-.13.57,1,1,0,0,1-.36.41,1.17,1.17,0,0,1-1.12,0,1,1,0,0,1-.37-.41,1.24,1.24,0,0,1-.12-.57,1.29,1.29,0,0,1,.12-.58,1,1,0,0,1,.37-.41A1.09,1.09,0,0,1,179.72,139.48Zm0,.3a.77.77,0,0,0-.41.11.73.73,0,0,0-.26.29,1.07,1.07,0,0,0,0,.86.7.7,0,0,0,.26.3.77.77,0,0,0,.41.11.73.73,0,0,0,.67-.41.88.88,0,0,0,.09-.42.92.92,0,0,0-.09-.43.69.69,0,0,0-.27-.29.71.71,0,0,0-.4-.11Zm.49.61a.33.33,0,0,1-.06.19.32.32,0,0,1-.14.14l.22.5h-.35l-.16-.43h-.14v.43h-.3V140h.46a.64.64,0,0,1,.33.1.37.37,0,0,1,.14.3Zm-.33,0a.12.12,0,0,0,0-.11.37.37,0,0,0-.15,0h-.1v.28h.11c.13,0,.2-.05.2-.14Z"/>
  </g>
  <rect class="cls-3" width="425" height="244"/>
</svg>
