<svg id="Camada_1" data-name="Camada 1" xmlns="http://www.w3.org/2000/svg" viewBox="0 0 2129.58 1606.77">
  <defs>
    <style>
      .cls-1 {
        fill: #f06;
      }

      .cls-1, .cls-2 {
        fill-rule: evenodd;
      }

      .cls-2 {
        fill: #ed3237;
      }
    </style>
  </defs>
  <title>logo Master Hub®</title>
  <path class="cls-1" d="M411.84,980.2C396,972.65,19.93,972.24,0,980,62,986.89,362.23,984.53,411.84,980.2Z" transform="translate(0 0)"/>
  <path class="cls-1" d="M36.12,823c49.59,2,447.44,7.34,462.45-1.29-23.62-6.09-302.12-3.91-348-3.55C128.65,818.31,49.59,816,36.12,823Z" transform="translate(0 0)"/>
  <path class="cls-2" d="M1553,808.08c-80.54,3.37-164.77,10.49-245.21,16.64-198.78,15.21-99.4,8.32-166.17-12.89-17.07-5.42-35.42-10.52-55.28-12.43C1051.1,878,840,1063.65,773.76,1087.47c6.2,17,33.54,58.66,43.73,71.6-19.16,17.39-105.32,95.41-124.4,101.68-11.73-14.55-22.76-24.16-35.65-37.08-14-14-24.46-27.68-41.18-37.84-30.55,19.43-92.06,78.3-97.2,115.17,20.93,25.47,143.78,160.24,173.67,160.53,42.47.39,268.32-155.34,324.51-175.3,42-14.93,82.4-30.71,123.37-43.83,30.51-9.77,27.26-14.34,37.19-44.14,7.37-22.09,14.53-43.4,20.31-65.46,12.53-47.78,22.22-94.89,20.15-147.31l362.83-46.22c-.79-14-2.61-11.35,2.24-21.49,92,.81,76.57,15.71,128.71-35,15.55-15.12,76.31-78.48,65.35-102.55-52.77-53.31-90.6-8.48-156.56,6.91l.34-79.38C1588.16,711.48,1574.55,760.94,1553,808.08Z" transform="translate(0 0)"/>
  <path class="cls-1" d="M237.29,701.25c20.7,5,147.22,4.35,176.63,4.35,37.47,0,146.81.52,177.55-3.9C576.75,695,259.72,694.44,237.29,701.25Z" transform="translate(0 0)"/>
  <path class="cls-1" d="M164.1,436.45c33.56,4.11,186.6,4.4,227.9,4,47.78-.51,190.89,1.29,227.77-4.05C602.07,429.4,181.44,429.51,164.1,436.45Z" transform="translate(0 0)"/>
  <path class="cls-1" d="M276.89,535.6l9.19-.15c19.56,3.2,260.33,0,273-4.25-45.38-5.79-432.21-5.41-480.9-.06C89.27,535.25,258.55,537.82,276.89,535.6Z" transform="translate(0 0)"/>
  <path class="cls-2" d="M1286.29,262.8l-59.84,23.75c-75.75,28-145.33,60.26-216.43,93-40.2,18.5-62.3,39.18-92.38,61.39-28.86,21.32-62.55,46.9-93.11,64.61,31.1,201.47,266,359.36,492.2,248.69,181.42-88.77,244.2-316.11,151-476.44-14.5-25-30.78-42.85-41.12-62.44Z" transform="translate(0 0)"/>
  <path class="cls-1" d="M354.44,1355.23c21.09,25.47,46.8,23.13,69.85,2.39l56.45-52c17.3-15.68,90.69-87.78,103-108.54-13.86-25.86-45-63.41-77.18-67.08-31.56,38.08-51.89,58.57-81.62,106.27C409.52,1261.09,359.65,1328.12,354.44,1355.23Z" transform="translate(0 0)"/>
  <path class="cls-1" d="M800.12,429c-18.34,22.81-58.94,56.15-83.07,78.2l-72.73,72.43c-10.49,15.17,4,15.38,20.62,6.79C763.41,535.31,868,467.77,953.31,399.7c66.2-52.83,266.49-126.6,358.89-160.51,26-9.52,90.76-28.54,109.12-40.82-32-61.22-72.51-90.11-109.28-130.87-10.15-11.25-31.47-26.68-45.55-35.95-45.11-29.73-53.55-39.19-119.44-25.22-44.56,9.45-85.2,21.89-127,35.47C979.49,55,814.7,111.12,800.94,143.47,768.67,219.36,789.18,348,800.12,429Z" transform="translate(0 0)"/>
  <path class="cls-2" d="M1176.56,1244.07l-189.11,64.62c35.59,23.47,204.57,30.17,255.57,25.66l-37.85,158.42c47-1.71,116.54-7.47,153.06-28.19,16.43-9.32,18.11-30.37,26.78-63.67,11.23-43.19,28.08-110.05,26.08-154.23-1.62-35.75-13.42-38.11-46.95-42.83-52.75-7.41-119.15-7.2-173-5.68Z" transform="translate(0 0)"/>
  <path class="cls-1" d="M1505.34,1522.1c.8-22.9-11.64-33.73-21.38-44.57-29.15-9.41-82.6.4-114.22,5.15l-143.34,21.55c.28,46-.86,65.56,16.78,102.54l49.21-11.18C1320.7,1590.43,1489,1539.15,1505.34,1522.1Z" transform="translate(0 0)"/>
  <path class="cls-1" d="M1582.1,722.91c12.51-8.64,19.27-22.42,31.36-25.29,21.67-5.15,7.76-.28,12.69,1.43,7.09,19.49,4.71,50.78,4.28,74.35,58.19-7.16,87.88-59.33,144.7-7.13,15,13.81,11.27,28.94,3.27,47.49l351.16.33,0-480-547.81-1.31Z" transform="translate(0 0)"/>
</svg>
