<svg id="Camada_1" data-name="Camada 1" xmlns="http://www.w3.org/2000/svg" viewBox="0 0 221.8 203.38">
  <defs>
    <style>
      .cls-1, .cls-4 {
        fill: #91251a;
      }

      .cls-1, .cls-2 {
        fill-rule: evenodd;
      }

      .cls-2, .cls-3 {
        fill: #bf0811;
      }
    </style>
  </defs>
  <title>Sem título-1</title>
  <g>
    <path class="cls-1" d="M151.22,125.41c-1.88-.89-46.53-.94-48.89,0,7.36.82,43,.54,48.89,0Z" transform="translate(-102.33 -21.43)"/>
    <path class="cls-1" d="M106.62,106.75c5.88.24,53.11.87,54.89-.16-2.8-.72-35.86-.46-41.3-.42-2.61,0-12-.25-13.59.58Z" transform="translate(-102.33 -21.43)"/>
    <path class="cls-2" d="M269.68,97.73c-7.6.32-15.55,1-23.15,1.57-18.77,1.44-9.39.79-15.69-1.22a25.09,25.09,0,0,0-5.22-1.17c-3.33,7.42-23.26,25-29.51,27.2a39.11,39.11,0,0,0,4.13,6.76c-1.81,1.64-10,9-11.75,9.6a43,43,0,0,0-3.37-3.5,21.1,21.1,0,0,0-3.88-3.57c-2.89,1.83-8.7,7.39-9.18,10.87,2,2.41,13.57,15.13,16.4,15.16,4,0,25.33-14.67,30.64-16.55,4-1.41,7.78-2.9,11.65-4.14,2.88-.92,2.57-1.35,3.51-4.17.69-2.08,1.37-4.1,1.92-6.18a46.62,46.62,0,0,0,1.9-13.91l34.26-4.36c-.08-1.32-.25-1.07.21-2,8.69.07,7.23,1.48,12.15-3.31,1.47-1.42,7.21-7.41,6.17-9.68-5-5-8.55-.8-14.78.65l0-7.49c-3.11.35-4.4,5-6.44,9.47Z" transform="translate(-102.33 -21.43)"/>
    <path class="cls-1" d="M130.5,92.3c2.45.59,17.47.51,21,.51,4.45,0,17.43.07,21.08-.46-1.74-.8-39.38-.86-42,0Z" transform="translate(-102.33 -21.43)"/>
    <path class="cls-1" d="M121.81,60.86c4,.49,22.15.53,27.05.47,5.68-.06,22.66.16,27-.48-2.1-.82-52-.81-54.09,0Z" transform="translate(-102.33 -21.43)"/>
    <path class="cls-1" d="M135.2,72.63h1.09c2.32.38,30.9,0,32.4-.51-5.38-.69-51.31-.64-57.09,0,1.32.49,21.42.8,23.6.53Z" transform="translate(-102.33 -21.43)"/>
    <path class="cls-2" d="M244.5,46.24l-5.65,2.25c-7.15,2.64-13.72,5.69-20.43,8.78-3.8,1.74-5.89,3.7-8.73,5.79a99.32,99.32,0,0,1-8.79,6.1c2.94,19,25.12,33.93,46.48,23.49,17.13-8.39,23.05-29.85,14.25-45-1.37-2.36-2.9-4-3.88-5.9L244.5,46.24Z" transform="translate(-102.33 -21.43)"/>
    <path class="cls-1" d="M156.51,149.39c2,2.41,4.42,2.19,6.6.23l5.33-4.91c1.63-1.48,8.56-8.29,9.73-10.25-1.31-2.44-4.25-6-7.29-6.33-3,3.59-4.9,5.53-7.7,10-1.46,2.34-6.17,8.67-6.67,11.23Z" transform="translate(-102.33 -21.43)"/>
    <path class="cls-1" d="M198.6,61.93c-1.74,2.16-5.57,5.3-7.85,7.39l-6.86,6.83c-1,1.44.38,1.46,1.94.65a173.81,173.81,0,0,0,27.23-17.63c6.25-5,25.16-12,33.89-15.16,2.45-.9,8.57-2.69,10.3-3.85-3-5.78-6.84-8.51-10.32-12.36a26.05,26.05,0,0,0-4.3-3.39c-4.26-2.81-5-3.7-11.28-2.38a114.24,114.24,0,0,0-12,3.35c-3.83,1.24-19.39,6.54-20.69,9.6-3,7.16-1.11,19.31-.07,27Z" transform="translate(-102.33 -21.43)"/>
    <path class="cls-2" d="M234.14,138.9,216.29,145c3.36,2.22,19.31,2.85,24.13,2.42l-3.58,15c4.44-.16,11-.71,14.45-2.66,1.56-.88,1.72-2.87,2.53-6,1.06-4.08,2.65-10.39,2.47-14.57-.16-3.37-1.27-3.6-4.44-4a105.74,105.74,0,0,0-16.33-.54l-1.38,4.34Z" transform="translate(-102.33 -21.43)"/>
    <path class="cls-1" d="M265.19,165.15c.07-2.16-1.1-3.19-2-4.21-2.76-.89-7.8,0-10.79.49l-13.53,2c0,4.35-.08,6.19,1.58,9.68l4.65-1c2.67-.49,18.56-5.33,20.11-6.94Z" transform="translate(-102.33 -21.43)"/>
    <path class="cls-1" d="M272.43,89.69c1.18-.82,1.82-2.12,3-2.39,2.05-.49.74,0,1.2.14.67,1.84.45,4.79.41,7,5.49-.68,8.29-5.61,13.66-.68,1.42,1.31,1.06,2.74.31,4.49l33.16,0V53l-51.73-.12,0,36.84Z" transform="translate(-102.33 -21.43)"/>
    <polygon class="cls-3" points="23 184.04 17.83 191.79 14.88 192.25 8.43 183.47 8.43 202.51 1.02 202.51 1.02 167.61 5.96 167.61 16.31 182.29 25.71 167.61 30.45 167.61 30.45 202.51 23 202.51 23 184.04 23 184.04"/>
    <path class="cls-3" d="M142.43,205.16a12.4,12.4,0,0,0-3.14.46,15.51,15.51,0,0,0-3.08,1.13l-2-6.16a16.63,16.63,0,0,1,4.32-1.62,20.56,20.56,0,0,1,4.94-.69,10.46,10.46,0,0,1,5.13,1.23A8.58,8.58,0,0,1,152,203a10.59,10.59,0,0,1,1.21,5.1v15.86h-4.13l-1.76-2.62c-1.71,2.12-3.59,3.19-5.65,3.19q-4.17,0-6.31-2.24a8.44,8.44,0,0,1-2.13-6.08,6.88,6.88,0,0,1,2.37-5.7,10.16,10.16,0,0,1,6.5-1.89h3.61a3.79,3.79,0,0,0-1-2.54,3.14,3.14,0,0,0-2.35-.9Zm-.24,8.26a2.55,2.55,0,0,0-1.92.77,2.7,2.7,0,0,0-.74,1.95,2.25,2.25,0,0,0,.62,1.59,2.08,2.08,0,0,0,1.61.67,5.74,5.74,0,0,0,4-2v-3Z" transform="translate(-102.33 -21.43)"/>
    <path class="cls-3" d="M163.7,224.51a20,20,0,0,1-4.6-.67,10.36,10.36,0,0,1-4.32-2.05l2.18-5.24a16.9,16.9,0,0,0,3.25,1.26,12,12,0,0,0,3,.49,4.44,4.44,0,0,0,2-.44,1.33,1.33,0,0,0,.88-1.21,1.69,1.69,0,0,0-.83-1.28,8.63,8.63,0,0,0-2.3-1.13,18.61,18.61,0,0,1-5.7-3.18,6.08,6.08,0,0,1-2.23-4.82,7.17,7.17,0,0,1,2.57-5.83,10.64,10.64,0,0,1,7-2.13,16.45,16.45,0,0,1,4.2.64,10.93,10.93,0,0,1,4.06,2l-2.14,5.23a13.9,13.9,0,0,0-5.88-1.59,3.35,3.35,0,0,0-1.81.46,1.38,1.38,0,0,0-.71,1.18c0,.55,1,1.2,3,1.95q7.94,3,7.93,8.32a7.43,7.43,0,0,1-2.45,6c-1.63,1.4-4,2.11-7.14,2.11Z" transform="translate(-102.33 -21.43)"/>
    <path class="cls-3" d="M184.17,199.61h5.12l1.33,6.27h-6.45v8.31A4.58,4.58,0,0,0,185,217a2.62,2.62,0,0,0,2.23,1.08,6,6,0,0,0,2.94-.82l2.13,5.59a7.24,7.24,0,0,1-2.46,1.29,9.83,9.83,0,0,1-3.09.56,10.48,10.48,0,0,1-7.17-2.46,8.82,8.82,0,0,1-2.8-7v-9.39h-3.32v-6.27h3.32V193.3l7.41-1.23v7.54Z" transform="translate(-102.33 -21.43)"/>
    <path class="cls-3" d="M202.59,198.28a9.85,9.85,0,0,1,5.94,1.75,10.65,10.65,0,0,1,3.63,4.67,17,17,0,0,1,1.21,6.56v2.42H198.61c.69,2.9,2.72,4.36,6.07,4.36a12.49,12.49,0,0,0,6.51-1.95l2.08,5.59a12.55,12.55,0,0,1-4,2.06,16.56,16.56,0,0,1-5.15.77q-6.32,0-9.94-3.44t-3.63-9.55a15.2,15.2,0,0,1,1.52-7,10.86,10.86,0,0,1,4.24-4.62,12,12,0,0,1,6.24-1.62Zm-.18,6.62a3.45,3.45,0,0,0-2.64,1.16,5.12,5.12,0,0,0-1.26,3.05h7.79a6,6,0,0,0-1.26-3.05,3.27,3.27,0,0,0-2.63-1.16Z" transform="translate(-102.33 -21.43)"/>
    <path class="cls-3" d="M229.66,205.47a9.23,9.23,0,0,0-3.82,1,14.57,14.57,0,0,0-3.87,2.59v14.88h-7.45V199.1h3.8l2.08,3.54a20.58,20.58,0,0,1,3.85-2.49,8.94,8.94,0,0,1,3.94-1.1l1.47,6.42Z" transform="translate(-102.33 -21.43)"/>
    <polygon class="cls-3" points="163.37 167.61 163.37 202.51 155.96 202.51 155.96 188.3 143.96 188.3 143.96 202.51 136.55 202.51 136.55 167.61 143.96 167.31 143.96 181.93 155.96 181.93 155.96 167.61 163.37 167.61 163.37 167.61"/>
    <path class="cls-3" d="M278,218.24q2.13,0,5.36-2.2V199.1h7.46V224h-4.13l-1.76-2.62a22.9,22.9,0,0,1-4.53,2.47,12.17,12.17,0,0,1-4.58,1q-4.32,0-6.25-2.67a12.13,12.13,0,0,1-1.92-7.23V199.1h7.45v15.19a5.08,5.08,0,0,0,.72,2.9,2.45,2.45,0,0,0,2.18,1.05Z" transform="translate(-102.33 -21.43)"/>
    <path class="cls-3" d="M315.41,211.26q0,6.21-3.2,9.73a11.29,11.29,0,0,1-8.76,3.52,9.65,9.65,0,0,1-5.88-2.21l-1.33,1.64h-3.8V188.27l7.4-.56v11.44a9.1,9.1,0,0,1,3.9-.87,11.1,11.1,0,0,1,8.52,3.39q3.15,3.39,3.15,9.59Zm-7.64.06a8,8,0,0,0-1.28-4.83,4.18,4.18,0,0,0-3.56-1.74,5.29,5.29,0,0,0-3.09,1.18V217a6,6,0,0,0,3.28,1.08,3.92,3.92,0,0,0,3.37-1.87,8.57,8.57,0,0,0,1.28-4.9Z" transform="translate(-102.33 -21.43)"/>
    <path class="cls-4" d="M318.12,188.91a4.85,4.85,0,0,1,2.63.7,4.75,4.75,0,0,1,1.74,1.92,6,6,0,0,1,.61,2.74,5.88,5.88,0,0,1-.61,2.69,4.75,4.75,0,0,1-1.74,1.92,5.27,5.27,0,0,1-5.25,0,4.75,4.75,0,0,1-1.74-1.92,5.88,5.88,0,0,1-.61-2.69,6,6,0,0,1,.61-2.74,4.75,4.75,0,0,1,1.74-1.92,4.84,4.84,0,0,1,2.62-.7Zm0,1.4a3.6,3.6,0,0,0-1.91.5,3.33,3.33,0,0,0-1.25,1.4,5,5,0,0,0,0,4.06,3.29,3.29,0,0,0,1.25,1.41,3.52,3.52,0,0,0,1.91.51,3.44,3.44,0,0,0,1.91-.52,3.53,3.53,0,0,0,1.27-1.41,4.5,4.5,0,0,0,.43-2,4.57,4.57,0,0,0-.43-2,3.42,3.42,0,0,0-1.26-1.4,3.61,3.61,0,0,0-1.92-.5Zm2.3,2.87a1.67,1.67,0,0,1-.25.92,2,2,0,0,1-.65.66l1,2.33H318.9l-.77-2h-.65v2h-1.43v-5.77h2.17a2.61,2.61,0,0,1,1.57.47,1.64,1.64,0,0,1,.63,1.39Zm-1.54,0a.55.55,0,0,0-.23-.51,1.37,1.37,0,0,0-.69-.14h-.48v1.31H318c.61,0,.92-.22.92-.66Z" transform="translate(-102.33 -21.43)"/>
  </g>
</svg>
